<?xml version="1.0" encoding="UTF-8"?>
<svg version="1.1" xmlns="http://www.w3.org/2000/svg" width="512" height="512">
<path d="M0 0 C2.97058708 1.93865348 5.58975238 3.82904123 8 6.4375 C12.09514406 5.16591744 15.77339211 3.63357036 19.5546875 1.6171875 C20.58207031 1.08222656 21.60945313 0.54726562 22.66796875 -0.00390625 C24.80310064 -1.12478548 26.93336315 -2.25499042 29.05859375 -3.39453125 C34.99440406 -6.46272857 39.28461538 -8.53385973 46 -7.5625 C49 -5.5 49 -5.5 51 -2.5625 C51.64675563 1.46175724 51.61263658 3.49787278 49.37207031 6.93432617 C46.61993295 9.83857322 44.07793624 11.24050374 40.484375 12.98828125 C39.86854553 13.29195114 39.25271606 13.59562103 38.6182251 13.90849304 C36.66753253 14.8671682 34.70914285 15.80873449 32.75 16.75 C31.41872448 17.40057589 30.0879889 18.05225791 28.7578125 18.70507812 C25.51135423 20.29539245 22.25777768 21.87047974 19 23.4375 C19.06928711 24.01975342 19.13857422 24.60200684 19.20996094 25.2019043 C21.04142899 41.03497819 20.02130279 55.00186449 10.02734375 68.00390625 C3.02983948 76.28490337 -5.31380186 82.05600442 -16 84.4375 C-19.5625 84.625 -19.5625 84.625 -22 84.4375 C-21.566875 85.36755859 -21.566875 85.36755859 -21.125 86.31640625 C-18.62893039 92.2705723 -17.93055594 96.42251854 -18.5625 102.875 C-18.70769212 107.48367899 -18.50540127 110.3188057 -15.47265625 113.78125 C-12.2169782 116.96924552 -8.63686505 119.70401477 -5 122.4375 C-3.06080906 124.01876189 -1.12308191 125.60182243 0.8125 127.1875 C2.20614339 128.27364912 3.60158777 129.35749766 5 130.4375 C6.10545166 129.910354 7.21090332 129.38320801 8.34985352 128.84008789 C9.92191678 128.09235627 11.49411272 127.34490355 13.06640625 126.59765625 C13.91497696 126.19386246 14.76354767 125.79006866 15.63783264 125.3740387 C21.22406171 122.72520253 26.83730511 120.14635445 32.47494507 117.60897827 C36.33827833 115.85540185 40.17669778 114.05102614 44.01245117 112.23803711 C45.97985754 111.32124972 47.95712315 110.4253587 49.94311523 109.54956055 C62.01945562 104.81082444 62.01945562 104.81082444 70.12939453 95.44897461 C71.32447537 91.47907547 71.69215953 87.56179753 72 83.4375 C72.33668652 81.84946439 72.70298261 80.26673788 73.125 78.69921875 C73.71615561 76.28445363 74.29929044 73.86771292 74.875 71.44921875 C76.11100797 68.1403224 76.9010542 67.055332 80 65.4375 C82.73760712 64.84399533 85.24798801 64.93456557 88 65.4375 C90.82649765 67.32183177 91.74481135 68.61876976 92.75 71.84375 C93.1244246 77.22610356 91.79373772 82.09179487 90.5625 87.3125 C90.19801758 88.91738281 90.19801758 88.91738281 89.82617188 90.5546875 C89.22736521 93.18474028 88.61838331 95.81199389 88 98.4375 C89.18396362 98.88343506 89.18396362 98.88343506 90.3918457 99.33837891 C93.15892582 100.50447407 94.315112 101.51342841 96.1875 103.8125 C96.67605469 104.39773437 97.16460937 104.98296875 97.66796875 105.5859375 C101.91189858 111.48512441 101.82377266 117.33776863 101 124.4375 C97.72885484 133.25414875 90.19253843 137.56996213 82.171875 141.51953125 C80 142.4375 80 142.4375 78 142.4375 C77.76726379 143.64350861 77.53452759 144.84951721 77.29473877 146.09207153 C75.05970183 157.54203656 72.53759217 168.89367878 69.81383514 180.23623276 C68.45316095 185.94517651 67.14223723 191.66581556 65.82509995 197.38493156 C64.67499886 202.36665569 63.50543498 207.34226981 62.29443359 212.30957031 C61.10836864 217.17904355 59.97532712 222.05824566 58.8766861 226.94815445 C58.45356234 228.78872946 58.01194974 230.62516647 57.55062103 232.45653915 C54.47086241 244.16758125 54.47086241 244.16758125 57.48485947 255.50293922 C59.17081156 258.26522848 61.06174512 260.84800555 63 263.4375 C64.12300369 265.30290194 65.22779741 267.17960339 66.30078125 269.07421875 C67.30322462 270.75868393 68.30709657 272.4422999 69.3125 274.125 C69.82361328 274.99060547 70.33472656 275.85621094 70.86132812 276.74804688 C71.35697266 277.57755859 71.85261719 278.40707031 72.36328125 279.26171875 C72.79938721 279.99479248 73.23549316 280.72786621 73.68481445 281.4831543 C74.98554261 283.41601653 76.20351636 284.95305116 78 286.4375 C80.53319108 286.35992025 80.53319108 286.35992025 83.25 285.625 C92.14732834 283.75679457 99.2073413 284.09918143 107.17578125 288.69140625 C112.17525208 292.14678439 115.17787175 296.09173783 118 301.4375 C118.59425781 300.89222656 119.18851562 300.34695313 119.80078125 299.78515625 C124.17637527 295.80425033 128.5887119 291.90934202 133.1875 288.1875 C137.66216915 284.56484825 142.03348458 280.84225031 146.375 277.0625 C147.65490564 275.95047217 148.93485351 274.83849295 150.21484375 273.7265625 C152.08022066 272.10586428 153.94544422 270.48500255 155.80908203 268.86230469 C157.51373942 267.38168257 159.22472127 265.90871349 160.9375 264.4375 C161.91589844 263.591875 162.89429688 262.74625 163.90234375 261.875 C169.99787916 257.07851312 176.4030434 253.59605948 183.55078125 250.6328125 C184.33140427 250.30457489 185.11202728 249.97633728 185.91630554 249.63815308 C187.54924403 248.9541029 189.18369126 248.27364388 190.81958008 247.59667969 C193.32841286 246.5558986 195.82925993 245.49737173 198.33007812 244.4375 C199.92402969 243.77235935 201.51841572 243.10825867 203.11328125 242.4453125 C204.23359489 241.96893845 204.23359489 241.96893845 205.37654114 241.48294067 C210.65589688 239.32279896 210.65589688 239.32279896 214 240.4375 C215.38671875 243.01953125 215.38671875 243.01953125 216.6875 246.25 C217.12449219 247.30832031 217.56148438 248.36664063 218.01171875 249.45703125 C219 252.4375 219 252.4375 219 256.4375 C217.92218262 256.8593457 216.84436523 257.28119141 215.73388672 257.71582031 C211.65565981 259.32066404 207.59303994 260.96231077 203.53369141 262.61425781 C201.79021353 263.31805292 200.0428923 264.01241675 198.29150391 264.69628906 C185.86057994 269.56025358 176.62433375 275.20462571 167 284.4375 C165.66166434 285.60839605 164.31601375 286.77110065 162.95703125 287.91796875 C162.42730713 288.37421631 161.89758301 288.83046387 161.35180664 289.30053711 C155.93933415 293.95758124 150.47175223 298.52785993 144.9140625 303.01171875 C142.67734185 304.87365377 140.49994612 306.76344125 138.3359375 308.70703125 C137.36805298 309.56953491 137.36805298 309.56953491 136.38061523 310.44946289 C135.12967196 311.56838049 133.88631238 312.69586522 132.65258789 313.83374023 C125.21271902 320.46610244 116.2011559 323.93303732 106.921875 327.265625 C105.97305954 327.61200516 105.02424408 327.95838531 104.04667664 328.31526184 C100.94969564 329.44467118 97.84984867 330.5659884 94.75 331.6875 C92.57274689 332.48034905 90.39574875 333.27389859 88.21899414 334.06811523 C84.85361327 335.29587769 81.48806804 336.52316907 78.12171936 337.74827576 C70.53686845 340.50865274 62.95876566 343.28672626 55.38671875 346.08203125 C54.38217148 346.45286331 53.37762421 346.82369537 52.34263611 347.20576477 C47.4298848 349.0208192 42.51891877 350.84057637 37.61010742 352.66625977 C35.74794159 353.35839033 33.88571974 354.05037022 32.0234375 354.7421875 C31.13805801 355.07115524 30.25267853 355.40012299 29.34046936 355.73905945 C24.44538178 357.55171705 19.5377242 359.31026467 14.6015625 361.0078125 C1.28852211 365.63092734 -10.09183873 371.84991597 -21.92626953 379.47802734 C-26.87109283 382.6303031 -31.8952613 385.65122385 -36.91601562 388.68035889 C-39.89376048 390.47835291 -42.86660317 392.28441462 -45.83984375 394.08984375 C-46.73085281 394.63055511 -46.73085281 394.63055511 -47.63986206 395.18218994 C-52.29478727 398.00744316 -56.9449931 400.84039563 -61.59442139 403.67468262 C-66.20128532 406.48159385 -70.8166156 409.27434732 -75.43463135 412.06286621 C-79.40745108 414.46478582 -83.36507331 416.89037415 -87.31735229 419.32592773 C-90.19126249 421.09220061 -93.07392169 422.84384257 -95.95837402 424.59283447 C-97.34156178 425.43569069 -98.72117183 426.28445159 -100.09680176 427.1395874 C-102.02520042 428.33713259 -103.96577247 429.51223224 -105.91015625 430.68359375 C-107.56736694 431.69957642 -107.56736694 431.69957642 -109.25805664 432.73608398 C-118.19825092 437.33808679 -129.84284546 437.26382984 -139.70166016 438.50048828 C-141.25519314 438.69758419 -142.80869468 438.89492808 -144.36216736 439.09249878 C-148.54963838 439.62420365 -152.73758606 440.15205598 -156.92567492 440.67886972 C-160.43231754 441.12024504 -163.93874368 441.56332769 -167.4451803 442.00633609 C-175.71895086 443.05154426 -183.99313934 444.09339711 -192.26757812 445.13330078 C-200.7860171 446.20394429 -209.30363202 447.28097415 -217.82088435 448.36101353 C-225.15486658 449.29073668 -232.48938565 450.21613845 -239.82433736 451.13818157 C-244.1960528 451.68779537 -248.56753867 452.23909566 -252.93849564 452.79471207 C-257.04686073 453.31678776 -261.15587126 453.83345388 -265.26542854 454.34605789 C-266.76803128 454.53439488 -268.27039978 454.72461229 -269.77250099 454.91690826 C-277.2086378 455.86775522 -284.49053523 456.67705549 -292 456.4375 C-292.83253956 450.71379051 -293.09705875 445.21593501 -293 439.4375 C-284.13843925 437.68420942 -275.22806498 436.51448843 -266.26660156 435.42211914 C-264.70981724 435.22994842 -263.15307083 435.03747041 -261.59635925 434.8447113 C-258.26602756 434.43279974 -254.9354845 434.02265812 -251.60477448 433.61381721 C-246.33381363 432.96641113 -241.0636558 432.31262753 -235.79364014 431.65757751 C-220.8154112 429.79655704 -205.8366708 427.939799 -190.85595703 426.09887695 C-182.56549357 425.08004063 -174.27598968 424.05374321 -165.98748565 423.01908392 C-161.60901612 422.47285075 -157.23014057 421.93052285 -152.85004425 421.3974781 C-148.73500153 420.89667894 -144.62128012 420.38616786 -140.50835609 419.86826515 C-139.00238807 419.68039832 -137.4959697 419.49610042 -135.98908806 419.31570816 C-133.92605268 419.06820212 -131.86504435 418.80771156 -129.80401611 418.54408264 C-128.65223499 418.40195878 -127.50045387 418.25983492 -126.31377029 418.11340427 C-120.53407154 416.93452863 -115.66880349 414.38752397 -110.6875 411.25 C-106.2189781 408.4375 -106.2189781 408.4375 -104 408.4375 C-104 407.7775 -104 407.1175 -104 406.4375 C-104.80566406 406.20289063 -105.61132812 405.96828125 -106.44140625 405.7265625 C-110.84190613 404.13252851 -114.82236361 402.02696609 -118.9375 399.8125 C-119.76636719 399.370271 -120.59523437 398.92804199 -121.44921875 398.47241211 C-123.14521916 397.56734747 -124.84037232 396.66069337 -126.53466797 395.75244141 C-128.84028632 394.52268696 -131.1539668 393.31035451 -133.47265625 392.10546875 C-134.15529541 391.74855957 -134.83793457 391.39165039 -135.54125977 391.02392578 C-136.8145071 390.35833943 -138.08964324 389.69634954 -139.36694336 389.03857422 C-145.007001 386.06743683 -145.007001 386.06743683 -147 383.4375 C-147.81807029 379.1984085 -147.88987448 376.9003421 -145.62890625 373.18359375 C-142.74841983 369.54855163 -139.65303571 366.14155412 -136.5 362.7421875 C-126.74031268 352.01081044 -119.0719641 339.86756579 -111.16950989 327.75587463 C-107.78311806 322.58369546 -104.29847452 317.48499372 -100.78515625 312.3984375 C-99.25117968 310.16078657 -97.71913141 307.92183031 -96.18792725 305.68228149 C-95.19328338 304.23563161 -94.19207596 302.79347113 -93.18414307 301.35604858 C-91.77515787 299.34424832 -90.39138655 297.31713013 -89.01171875 295.28515625 C-88.58883072 294.69467499 -88.16594269 294.10419373 -87.73023987 293.49581909 C-85.78512871 290.58157113 -84.9977942 288.71200907 -85.02612305 285.18652344 C-86.31220592 280.23563636 -87.87708927 275.43091506 -89.5703125 270.60546875 C-89.9296286 269.57367996 -90.2889447 268.54189117 -90.65914917 267.47883606 C-91.42059164 265.30162475 -92.1856529 263.12567609 -92.95410156 260.95092773 C-94.11561485 257.65165845 -95.25347641 254.34484207 -96.390625 251.03710938 C-97.13657613 248.91355446 -97.88392767 246.79049085 -98.6328125 244.66796875 C-99.13169479 243.20341499 -99.13169479 243.20341499 -99.64065552 241.70927429 C-101.81742459 235.64551064 -104.57840789 230.72802351 -108.43917847 225.56587219 C-112.87863424 219.51212805 -114.19950432 212.82866 -114 205.4375 C-113.43973165 202.40966679 -112.74884642 199.4238287 -112 196.4375 C-112.53737793 196.37804199 -113.07475586 196.31858398 -113.62841797 196.25732422 C-127.87524287 194.65930193 -142.08781714 192.80653703 -156.28668213 190.83062744 C-158.17207181 190.56948741 -160.057939 190.31177106 -161.9442749 190.05755615 C-164.6335881 189.69402334 -167.32076639 189.31738444 -170.0078125 188.9375 C-171.21283417 188.77811447 -171.21283417 188.77811447 -172.44219971 188.61550903 C-180.03378251 187.51432235 -185.90446545 185.52383294 -191 179.4375 C-195.79249042 172.00087693 -193.99469274 164.16908637 -192.390625 155.96875 C-192.22254333 155.08900513 -192.05446167 154.20926025 -191.88128662 153.30285645 C-191.52527667 151.45327828 -191.1653711 149.6044461 -190.80175781 147.75634766 C-190.25208671 144.94816066 -189.72309307 142.13659139 -189.1953125 139.32421875 C-188.84500187 137.51798592 -188.49347931 135.71198763 -188.140625 133.90625 C-187.90910736 132.66059265 -187.90910736 132.66059265 -187.6729126 131.38977051 C-185.95292895 122.84251145 -183.24357363 116.5234134 -176 111.4375 C-172.99149092 110.43466364 -170.95577958 110.3036332 -167.8125 110.3125 C-166.46091797 110.30863281 -166.46091797 110.30863281 -165.08203125 110.3046875 C-161.34420265 110.46575996 -157.71072557 110.95828222 -154 111.4375 C-153.88360168 110.75369263 -153.76720337 110.06988525 -153.64727783 109.36535645 C-152.54278945 102.89050994 -151.42601544 96.41791409 -150.29573441 89.9475174 C-149.71520494 86.62171761 -149.13929396 83.29526021 -148.57421875 79.96679688 C-147.92074652 76.13194671 -147.25100056 72.30023713 -146.578125 68.46875 C-146.38003235 67.28510864 -146.1819397 66.10146729 -145.97784424 64.88195801 C-144.57113044 56.99670706 -143.00327738 50.50903368 -137.25 44.625 C-125.27361119 36.56396907 -111.7993353 40.43825512 -98.3046875 42.484375 C-96.10816431 42.8150344 -93.909761 43.13035907 -91.7109375 43.4453125 C-90.28892363 43.65792747 -88.86704317 43.87143701 -87.4453125 44.0859375 C-86.18219238 44.27333496 -84.91907227 44.46073242 -83.61767578 44.65380859 C-79.72291758 45.49752393 -76.59934507 46.75857782 -73 48.4375 C-73.04640625 47.28894531 -73.0928125 46.14039063 -73.140625 44.95703125 C-73.54926608 30.5753512 -71.74607001 18.68592862 -62 7.4375 C-45.14281077 -10.35968119 -20.47034788 -12.58073464 0 0 Z M-48.6875 20.1875 C-53.87894708 26.37818578 -55.16381886 31.41037582 -55 39.4375 C-43.89261999 34.25851679 -32.8572176 28.93958467 -21.875 23.5 C-20.71887207 22.9325708 -19.56274414 22.3651416 -18.37158203 21.78051758 C-17.29763184 21.24579834 -16.22368164 20.7110791 -15.1171875 20.16015625 C-14.15409668 19.68328369 -13.19100586 19.20641113 -12.19873047 18.71508789 C-9.8673109 17.62934801 -9.8673109 17.62934801 -9 15.4375 C-23.32652066 7.17688915 -36.91450561 7.65416639 -48.6875 20.1875 Z M0 31.4375 C-15.84 39.3575 -31.68 47.2775 -48 55.4375 C-46.70237981 60.62798078 -44.75629763 61.38743082 -40.3984375 64.109375 C-33.86816524 67.72548667 -26.91622965 68.49333456 -19.671875 66.9375 C-10.14997425 64.08740726 -4.82256934 59.0503315 0 50.4375 C2.53942905 45.1277847 2.64433533 39.236518 2 33.4375 C1.34 32.7775 0.68 32.1175 0 31.4375 Z M-127 60.4375 C-127.72947038 62.51041287 -127.72947038 62.51041287 -128.08207703 64.86471558 C-128.24606995 65.77034241 -128.41006287 66.67596924 -128.57902527 67.60903931 C-128.82934258 69.09589737 -128.82934258 69.09589737 -129.0847168 70.61279297 C-129.27047272 71.65858521 -129.45622864 72.70437744 -129.64761353 73.78186035 C-130.25978901 77.24587075 -130.8547033 80.71260611 -131.44921875 84.1796875 C-131.86999195 86.58497014 -132.29170146 88.99008915 -132.71430969 91.39505005 C-133.59819133 96.43937011 -134.47416864 101.48497574 -135.34399414 106.53173828 C-136.45938055 113.0024433 -137.58884876 119.47058402 -138.72355938 125.93792534 C-139.59457352 130.9060572 -140.46082542 135.87500902 -141.32535744 140.84427261 C-141.74037919 143.22945844 -142.15624754 145.61449712 -142.57297325 147.99938583 C-143.15423604 151.33331485 -143.72974336 154.66818436 -144.3034668 158.00341797 C-144.47641769 158.99060822 -144.64936859 159.97779846 -144.82756042 160.99490356 C-144.98309387 161.90617004 -145.13862732 162.81743652 -145.2988739 163.75631714 C-145.43508998 164.54424086 -145.57130606 165.33216457 -145.71164989 166.14396477 C-146.02171289 168.61020421 -146.11629654 170.95458424 -146 173.4375 C-143.87548254 175.56201746 -139.52820634 175.25822337 -136.58984375 175.62890625 C-135.74780899 175.73847153 -134.90577423 175.8480368 -134.03822327 175.96092224 C-131.33848133 176.31127545 -128.63801946 176.65569635 -125.9375 177 C-124.1112778 177.23593892 -122.28510518 177.47226198 -120.45898438 177.70898438 C-115.9732203 178.28962164 -111.48680169 178.8649383 -107 179.4375 C-102.57783169 154.52904832 -98.32597325 129.59507343 -94.19750977 104.63623047 C-91.86682682 90.55769405 -89.47033061 76.49222894 -87 62.4375 C-91.4649644 61.72048171 -95.93070108 61.00856007 -100.3972168 60.30126953 C-101.91534135 60.06014326 -103.43324884 59.81764607 -104.95092773 59.57373047 C-107.1372959 59.22259301 -109.32440719 58.87645588 -111.51171875 58.53125 C-112.18587326 58.4218811 -112.86002777 58.31251221 -113.55461121 58.1998291 C-121.12263856 56.58719815 -121.12263856 56.58719815 -127 60.4375 Z M-69 59.4375 C-69.33 62.0775 -69.66 64.7175 -70 67.4375 C-68.35 67.1075 -66.7 66.7775 -65 66.4375 C-65.60183749 64.41704558 -66.27306096 62.41638961 -67 60.4375 C-67.66 60.1075 -68.32 59.7775 -69 59.4375 Z M-63 84.4375 C-61.948125 84.47617188 -61.948125 84.47617188 -60.875 84.515625 C-52.86290985 84.99460865 -46.61256535 86.44848209 -41 92.4375 C-40.34 92.1075 -39.68 91.7775 -39 91.4375 C-42.28488548 86.29594013 -46.30124193 84.16581187 -52 82.4375 C-56.34710319 81.82830388 -59.24148444 81.93182296 -63 84.4375 Z M-78 114.4375 C-80.58377785 122.55794467 -82.17761335 130.89937233 -82 139.4375 C-74.08783465 138.38337139 -66.56890781 137.0003356 -59 134.4375 C-60.56527972 130.11773453 -63.90717857 127.77654866 -67.375 125 C-71.4162466 121.74805938 -74.89496483 118.6514763 -78 114.4375 Z M-58 101.4375 C-58.99 102.0975 -59.98 102.7575 -61 103.4375 C-60.68452094 107.61384185 -59.28716962 109.5532807 -56.20483398 112.33032227 C-55.68348877 112.77819092 -55.16214355 113.22605957 -54.625 113.6875 C-54.08625244 114.16566162 -53.54750488 114.64382324 -52.99243164 115.13647461 C-48.66776779 118.94468512 -44.20337454 122.57868635 -39.71484375 126.19140625 C-36.89326505 128.5258059 -34.19409288 130.95740598 -31.5 133.4375 C-27.06156639 137.52287639 -22.47200644 141.34744603 -17.77734375 145.1328125 C-13.86277863 148.3811858 -10.13932083 151.81338789 -6.41015625 155.2734375 C-5.61480469 155.98757812 -4.81945312 156.70171875 -4 157.4375 C-3.35933594 158.04851562 -2.71867187 158.65953125 -2.05859375 159.2890625 C0.96155588 160.97392776 2.65862538 160.22886297 6 159.4375 C8.60527957 158.32387386 11.1013001 157.17062652 13.62597656 155.89916992 C14.3649115 155.53481339 15.10384644 155.17045685 15.86517334 154.7950592 C18.29449751 153.59424239 20.71774005 152.38171956 23.140625 151.16796875 C24.83102176 150.32665871 26.52159654 149.48570628 28.21234131 148.64509583 C31.74879955 146.88431699 35.282105 145.11739253 38.81347656 143.34643555 C43.34188377 141.0764242 47.87914612 138.82477445 52.41910172 136.57796764 C55.90965274 134.84740878 59.39461214 133.10582455 62.87804413 131.36098671 C64.54914571 130.52594969 66.22214453 129.69469842 67.89704132 128.86730003 C70.23446145 127.71090338 72.56375952 126.5395454 74.89160156 125.36401367 C75.58564087 125.02463776 76.27968018 124.68526184 76.99475098 124.33560181 C79.78961613 122.90722624 81.72409753 121.86644422 83.4442749 119.1920929 C83.62766418 118.61307724 83.81105347 118.03406158 84 117.4375 C83.01 115.9525 83.01 115.9525 82 114.4375 C77.05892486 114.99082136 73.1367195 116.60921166 68.77294922 118.87158203 C68.07624115 119.22446289 67.37953308 119.57734375 66.66171265 119.94091797 C65.15728038 120.70405049 63.65468905 121.47082095 62.15377426 122.24084854 C59.7787185 123.45862777 57.39841708 124.66552236 55.01638794 125.86959839 C48.2478224 129.29357331 41.48970109 132.73795858 34.73388672 136.18701172 C30.59528811 138.29896359 26.450944 140.39926643 22.30298233 142.49276352 C20.72415866 143.2927538 19.14768554 144.09740047 17.5736351 144.9067421 C15.37716494 146.03608589 13.17376279 147.15062911 10.96826172 148.26220703 C10.31881592 148.60085785 9.66937012 148.93950867 9.00024414 149.28842163 C6.4738767 150.54643364 4.58505281 151.47995825 1.72879028 151.27267456 C-1.15271755 149.88062483 -3.29042519 147.6416856 -5.5625 145.4375 C-9.47481394 141.74153522 -13.42912288 138.1906884 -17.625 134.8125 C-21.18184136 131.94868217 -24.62539052 129.01403672 -28 125.9375 C-32.26634123 122.0485918 -36.69120383 118.40846362 -41.18359375 114.78515625 C-45.15825039 111.4720236 -48.92153344 107.95326502 -52.6875 104.40625 C-54.92111081 102.25591082 -54.92111081 102.25591082 -58 101.4375 Z M-168 127.4375 C-173.48426959 148.24278406 -173.48426959 148.24278406 -176 169.4375 C-172.04 170.0975 -168.08 170.7575 -164 171.4375 C-163.15941743 167.04583013 -162.32342311 162.65331768 -161.49145508 158.26000977 C-161.20849918 156.76921707 -160.92434565 155.27865113 -160.63891602 153.78833008 C-159.15334143 146.02743867 -157.70181339 138.31735412 -157 130.4375 C-160.66007473 128.82276115 -164.05534182 128.04395022 -168 127.4375 Z M-50.7644043 149.41918945 C-62.39201508 153.5115216 -73.79277988 155.72942941 -86 157.4375 C-86.50505263 160.33253383 -87.0042022 163.22837953 -87.5 166.125 C-87.64308594 166.94162109 -87.78617188 167.75824219 -87.93359375 168.59960938 C-88.13662109 169.79360352 -88.13662109 169.79360352 -88.34375 171.01171875 C-88.46943359 171.73963623 -88.59511719 172.46755371 -88.72460938 173.2175293 C-89.10258987 175.89166328 -89.10258987 175.89166328 -89 180.4375 C-75.8 180.4375 -62.6 180.4375 -49 180.4375 C-47.76282284 176.10737992 -46.68617653 172.19946776 -45.9296875 167.828125 C-45.75566406 166.82652344 -45.58164063 165.82492188 -45.40234375 164.79296875 C-45.22832031 163.76816406 -45.05429688 162.74335938 -44.875 161.6875 C-44.69324219 160.64722656 -44.51148438 159.60695312 -44.32421875 158.53515625 C-43.34020414 153.01665846 -43.34020414 153.01665846 -43 147.4375 C-45.80366179 147.4375 -48.14846655 148.49559198 -50.7644043 149.41918945 Z M56 153.4375 C55.43259094 153.72342514 54.86518188 154.00935028 54.28057861 154.30393982 C48.37827625 157.27720267 42.47317291 160.2448448 36.56640625 163.20922852 C34.36190508 164.31650998 32.15812384 165.42522598 29.95507812 166.53540039 C26.78964078 168.13023898 23.62165623 169.71991265 20.453125 171.30859375 C18.97480194 172.05549721 18.97480194 172.05549721 17.46661377 172.81748962 C16.5459613 173.27789139 15.62530884 173.73829315 14.67675781 174.21264648 C13.8684552 174.6190184 13.06015259 175.02539032 12.22735596 175.44407654 C6.22232856 178.12237997 0.42717432 178.16191818 -5.80859375 176.30078125 C-10.40816283 174.49453336 -13.70248976 171.68384583 -17.3125 168.375 C-18.51582768 167.29954986 -19.72021528 166.2252842 -20.92578125 165.15234375 C-21.44567627 164.67917725 -21.96557129 164.20601074 -22.5012207 163.71850586 C-24.18339194 162.22934391 -24.18339194 162.22934391 -27 160.4375 C-28.80110167 167.76651118 -30.3622098 174.91157567 -31 182.4375 C-24.95618691 184.8286961 -18.91005661 186.60100125 -12.62109375 188.22265625 C-10.62769402 188.75767909 -8.63487112 189.29485493 -6.64257812 189.83398438 C-3.53765574 190.67337155 -0.43199536 191.50139908 2.68530273 192.29370117 C22.29549626 197.30263327 22.29549626 197.30263327 26.53125 203.26953125 C27.4034409 204.96777135 28.22825564 206.6913193 29 208.4375 C30.01005743 210.08786025 31.03999861 211.72622249 32.08984375 213.3515625 C33.04246051 214.91981595 33.9917154 216.49011675 34.9375 218.0625 C35.43056641 218.87589844 35.92363281 219.68929687 36.43164062 220.52734375 C37.62415593 222.49557289 38.81357134 224.46559819 40 226.4375 C40.66 226.1075 41.32 225.7775 42 225.4375 C42.89636066 222.57900556 42.89636066 222.57900556 43.61987305 219.03759766 C43.76807495 218.36927414 43.91627686 217.70095062 44.06896973 217.01237488 C44.5584537 214.79388591 45.03540966 212.57291447 45.51171875 210.3515625 C45.84704295 208.81306886 46.18289055 207.27468921 46.51924133 205.73641968 C47.22317147 202.5077375 47.92097188 199.27780662 48.61450195 196.046875 C49.50456068 191.9025835 50.40923735 187.76164902 51.31848431 183.62153053 C52.01481665 180.44352165 52.703575 177.26390855 53.39002419 174.08375168 C53.72066645 172.55621085 54.05362622 171.02916978 54.38892174 169.50264359 C54.85639349 167.36872688 55.31368774 165.23287697 55.76831055 163.09619141 C56.03097214 161.88009186 56.29363373 160.66399231 56.56425476 159.41104126 C57.23481082 156.39120262 57.23481082 156.39120262 56 153.4375 Z M-93 197.4375 C-93.50505074 198.68442677 -94.00058396 199.93521067 -94.4921875 201.1875 C-94.7691748 201.88359375 -95.04616211 202.5796875 -95.33154297 203.296875 C-96.46308534 206.92045555 -96.33312074 209.8961844 -95 213.4375 C-92.1382496 218.10536953 -89.71245009 220.94356811 -84.35400391 222.48913574 C-80.28517098 223.44680704 -76.22090374 223.94191965 -72.05859375 224.27539062 C-71.30949738 224.34074509 -70.560401 224.40609955 -69.78860474 224.47343445 C-68.1771148 224.6132117 -66.56536791 224.75005252 -64.95339966 224.88420105 C-62.39602146 225.09720474 -59.83946323 225.31839146 -57.28295898 225.54162598 C-51.85591064 226.01408482 -46.42803539 226.47653845 -41 226.9375 C-34.70533334 227.47205792 -28.41108431 228.01080934 -22.1177063 228.56034851 C-19.61005492 228.7771388 -17.10183787 228.98620206 -14.59350586 229.19494629 C-13.04277295 229.3294536 -11.49207135 229.46432253 -9.94140625 229.59960938 C-9.25337921 229.6547319 -8.56535217 229.70985443 -7.85647583 229.76664734 C4.21082917 230.8479474 4.21082917 230.8479474 7.890625 234.1171875 C8.33921875 234.84164062 8.7878125 235.56609375 9.25 236.3125 C9.80945313 237.19421875 10.36890625 238.0759375 10.9453125 238.984375 C11.63182983 240.13445029 12.31649411 241.28563242 13 242.4375 C13.97586363 244.04729887 14.95249029 245.65663531 15.9296875 247.265625 C18.01406398 250.71168336 20.08034365 254.16766677 22.1328125 257.6328125 C23.08839661 259.23446155 24.04412234 260.83602612 25 262.4375 C25.4650293 263.22866211 25.93005859 264.01982422 26.40917969 264.83496094 C27.06901855 265.93372559 27.06901855 265.93372559 27.7421875 267.0546875 C28.13003418 267.70808105 28.51788086 268.36147461 28.91748047 269.03466797 C29.27471191 269.49760254 29.63194336 269.96053711 30 270.4375 C30.66 270.4375 31.32 270.4375 32 270.4375 C32.50643553 268.20978658 33.0048962 265.98025924 33.5 263.75 C33.7784375 262.50863281 34.056875 261.26726562 34.34375 259.98828125 C35.52466102 253.59870912 34.97503348 250.77306361 31.4921875 245.17578125 C31.12908478 244.58508347 30.76598206 243.99438568 30.39187622 243.38578796 C29.2298914 241.50057885 28.05293178 239.62527705 26.875 237.75 C25.72602849 235.89659377 24.58013823 234.04133027 23.43585205 232.18502808 C22.68175039 230.97054315 21.91996041 229.7607985 21.15057373 228.55593872 C19.47436281 225.91931236 17.9559351 223.33991387 16.66894531 220.48974609 C14.63541134 216.11188664 13.15922318 213.96794277 8.68457031 211.92041016 C5.23870843 210.76152424 1.73017067 209.88666044 -1.79846191 209.01959229 C-4.66674474 208.26121099 -7.43287051 207.28770123 -10.22566223 206.29115295 C-37.77377946 196.52414935 -64.02852306 196.16393062 -93 197.4375 Z M-81 240.4375 C-79.66945933 244.45429965 -78.3367373 248.47036769 -77.00219727 252.48583984 C-76.55078595 253.84502734 -76.09991812 255.20439549 -75.6496582 256.56396484 C-74.99321769 258.5457551 -74.33474698 260.52686061 -73.67578125 262.5078125 C-73.34865646 263.49590912 -73.34865646 263.49590912 -73.0149231 264.50396729 C-71.91709461 267.79518503 -70.77995557 271.06241826 -69.55224609 274.30761719 C-69.09543457 275.52352539 -68.63862305 276.73943359 -68.16796875 277.9921875 C-67.75184326 279.06710449 -67.33571777 280.14202148 -66.90698242 281.24951172 C-65.72008533 285.42138311 -65.20791404 289.32459159 -66.75927734 293.46289062 C-67.1145752 294.00107422 -67.46987305 294.53925781 -67.8359375 295.09375 C-68.43438477 296.02537964 -68.43438477 296.02537964 -69.04492188 296.97583008 C-69.48384766 297.62318115 -69.92277344 298.27053223 -70.375 298.9375 C-71.06045898 299.98877075 -71.06045898 299.98877075 -71.75976562 301.0612793 C-73.15793437 303.19723688 -74.57694519 305.31806741 -76 307.4375 C-76.75366047 308.57873021 -77.50633194 309.72061443 -78.2578125 310.86328125 C-81.93251154 316.42420194 -85.66252414 321.9464253 -89.42221069 327.45024109 C-91.09666433 329.90609411 -92.76247324 332.36774696 -94.42724609 334.83016968 C-95.26570437 336.06586827 -96.10798205 337.29898408 -96.95410156 338.52944946 C-98.14951242 340.26857358 -99.33179413 342.01597093 -100.51171875 343.765625 C-101.55525513 345.29558105 -101.55525513 345.29558105 -102.61987305 346.85644531 C-103.07531494 347.70819336 -103.53075684 348.55994141 -104 349.4375 C-102.76736651 353.13540046 -101.79947549 353.3729846 -98.4375 355.125 C-96.95833333 355.89583333 -95.47916667 356.66666667 -94 357.4375 C-88.64482244 350.7984116 -83.86344436 343.87907503 -79.1875 336.75 C-74.8597674 330.20325972 -70.53350715 323.67442265 -65.9375 317.3125 C-65.18726563 316.25933594 -64.43703125 315.20617187 -63.6640625 314.12109375 C-62.17113876 312.03635363 -60.65283491 309.97733151 -59.10839844 307.93017578 C-56.97842868 305.10035882 -54.89492239 302.23993033 -52.8125 299.375 C-52.12728271 298.4886084 -51.44206543 297.6022168 -50.73608398 296.68896484 C-46.35268779 290.56154014 -45.33105404 286.45889169 -46.37719727 279.00463867 C-46.58272217 277.82748291 -46.78824707 276.65032715 -47 275.4375 C-47.19703075 274.09479575 -47.38948362 272.75141352 -47.57788086 271.4074707 C-48.18760052 267.13788644 -48.87104715 262.88198219 -49.5625 258.625 C-49.79930526 257.14265427 -50.03563608 255.66023267 -50.27148438 254.17773438 C-50.84220973 250.59676818 -51.41927782 247.01686034 -52 243.4375 C-61.66855081 242.04273707 -71.24416608 241.00871986 -81 240.4375 Z M-34 245.4375 C-33.69569431 247.79171061 -33.39058762 250.14581134 -33.08422852 252.49975586 C-32.81734803 254.56007324 -32.55356701 256.62079424 -32.29272461 258.68188477 C-31.61259043 263.99940794 -30.87811969 269.29460361 -29.9921875 274.58203125 C-29.83661377 275.55575684 -29.68104004 276.52948242 -29.52075195 277.53271484 C-29.22225165 279.38414826 -28.9040258 281.23254302 -28.56323242 283.07666016 C-27.56446323 289.45886181 -28.45267574 293.08282254 -32 298.4375 C-32.52021729 299.22632568 -33.04043457 300.01515137 -33.57641602 300.82788086 C-35.43135864 303.55820128 -37.3345323 306.2493231 -39.25 308.9375 C-45.78387429 318.20849716 -52.13199692 327.58404009 -58.38818359 337.04418945 C-62.82472817 343.73223886 -67.3969437 350.28592414 -72.1796875 356.73046875 C-73.87820812 359.25638032 -75.00465076 361.57194193 -76 364.4375 C-75.41992188 364.7778125 -74.83984375 365.118125 -74.2421875 365.46875 C-67.92137956 369.39057143 -63.35367994 373.73014012 -60 380.4375 C-56.00579432 378.96361825 -52.46828439 377.06697708 -48.80078125 374.91015625 C-48.2131601 374.56536728 -47.62553894 374.22057831 -47.02011108 373.86534119 C-45.76566632 373.12838713 -44.51219111 372.38978058 -43.25961304 371.6496582 C-41.28945965 370.486396 -39.31558608 369.32965747 -37.34106445 368.17382812 C-31.81333019 364.92980655 -26.3018657 361.68167805 -20.9296875 358.18359375 C-19.51610887 357.26748211 -18.10207415 356.3520737 -16.6875 355.4375 C-16.01420654 354.99889648 -15.34091309 354.56029297 -14.6472168 354.10839844 C-9.46521448 350.91030713 -4.21018446 349.11245943 1.5871582 347.29931641 C11.10749432 344.5970039 11.10749432 344.5970039 18.203125 338.26953125 C19.06520893 334.80293104 19.46716616 331.66086524 19.70117188 328.11523438 C20.33696213 322.41805504 22.00271077 316.86919523 23.375 311.3125 C23.94351028 309.00199557 24.49407026 306.68697305 25.0234375 304.3671875 C25.25981934 303.36929199 25.49620117 302.37139648 25.73974609 301.34326172 C26.21021075 296.09047526 24.02977384 292.11937525 21.234375 287.8125 C20.68031982 286.95100342 20.12626465 286.08950684 19.55541992 285.2019043 C18.95963135 284.28965088 18.36384277 283.37739746 17.75 282.4375 C16.49064192 280.48583418 15.23153515 278.53400618 13.97265625 276.58203125 C13.32184082 275.57736816 12.67102539 274.57270508 12.00048828 273.53759766 C8.07942861 267.4612472 4.22435522 261.34268809 0.35644531 255.23242188 C-0.20075195 254.35521484 -0.75794922 253.47800781 -1.33203125 252.57421875 C-1.82421143 251.79780029 -2.3163916 251.02138184 -2.82348633 250.22143555 C-3.87792335 248.49257937 -3.87792335 248.49257937 -5 247.4375 C-7.79370216 247.02771714 -10.56949859 246.67994581 -13.375 246.375 C-14.13683594 246.28412109 -14.89867187 246.19324219 -15.68359375 246.09960938 C-21.80203069 245.42035052 -27.84803036 245.33944617 -34 245.4375 Z M48 276.4375 C47.4695592 278.70610837 46.95094566 280.97748489 46.4375 283.25 C46.14746094 284.51457031 45.85742188 285.77914063 45.55859375 287.08203125 C44.73416977 290.41954409 44.73416977 290.41954409 46 293.4375 C48.97 291.4575 51.94 289.4775 55 287.4375 C53.78065514 283.40428237 52.44045073 279.89480521 50 276.4375 C49.34 276.4375 48.68 276.4375 48 276.4375 Z M59.375 304.9375 C57.87066406 305.91203125 57.87066406 305.91203125 56.3359375 306.90625 C55.56507813 307.4115625 54.79421875 307.916875 54 308.4375 C54.56732271 312.51027988 55.47463859 316.02212115 57.0625 319.8125 C57.42472656 320.68648438 57.78695313 321.56046875 58.16015625 322.4609375 C58.43730469 323.11320312 58.71445312 323.76546875 59 324.4375 C64.12670197 323.78159415 68.64368774 322.27400053 73.4609375 320.49609375 C74.25150543 320.20896011 75.04207336 319.92182648 75.8565979 319.62599182 C78.36453398 318.71385293 80.86977166 317.79454635 83.375 316.875 C85.08185771 316.25277896 86.78888727 315.63102909 88.49609375 315.00976562 C92.66607131 313.49112371 96.83364502 311.96605089 101 310.4375 C99.19194562 305.4321963 99.19194562 305.4321963 95 302.4375 C90.95502451 302.63322462 87.85484683 303.12830008 84.0625 304.5 C79.98634664 305.74780205 76.22570166 306.10799879 72 305.4375 C69.0625 303.4375 69.0625 303.4375 67 301.4375 C63.86827983 301.4375 61.96390427 303.25170187 59.375 304.9375 Z M38 322.4375 C37.34 326.0675 36.68 329.6975 36 333.4375 C38.31 332.7775 40.62 332.1175 43 331.4375 C42.01 328.4675 41.02 325.4975 40 322.4375 C39.34 322.4375 38.68 322.4375 38 322.4375 Z M-118.04296875 368.40625 C-118.75066406 369.2415625 -119.45835937 370.076875 -120.1875 370.9375 C-121.26064453 372.19046875 -121.26064453 372.19046875 -122.35546875 373.46875 C-123.16951172 374.44328125 -123.16951172 374.44328125 -124 375.4375 C-121.59241256 378.15801392 -119.09501927 379.55791412 -115.84375 381.14453125 C-114.82023438 381.64919922 -113.79671875 382.15386719 -112.7421875 382.67382812 C-111.67226562 383.19396484 -110.60234375 383.71410156 -109.5 384.25 C-107.4052424 385.27528768 -105.31148632 386.30262417 -103.21875 387.33203125 C-101.66994141 388.08734131 -101.66994141 388.08734131 -100.08984375 388.85791016 C-96.09897193 390.89812355 -92.26946488 393.18566073 -88.45507812 395.5378418 C-85.99744726 396.70724022 -85.99744726 396.70724022 -83.39257812 395.72583008 C-80.45767203 394.14547299 -77.73252527 392.34391298 -75 390.4375 C-76.15121441 386.08846777 -78.31203444 383.54127632 -81.7109375 380.7578125 C-84.4570271 379.17389051 -86.81893667 378.73692431 -89.9375 378.1875 C-96.91999062 376.88183102 -101.91674266 373.76015144 -107.70678711 369.84082031 C-112.87605135 365.89738002 -112.87605135 365.89738002 -118.04296875 368.40625 Z " fill="#F6EB00" transform="translate(293,7.5625)"/>
</svg>
