<?xml version="1.0" encoding="UTF-8"?>
<svg version="1.1" xmlns="http://www.w3.org/2000/svg" width="512" height="512">
<path d="M0 0 C0.825 -0.01289062 1.65 -0.02578125 2.5 -0.0390625 C6.76303732 1.09330679 8.96519548 3.87382558 11.16943359 7.60400391 C12.39817379 9.9622499 13.55090487 12.34601019 14.6875 14.75 C15.57378589 16.57245933 16.46184678 18.39405638 17.3515625 20.21484375 C17.79661133 21.12991699 18.24166016 22.04499023 18.70019531 22.98779297 C20.58044661 26.80268299 22.56336844 30.55890798 24.5625 34.3125 C29.28411945 43.21127082 33.89472943 52.16568717 38.5 61.125 C45.19689177 74.15262794 45.19689177 74.15262794 52 87.125 C56.90558133 96.38752622 61.69109657 105.71138717 66.48440552 115.03231812 C71.76323484 125.29674901 77.06874573 135.54625705 82.42138672 145.77246094 C82.86885254 146.62743164 83.31631836 147.48240234 83.77734375 148.36328125 C84.16140381 149.09587158 84.54546387 149.82846191 84.94116211 150.58325195 C85.29057861 151.25702881 85.63999512 151.93080566 86 152.625 C86.36939697 153.30199951 86.73879395 153.97899902 87.11938477 154.67651367 C88.50650341 157.74571077 88.29102329 160.30733445 88 163.625 C86.74544028 166.44775936 85.71615278 168.08788541 83.25 169.9375 C79.45375142 171.09746484 75.73198529 171.23367564 71.96313477 169.90917969 C69.40403318 168.2351498 68.51823561 166.52324153 67.08984375 163.828125 C66.57486328 162.8690625 66.05988281 161.91 65.52929688 160.921875 C65.00400391 159.91640625 64.47871094 158.9109375 63.9375 157.875 C63.40833984 156.885 62.87917969 155.895 62.33398438 154.875 C60.87321908 152.13308673 59.43240743 149.38180952 58 146.625 C57.65727051 145.97466797 57.31454102 145.32433594 56.96142578 144.65429688 C55 140.86719208 55 140.86719208 55 138.625 C51.47346904 141.37741441 48.49456853 144.12561447 45.625 147.5625 C40.24807824 153.84151018 34.21481037 159.03869714 25.72265625 159.83984375 C18.81984436 160.10574559 12.29765203 159.35717018 6.8359375 154.83203125 C5.49636455 153.5752409 4.18784975 152.28402153 2.921875 150.953125 C1.0533728 149.36553674 1.0533728 149.36553674 -1.43676758 149.80053711 C-4.56654044 150.80722755 -5.23303561 151.72105704 -6.93359375 154.48828125 C-7.43874512 155.30506348 -7.94389648 156.1218457 -8.46435547 156.96337891 C-11.09818881 161.52841087 -13.6012791 166.15249166 -16.0625 170.8125 C-20.54606124 179.16158122 -25.08080394 187.47606055 -29.8125 195.6875 C-30.56575562 197.032677 -30.56575562 197.032677 -31.33422852 198.4050293 C-35.9693334 206.35081545 -41.60649012 212.69099044 -50.71875 215.1875 C-60.1393379 216.99418809 -67.56204789 214.67478393 -75.453125 209.35546875 C-77.2228581 208.13338319 -78.97453594 206.89363995 -80.70996094 205.62329102 C-83.5555588 203.33586353 -83.5555588 203.33586353 -87 202.625 C-89.2800792 206.54451921 -91.50430368 210.48924167 -93.68334961 214.46582031 C-94.43067087 215.81212966 -95.19226953 217.15062099 -95.96850586 218.48046875 C-100.6556394 226.00475199 -100.6556394 226.00475199 -101.5378418 234.46557617 C-100.25049215 237.09952587 -98.76545078 239.28732713 -97 241.625 C-96.0214282 243.22213825 -95.05643771 244.82768031 -94.10546875 246.44140625 C-92.6435668 248.82950648 -91.1738138 251.20891654 -89.66601562 253.56835938 C-86.48656026 258.82419376 -84.66989285 263.42906776 -86 269.625 C-88.18159145 272.38069447 -89.87177494 274.06088747 -93 275.625 C-94.99960012 275.664992 -97.00047242 275.66846799 -99 275.625 C-97.62937594 278.06450384 -96.25728385 280.50316631 -94.88354492 282.94091797 C-93.70451499 285.03380658 -92.52761697 287.12789754 -91.3527832 289.22314453 C-88.6201887 294.07704148 -85.86711364 298.89982812 -82.91015625 303.62109375 C-82.21672119 304.74076538 -82.21672119 304.74076538 -81.50927734 305.88305664 C-80.65522551 307.25089621 -79.78540713 308.60907257 -78.89697266 309.95483398 C-75.9338386 314.73318222 -75.07189669 319.02345409 -76 324.625 C-77.79393668 327.49529869 -78.98263276 329.11631638 -82 330.625 C-83.70702735 330.69496014 -85.41668003 330.70940154 -87.125 330.6875 C-88.03507812 330.67847656 -88.94515625 330.66945313 -89.8828125 330.66015625 C-90.58148438 330.64855469 -91.28015625 330.63695312 -92 330.625 C-89.77294194 334.459562 -87.54297103 338.2924224 -85.3125 342.125 C-84.68666016 343.20265625 -84.06082031 344.2803125 -83.41601562 345.390625 C-80.03484133 351.19703949 -76.60071912 356.95197408 -73 362.625 C-69.94543406 358.91934744 -67.2036673 355.06777479 -64.5625 351.0625 C-64.13348389 350.41539062 -63.70446777 349.76828125 -63.26245117 349.1015625 C-58.62876041 342.0953627 -54.05863877 335.04759877 -49.48828125 328 C-45.83576655 322.36830547 -42.16858175 316.74623675 -38.5 311.125 C-33.82668894 303.96263635 -29.15883172 296.79679035 -24.5 289.625 C-16.71105041 277.63547013 -8.89675869 265.66248898 -1.08398438 253.68847656 C5.45124977 243.67201197 11.98418341 233.65410964 18.5 223.625 C20.09236809 221.17524107 21.68484134 218.72555053 23.27734375 216.27587891 C24.499189 214.39566409 25.72048757 212.51509397 26.94140625 210.63427734 C28.95944723 207.52604707 30.97957226 204.41917921 33 201.3125 C33.93489258 199.87100586 33.93489258 199.87100586 34.88867188 198.40039062 C44.16070889 184.15507859 44.16070889 184.15507859 47.375 182.125 C50.96285164 181.44159969 53.46513688 181.67816166 57 182.625 C62.45145965 187.09045651 65.82359887 193.23540353 69.5625 199.125 C70.87389542 201.17862216 72.18762245 203.23075765 73.50390625 205.28125 C74.07955322 206.18681641 74.6552002 207.09238281 75.24829102 208.02539062 C77.0370894 210.68004223 78.96736964 213.15364238 81 215.625 C81.57105469 214.52027344 82.14210938 213.41554688 82.73046875 212.27734375 C87.94573521 202.24849032 93.36831432 192.36199639 98.96289062 182.54003906 C102.95807675 175.5099133 106.85006015 168.42986592 110.6875 161.3125 C115.60414694 152.19605019 120.56710294 143.11031159 125.63427734 134.07666016 C127.21454352 131.23986485 128.7726458 128.39129273 130.33203125 125.54296875 C131.49183476 123.44511745 132.65198765 121.34745926 133.8125 119.25 C134.35197266 118.25605225 134.89144531 117.26210449 135.44726562 116.23803711 C140.44614356 107.2594624 140.44614356 107.2594624 145 104.625 C147.0625 104.09375 147.0625 104.09375 149 104.125 C149.9590625 104.10953125 149.9590625 104.10953125 150.9375 104.09375 C154.99433482 105.1386923 157.52384569 107.91335423 159.79833984 111.31274414 C160.62132568 112.84596313 160.62132568 112.84596313 161.4609375 114.41015625 C162.08935547 115.56644531 162.71777344 116.72273438 163.36523438 117.9140625 C164.03522334 119.17183927 164.70514337 120.42965275 165.375 121.6875 C166.0827904 122.99673993 166.79179478 124.30532423 167.50195312 125.61328125 C168.96207799 128.30397717 170.41758195 130.99709466 171.87011719 133.69189453 C175.02541796 139.53332029 178.2646669 145.32758978 181.5 151.125 C186.66380261 160.40679759 191.80835946 169.69902138 196.9375 179 C197.26894012 179.60100525 197.60038025 180.2020105 197.94186401 180.82122803 C200.63208462 185.69984104 203.32125099 190.57903497 206.01037598 195.45825195 C208.36059236 199.72243912 210.71122414 203.98639693 213.0625 208.25 C213.55978104 209.15174957 213.55978104 209.15174957 214.06710815 210.07171631 C218.86199873 218.76510897 223.67474299 227.44841433 228.5 236.125 C235.69130113 249.0561123 242.8415353 262.00959057 249.98388672 274.96777344 C251.98967465 278.60660835 253.99660642 282.24481142 256.00390625 285.8828125 C256.49860413 286.77939575 256.49860413 286.77939575 257.0032959 287.6940918 C258.00217789 289.50440523 259.00108409 291.31470529 260 293.125 C263.67623844 299.78729754 267.35244361 306.44961188 271.02555847 313.1136322 C277.33790657 324.56591933 283.652622 336.01686547 290.00146484 347.44897461 C291.27512622 349.74397428 292.54635447 352.04032625 293.81494141 354.33813477 C296.45432858 359.1081845 299.10895455 363.85477593 301.9375 368.515625 C309.03594158 380.27860493 309.03594158 380.27860493 308.8046875 387.51171875 C307.54102951 390.83035455 305.75468626 392.39773149 303 394.625 C299.99483347 395.11624604 297.55943155 395.29862153 294.55880737 395.2542057 C293.28105513 395.26510651 293.28105513 395.26510651 291.97748971 395.27622753 C289.10938549 395.29454482 286.24260725 395.27709102 283.37451172 395.25991821 C281.30310314 395.26567673 279.23169967 395.27361603 277.16030693 395.28355443 C271.45752842 395.3044878 265.75516658 395.29408297 260.05238628 395.27862334 C253.906416 395.26734034 247.76051888 395.28475738 241.61456299 395.29852295 C230.26699768 395.31950452 218.91960281 395.31763958 207.57204169 395.30396561 C197.08965982 395.29139595 186.60732682 395.28810051 176.12493896 395.29407883 C175.08262382 395.29465172 175.08262382 395.29465172 174.01925181 395.29523618 C171.19863701 395.29679283 168.37802224 395.29838482 165.55740749 395.300035 C139.08897778 395.31533567 112.62063301 395.30145374 86.1522164 395.27455051 C62.62812481 395.25082183 39.10416854 395.25294494 15.58007812 395.27685547 C-10.83942428 395.30361911 -37.25885163 395.31425062 -63.67836571 395.29879415 C-66.49389011 395.29719052 -69.30941453 395.29562633 -72.12493896 395.29407883 C-73.16484685 395.29348575 -73.16484685 395.29348575 -74.22576298 395.29288069 C-84.70247014 395.28718937 -95.1791231 395.29385202 -105.65582275 395.30647659 C-117.56636863 395.32075726 -129.47675464 395.31674982 -141.38729429 395.29007287 C-147.46789087 395.27690397 -153.54821233 395.2718348 -159.62880707 395.28831863 C-165.19020009 395.3031673 -170.7510618 395.29511383 -176.3124063 395.26843087 C-178.32915079 395.26282432 -180.34593975 395.26573467 -182.36265588 395.27780981 C-185.09535277 395.2929226 -187.82620813 395.27751815 -190.55880737 395.2542057 C-191.34962448 395.26591153 -192.14044158 395.27761737 -192.95522285 395.28967792 C-196.99476061 395.22036585 -198.79228014 394.79184805 -201.98359871 392.22846639 C-204.72695508 388.6863956 -204.7879373 386.713495 -204.55175781 382.36425781 C-203.49779324 377.13174345 -200.70178271 372.95919208 -197.875 368.5 C-196.59829683 366.40404863 -195.32227663 364.30768112 -194.046875 362.2109375 C-193.38365234 361.13682617 -192.72042969 360.06271484 -192.03710938 358.95605469 C-188.63942243 353.40020129 -185.38975818 347.75981856 -182.125 342.125 C-180.94078223 340.09335462 -179.75594989 338.06206724 -178.5703125 336.03125 C-177.82418701 334.75217773 -177.82418701 334.75217773 -177.06298828 333.44726562 C-176.71220215 332.84591797 -176.36141602 332.24457031 -176 331.625 C-176.60908203 331.57674072 -177.21816406 331.52848145 -177.84570312 331.47875977 C-178.64943359 331.40455811 -179.45316406 331.33035645 -180.28125 331.25390625 C-181.07595703 331.18502197 -181.87066406 331.1161377 -182.68945312 331.04516602 C-186.7633205 330.30434546 -188.30958674 328.78623558 -191 325.625 C-192.59181204 319.54059449 -191.90504099 316.34196075 -188.83520508 310.92480469 C-188.3533374 310.12461914 -187.87146973 309.32443359 -187.375 308.5 C-186.88733154 307.6534082 -186.39966309 306.80681641 -185.8972168 305.93457031 C-184.28618188 303.15161982 -182.64440308 300.38834783 -181 297.625 C-179.78923322 295.56055895 -178.57961584 293.4954434 -177.37109375 291.4296875 C-174.27178342 286.14679131 -171.14558591 280.88045769 -168 275.625 C-168.62068359 275.57746582 -169.24136719 275.52993164 -169.88085938 275.48095703 C-170.69361328 275.40731934 -171.50636719 275.33368164 -172.34375 275.2578125 C-173.15005859 275.18965332 -173.95636719 275.12149414 -174.78710938 275.05126953 C-177 274.625 -177 274.625 -179.5 272.5 C-181.39370547 268.87039785 -182.06774898 266.75768771 -182 262.625 C-179.1470116 255.56912977 -174.97122666 249.00933199 -171.0625 242.5 C-169.9133566 240.57203515 -168.76494589 238.64363344 -167.6171875 236.71484375 C-167.02518555 235.72081543 -166.43318359 234.72678711 -165.82324219 233.70263672 C-163.35661434 229.53896363 -160.92408234 225.35587796 -158.4934082 221.17114258 C-155.67298857 216.31614688 -152.83905856 211.46911527 -150 206.625 C-149.56220215 205.87669922 -149.1244043 205.12839844 -148.67333984 204.35742188 C-147.58339392 202.50321997 -146.48245449 200.65628101 -145.375 198.8125 C-144.80523437 197.85730469 -144.23546875 196.90210938 -143.6484375 195.91796875 C-141.44278295 192.84991372 -139.58828069 190.94038311 -135.81640625 190.19140625 C-135.07261719 190.19011719 -134.32882813 190.18882812 -133.5625 190.1875 C-132.82128906 190.16816406 -132.08007812 190.14882812 -131.31640625 190.12890625 C-127.48062534 190.95039727 -125.08578763 193.06868124 -122.85522461 196.26586914 C-121.74274284 198.10957358 -120.70409305 199.97684523 -119.6875 201.875 C-119.32849609 202.5246875 -118.96949219 203.174375 -118.59960938 203.84375 C-117.72357214 205.43229753 -116.86044195 207.02795142 -116 208.625 C-113.96368555 206.02714429 -112.31758309 203.49204634 -110.87109375 200.52734375 C-110.48155518 199.73658447 -110.0920166 198.9458252 -109.69067383 198.13110352 C-109.27712646 197.28346436 -108.8635791 196.4358252 -108.4375 195.5625 C-105.14319117 188.89268247 -101.79833528 182.25932262 -98.3125 175.6875 C-94.07639495 167.69162883 -89.90248851 159.66453498 -85.75 151.625 C-85.10400801 150.37459098 -84.4580119 149.12418409 -83.81201172 147.8737793 C-82.83651081 145.98550835 -81.86103942 144.0972222 -80.88568115 142.20887756 C-77.57623224 135.80248983 -74.2576388 129.40085352 -70.9375 123 C-70.36418945 121.89462891 -69.79087891 120.78925781 -69.20019531 119.65039062 C-68.04480224 117.42282919 -66.88936616 115.19529007 -65.73388672 112.96777344 C-62.82195804 107.35384391 -59.91103226 101.73939439 -57 96.125 C-55.83333808 93.87499754 -54.66667142 91.62499754 -53.5 89.375 C-52.9225 88.26125 -52.345 87.1475 -51.75 86 C-50 82.625 -48.25 79.25 -46.5 75.875 C-45.92233887 74.76092773 -45.34467773 73.64685547 -44.74951172 72.49902344 C-43.58451067 70.25225893 -42.4194717 68.00551409 -41.25439453 65.75878906 C-37.71695523 58.93707917 -34.18075144 52.11473143 -30.64624023 45.29150391 C-29.47518681 43.03268632 -28.30284518 40.77453609 -27.12915039 38.51708984 C-24.27183393 33.02060352 -21.4320064 27.51654545 -18.62890625 21.9921875 C-18.09088379 20.93999023 -17.55286133 19.88779297 -16.99853516 18.80371094 C-15.98914962 16.82914193 -14.98700861 14.85084539 -13.99365234 12.86816406 C-7.32682424 -0.11448163 -7.32682424 -0.11448163 0 0 Z M-1 34.625 C-1.58378418 35.76751221 -2.16756836 36.91002441 -2.76904297 38.0871582 C-4.98582861 42.42482386 -7.20413754 46.76170911 -9.42285156 51.09838867 C-10.37344692 52.95690807 -11.32365729 54.81562445 -12.2734375 56.67456055 C-17.59536929 67.09009971 -22.95602305 77.48229467 -28.41833496 87.82496643 C-32.10408934 94.80744888 -35.72714162 101.82107564 -39.33285522 108.84515381 C-41.16093174 112.40580511 -42.99241897 115.96470054 -44.82421875 119.5234375 C-45.36587425 120.57575058 -45.36587425 120.57575058 -45.91847229 121.64932251 C-48.98844688 127.60985958 -52.08143282 133.5581889 -55.1875 139.5 C-55.6505957 140.3863916 -56.11369141 141.2727832 -56.59082031 142.18603516 C-57.54113751 144.00490417 -58.49149628 145.82375146 -59.44189453 147.64257812 C-62.19024071 152.90327961 -64.93767297 158.16442547 -67.67715454 163.42974854 C-68.60234066 165.20648479 -69.53002119 166.98192146 -70.45776367 168.75732422 C-71.30238159 170.38178467 -71.30238159 170.38178467 -72.1640625 172.0390625 C-72.66373535 172.9976416 -73.1634082 173.9562207 -73.67822266 174.94384766 C-74.92164086 177.46605282 -75.99575284 179.99965356 -77 182.625 C-74.12078099 184.67034928 -71.21933001 186.68163041 -68.3125 188.6875 C-67.49587891 189.26822266 -66.67925781 189.84894531 -65.83789062 190.44726562 C-65.04189453 190.99189453 -64.24589844 191.53652344 -63.42578125 192.09765625 C-62.33390503 192.85961304 -62.33390503 192.85961304 -61.2199707 193.63696289 C-58.31918612 194.92800822 -56.95372193 194.73320701 -54 193.625 C-52.30003826 191.92954625 -52.30003826 191.92954625 -51.03125 189.69140625 C-50.27328125 188.46574951 -50.27328125 188.46574951 -49.5 187.21533203 C-47.08219834 183.04005932 -44.76359847 178.82318465 -42.5 174.5625 C-37.96854653 166.16225566 -33.33250128 157.82978639 -28.5625 149.5625 C-27.69431641 148.03774048 -27.69431641 148.03774048 -26.80859375 146.48217773 C-22.15553827 138.46985966 -17.35437003 131.87755553 -8.07421875 129.03515625 C-0.11792812 127.46187844 6.93285185 128.68690903 14 132.625 C15.90751017 134.17995479 17.64524675 135.75992778 19.33203125 137.55078125 C21.00716262 138.87333487 21.00716262 138.87333487 23.38891602 138.39453125 C26.33235107 137.52705044 27.4072091 136.63749117 29.4453125 134.38671875 C30.34830078 133.40348633 30.34830078 133.40348633 31.26953125 132.40039062 C31.88183594 131.71138672 32.49414062 131.02238281 33.125 130.3125 C33.74503906 129.63509766 34.36507812 128.95769531 35.00390625 128.25976562 C36.69443049 126.40018896 38.37022997 124.53806286 40 122.625 C40.58120605 121.99311768 41.16241211 121.36123535 41.76123047 120.71020508 C43.2104803 118.7003655 43.2104803 118.7003655 42.91333008 116.33349609 C41.72462598 112.8083736 40.11274536 109.57278336 38.38671875 106.2890625 C37.83828812 105.22776123 37.83828812 105.22776123 37.27877808 104.14501953 C36.0876208 101.84354551 34.88769015 99.54677447 33.6875 97.25 C32.86072053 95.65701128 32.03447041 94.06374772 31.20874023 92.47021484 C29.1772584 88.55334603 27.13873252 84.64020064 25.09729004 80.72851562 C23.56953882 77.79980175 22.04656154 74.86862292 20.5234375 71.9375 C17.69206772 66.49486212 14.84781546 61.05904648 12 55.625 C10.94133831 53.60290015 9.88274617 51.58076389 8.82421875 49.55859375 C6.21762102 44.57995544 3.60947518 39.6021307 1 34.625 C0.34 34.625 -0.32 34.625 -1 34.625 Z M148 137.625 C147.6282666 138.31835449 147.2565332 139.01170898 146.87353516 139.72607422 C139.80321272 152.90585247 132.70118594 166.06323089 125.40039062 179.1171875 C123.78893393 182.00297607 122.18313869 184.891873 120.578125 187.78125 C119.65858032 189.43640625 119.65858032 189.43640625 118.72045898 191.125 C117.45035775 193.41329499 116.18163576 195.70235606 114.91430664 197.9921875 C111.889969 203.45125303 108.85232232 208.90057408 105.7540741 214.31809998 C104.33675795 216.79835844 102.9283479 219.28361929 101.52059937 221.76931763 C100.84407893 222.95795693 100.16315122 224.14409935 99.47769165 225.3276062 C98.52618821 226.9711865 97.59082383 228.62407827 96.65625 230.27734375 C96.11806641 231.21570068 95.57988281 232.15405762 95.02539062 233.12084961 C93.82122475 235.50525946 93.82122475 235.50525946 94.20825195 237.74853516 C95.61993126 241.09425428 97.68563293 244.04886526 99.6875 247.0625 C100.40486328 248.15195923 100.40486328 248.15195923 101.13671875 249.26342773 C102.1844436 250.85255505 103.23452523 252.44013035 104.28662109 254.02636719 C106.12235468 256.81057184 107.93104473 259.61128674 109.73828125 262.4140625 C110.99162163 264.33891024 112.24551963 266.26339503 113.5 268.1875 C114.09901123 269.12198975 114.69802246 270.05647949 115.31518555 271.01928711 C115.88148682 271.88046143 116.44778809 272.74163574 117.03125 273.62890625 C117.53205078 274.40049072 118.03285156 275.1720752 118.54882812 275.96704102 C119.2671582 276.78773071 119.2671582 276.78773071 120 277.625 C123.06021914 277.95314462 123.06021914 277.95314462 124.98046875 275.90234375 C126.07294922 274.74412109 126.07294922 274.74412109 127.1875 273.5625 C146.6098203 253.51162565 146.6098203 253.51162565 160.625 253.125 C172.90926738 253.36991194 180.93377011 259.99811453 189.71875 267.765625 C193.35511298 270.97443462 197.16593379 273.91778089 201.04125977 276.83032227 C203.99308068 279.05565069 206.86667879 281.33568514 209.68359375 283.73046875 C210.29984619 284.24416016 210.91609863 284.75785156 211.55102539 285.28710938 C212.73696457 286.27891074 213.91026396 287.28609476 215.06811523 288.31054688 C218.06671763 290.78821507 219.73765547 291.61688913 223.6640625 291.73828125 C227.55172261 290.44087712 228.8182471 289.02853452 231 285.625 C225.8128281 274.98984867 220.29237704 264.59755215 214.49267578 254.28515625 C211.60376696 249.13671815 208.74123792 243.97358223 205.875 238.8125 C205.23933105 237.6685376 204.60366211 236.5245752 203.94873047 235.34594727 C196.26366771 221.51223371 188.62811045 207.65121273 180.98962402 193.79174805 C178.63940763 189.52756087 176.28872133 185.26363315 173.9375 181 C173.44769653 180.11171005 173.44769653 180.11171005 172.94799805 179.20547485 C167.19075862 168.76593038 161.4065551 158.34148437 155.60717773 147.92529297 C155.01622314 146.8632666 154.42526855 145.80124023 153.81640625 144.70703125 C153.03438843 143.30287964 153.03438843 143.30287964 152.23657227 141.87036133 C151.46496981 140.46928971 150.7153142 139.0556284 150 137.625 C149.34 137.625 148.68 137.625 148 137.625 Z M-134 221.625 C-135.03647614 223.24358293 -136.02070817 224.89563262 -136.984375 226.55859375 C-137.89316406 228.1219043 -137.89316406 228.1219043 -138.8203125 229.71679688 C-139.77550781 231.37291992 -139.77550781 231.37291992 -140.75 233.0625 C-141.37132812 234.13177734 -141.99265625 235.20105469 -142.6328125 236.30273438 C-146.15351616 242.37483405 -149.62062988 248.47309077 -153 254.625 C-152.26177002 254.74963623 -151.52354004 254.87427246 -150.76293945 255.00268555 C-143.65425532 256.202853 -143.65425532 256.202853 -141.23828125 257.76171875 C-139.31529236 260.6553014 -139.2184828 263.18267712 -139 266.625 C-140.13696289 269.87011719 -140.13696289 269.87011719 -141.91015625 273.171875 C-142.38570702 274.06963654 -142.38570702 274.06963654 -142.87086487 274.98553467 C-146.49852619 281.74485636 -150.4572427 288.31938859 -154.4375 294.875 C-155.53465048 296.68453889 -156.63014603 298.49497133 -157.7202301 300.30877686 C-158.68999735 301.92229093 -159.6659779 303.53206592 -160.64233398 305.14160156 C-162.15989733 307.44576447 -162.15989733 307.44576447 -162 309.625 C-160.87851563 309.75455078 -160.87851563 309.75455078 -159.734375 309.88671875 C-151.73314288 311.02825579 -151.73314288 311.02825579 -148.3125 313.8125 C-146.60546927 317.47042299 -146.61085265 319.58759627 -147 323.625 C-148.26619019 326.8209433 -149.95274563 329.72496895 -151.6875 332.6875 C-152.17428223 333.54512939 -152.66106445 334.40275879 -153.16259766 335.28637695 C-154.75577299 338.07758186 -156.37384191 340.85289158 -158 343.625 C-158.56638184 344.59211914 -159.13276367 345.55923828 -159.71630859 346.55566406 C-162.9235025 352.01937056 -166.15356904 357.46875726 -169.41357422 362.90112305 C-171.66948953 366.77450673 -173.82313542 370.70664376 -176 374.625 C-148.28 374.625 -120.56 374.625 -92 374.625 C-93.63958412 370.52603971 -95.45629129 366.81520994 -97.625 363 C-97.99818359 362.33919434 -98.37136719 361.67838867 -98.75585938 360.99755859 C-103.6123868 352.46075316 -108.65277045 344.02939611 -113.67822266 335.59130859 C-114.35159668 334.46031738 -115.0249707 333.32932617 -115.71875 332.1640625 C-116.32654297 331.14521973 -116.93433594 330.12637695 -117.56054688 329.07666016 C-120.24063847 324.51195869 -120.70380062 320.89881264 -120 315.625 C-117.70637333 312.56683111 -115.65756658 310.86735179 -111.8359375 310.30859375 C-110.61777344 310.18677734 -110.61777344 310.18677734 -109.375 310.0625 C-108.14910156 309.93681641 -108.14910156 309.93681641 -106.8984375 309.80859375 C-106.27195312 309.74800781 -105.64546875 309.68742187 -105 309.625 C-106.42688343 305.79167329 -108.20454001 302.36636184 -110.265625 298.8359375 C-110.90886719 297.72863281 -111.55210938 296.62132812 -112.21484375 295.48046875 C-112.89300872 294.32018362 -113.57139507 293.16002786 -114.25 292 C-116.21721389 288.62597697 -118.18058004 285.25005425 -120.13085938 281.86621094 C-121.34940652 279.75317124 -122.57936629 277.6466596 -123.82226562 275.54785156 C-124.37076172 274.59620117 -124.91925781 273.64455078 -125.484375 272.6640625 C-125.97131836 271.83342285 -126.45826172 271.0027832 -126.95996094 270.14697266 C-128.48793237 266.44182127 -128.51433015 263.16799046 -127.25 259.375 C-125.65522895 257.14232053 -124.5950245 256.53676536 -122 255.625 C-119.67504723 255.23750787 -117.34148732 254.89517161 -115 254.625 C-116.51387873 250.51734238 -118.50807459 246.7895307 -120.6953125 243.01171875 C-121.04761932 242.39730423 -121.39992615 241.78288971 -121.76290894 241.14985657 C-122.8805647 239.20230491 -124.00270362 237.25738041 -125.125 235.3125 C-125.88701711 233.98649954 -126.648739 232.66032938 -127.41015625 231.33398438 C-129.27002521 228.0956854 -131.1339218 224.85972577 -133 221.625 C-133.33 221.625 -133.66 221.625 -134 221.625 Z M41 227.625 C39.66782557 229.66831102 38.39039611 231.72790877 37.125 233.8125 C32.16495314 241.86590941 27.00630741 249.78398616 21.8125 257.6875 C21.40118835 258.31371246 20.98987671 258.93992493 20.56610107 259.58511353 C18.90207318 262.11854835 17.2378295 264.6518409 15.57293701 267.18470764 C11.78536691 272.94783709 8.01486956 278.72201631 4.25 284.5 C3.64857178 285.42280762 3.04714355 286.34561523 2.42749023 287.29638672 C1.2246881 289.14203508 0.02196943 290.98773784 -1.18066406 292.83349609 C-3.05446954 295.70857551 -4.92940959 298.58291204 -6.8046875 301.45703125 C-12.71029333 310.50837454 -18.61214427 319.5620984 -24.5 328.625 C-29.26679047 335.96096717 -34.03656098 343.29498472 -38.8125 350.625 C-39.44615479 351.59775879 -40.07980957 352.57051758 -40.73266602 353.57275391 C-44.69843242 359.65279467 -48.70086525 365.70440654 -52.77734375 371.7109375 C-54.08972024 373.38691688 -54.08972024 373.38691688 -54 374.625 C-48.06003733 375.02309004 -42.12792991 375.31184055 -36.17773438 375.50390625 C-34.15910633 375.58397979 -32.14139556 375.69290106 -30.12597656 375.83203125 C-19.06246987 376.96505303 -19.06246987 376.96505303 -9.14193726 373.12277222 C-5.96582528 369.37169082 -3.92130666 365.19262587 -1.97860718 360.70799255 C-0.37356342 357.29161234 1.77517352 354.27011102 3.9375 351.1875 C4.40188477 350.49470947 4.86626953 349.80191895 5.34472656 349.08813477 C5.71049805 348.54471436 6.07626953 348.00129395 6.453125 347.44140625 C9.53460021 342.84167731 12.53370216 338.18981105 15.53393555 333.53686523 C20.19732152 326.30792556 24.90104826 319.10550464 29.61010742 311.90625 C30.50693237 310.53339844 30.50693237 310.53339844 31.421875 309.1328125 C31.94362305 308.33504395 32.46537109 307.53727539 33.00292969 306.71533203 C33.66196289 305.69552246 34.32099609 304.67571289 35 303.625 C35.58008316 302.8807225 36.16016632 302.13644501 36.75782776 301.36961365 C42.51742931 293.4836881 42.94109115 286.86438854 42.68359375 277.33203125 C42.67050494 275.89046151 42.66055632 274.4488602 42.65357971 273.00724792 C42.62710999 269.24997897 42.55858227 265.49466594 42.48065186 261.73815918 C42.40847766 257.89016162 42.37695394 254.04184163 42.34179688 250.19335938 C42.26718013 242.66969025 42.14803646 235.14762125 42 227.625 C41.67 227.625 41.34 227.625 41 227.625 Z M62 227.625 C62 246.765 62 265.905 62 285.625 C74.54 285.625 87.08 285.625 100 285.625 C97.69 281.995 95.38 278.365 93 274.625 C91.58068595 272.33497201 90.16382611 270.04342022 88.75 267.75 C84.04524672 260.1785303 79.18327877 252.70963082 74.30627441 245.24847412 C73.4369267 243.91845579 72.56835275 242.58793138 71.70056152 241.25689697 C70.46967241 239.37004796 69.23539419 237.48546407 68 235.6015625 C67.278125 234.49893066 66.55625 233.39629883 65.8125 232.26025391 C64.10979366 229.61352967 64.10979366 229.61352967 62 227.625 Z M154.5625 276.25 C153.90121094 276.87648438 153.23992187 277.50296875 152.55859375 278.1484375 C151.71425781 278.96570313 150.86992187 279.78296875 150 280.625 C148.74350032 281.78668889 147.48413612 282.94528353 146.22265625 284.1015625 C144.85627487 285.35883621 143.49039419 286.61665427 142.125 287.875 C141.45799072 288.48939941 140.79098145 289.10379883 140.10375977 289.73681641 C139.47397217 290.32382324 138.84418457 290.91083008 138.1953125 291.515625 C137.34477295 292.30501465 137.34477295 292.30501465 136.47705078 293.11035156 C134.77604386 294.761841 134.77604386 294.761841 133 297.625 C139.0925572 307.62108003 145.48134623 317.4033447 152 327.125 C157.33673078 335.08426625 162.61557731 343.06281313 167.63867188 351.2253418 C171.90788959 358.14781455 176.45293634 364.88310369 181 371.625 C181.99 373.11 181.99 373.11 183 374.625 C186.11007563 374.9110058 189.02006375 375.00286958 192.13134766 374.96557617 C193.07773605 374.96601425 194.02412445 374.96645233 194.99919128 374.96690369 C198.13768917 374.96480813 201.27565756 374.94144083 204.4140625 374.91796875 C206.58596505 374.91237553 208.75787137 374.90810414 210.92977905 374.90510559 C216.65423988 374.89363529 222.3784734 374.86414926 228.10284424 374.83099365 C233.94092737 374.80033985 239.77904713 374.78661029 245.6171875 374.77148438 C257.07822503 374.7392817 268.53909364 374.68805896 280 374.625 C278.62270438 371.11922505 277.11356502 367.82960503 275.3125 364.51953125 C274.78390381 363.54540283 274.25530762 362.57127441 273.71069336 361.56762695 C273.14616455 360.53468506 272.58163574 359.50174316 272 358.4375 C271.41549072 357.36395264 270.83098145 356.29040527 270.22875977 355.18432617 C261.34281572 338.88715766 252.24291324 322.72231601 243 306.625 C239.83467782 306.625 238.72336163 307.1131352 236 308.5625 C229.03503607 312.24285026 222.30052399 312.57182406 214.55078125 311.1875 C206.15886672 308.45193533 199.6312135 301.91588754 193.01513672 296.31347656 C188.34835845 292.40319809 183.51233568 288.70410583 178.70556641 284.96875 C176.9349108 283.57371873 175.19116974 282.14941631 173.44921875 280.71875 C172.29949536 279.79164658 171.14975636 278.86456252 170 277.9375 C168.989375 277.10863281 167.97875 276.27976562 166.9375 275.42578125 C162.33126827 272.60201419 158.50795992 272.40861696 154.5625 276.25 Z M72 306.625 C73.70861156 310.8965289 75.6189925 314.26637509 78.1875 318 C79.08715953 319.32860041 79.98550886 320.6580886 80.8828125 321.98828125 C81.3768457 322.71998535 81.87087891 323.45168945 82.37988281 324.20556641 C85.48244141 328.83883279 88.51944133 333.51503315 91.5625 338.1875 C92.52603394 339.66464478 92.52603394 339.66464478 93.5090332 341.17163086 C96.3332418 345.50637026 99.14900912 349.84562965 101.92578125 354.2109375 C102.34722412 354.87279053 102.76866699 355.53464355 103.20288086 356.21655273 C104.29244559 357.9324867 105.37690299 359.65166074 106.4609375 361.37109375 C106.96882813 362.11488281 107.47671875 362.85867188 108 363.625 C108.33 363.625 108.66 363.625 109 363.625 C109 344.815 109 326.005 109 306.625 C96.79 306.625 84.58 306.625 72 306.625 Z M51 316.625 C49.30279558 318.78836269 49.30279558 318.78836269 47.54296875 321.609375 C46.50148682 323.21607056 46.50148682 323.21607056 45.43896484 324.85522461 C44.68834781 326.02840071 43.93786242 327.20166104 43.1875 328.375 C42.41944978 329.56496543 41.65072754 330.75449736 40.88134766 331.94360352 C39.32452447 334.35164598 37.77135908 336.76198439 36.22119141 339.17431641 C33.66828383 343.1447577 31.09090489 347.09908148 28.51171875 351.05249023 C25.99973845 354.9047679 23.49863428 358.76405651 21 362.625 C20.59475098 363.25083984 20.18950195 363.87667969 19.77197266 364.52148438 C16.01787346 369.27582212 16.01787346 369.27582212 14 374.625 C39.08 374.625 64.16 374.625 90 374.625 C86.06136242 367.40416443 82.16398334 360.62322268 77.5625 353.875 C76.33874398 352.06063712 75.11613167 350.24550243 73.89453125 348.4296875 C72.94634521 347.02154785 72.94634521 347.02154785 71.97900391 345.58496094 C68.52504433 340.41893504 65.13807219 335.20938202 61.75 330 C61.10619385 329.01032227 60.4623877 328.02064453 59.79907227 327.00097656 C58.65947048 325.24887522 57.52032292 323.49647827 56.38183594 321.74365234 C55.26467012 320.03079635 54.13434971 318.32652457 53 316.625 C52.34 316.625 51.68 316.625 51 316.625 Z M130 332.625 C130 346.485 130 360.345 130 374.625 C139.24 374.625 148.48 374.625 158 374.625 C155.69 370.995 153.38 367.365 151 363.625 C148.48046875 359.578125 148.48046875 359.578125 147.33569336 357.72851562 C143.45791378 351.46865967 139.50293426 345.2647858 135.4375 339.125 C134.79300903 338.14515137 134.79300903 338.14515137 134.13549805 337.14550781 C133.11784379 335.61995665 132.06284224 334.1194206 131 332.625 C130.67 332.625 130.34 332.625 130 332.625 Z " fill="#F6EB00" transform="translate(204,53.375)"/>
<path d="M0 0 C6.78960219 4.7972118 12.05927607 9.69678711 16.4921875 16.75 C20.49304528 22.56942949 24.4907299 23.57094302 31.203125 25.05859375 C42.862999 27.95425782 51.60992458 35.51742572 58.16796875 45.2734375 C62.70987411 52.95973887 64.88927632 60.49545812 65.1796875 69.375 C65.24027344 70.67308594 65.30085937 71.97117187 65.36328125 73.30859375 C64.69661104 77.20379262 63.81311215 78.51326078 60.72718811 80.907547 C56.69777194 82.99828151 52.31060288 82.64652819 47.8671875 82.6015625 C46.82449707 82.60634613 45.78180664 82.61112976 44.70751953 82.61605835 C42.50877367 82.61945224 40.30997699 82.61028578 38.11132812 82.58935547 C34.75275774 82.56258426 31.39752938 82.5891224 28.0390625 82.62109375 C25.89843015 82.61778956 23.75779987 82.61138315 21.6171875 82.6015625 C20.11696045 82.61674423 20.11696045 82.61674423 18.58642578 82.63223267 C14.04420594 82.55616934 10.74902363 82.45014994 7.11010742 79.55224609 C4.54788967 76.72294904 3.94334221 75.68807819 4.0546875 71.9375 C4.28648122 68.14399782 4.65814909 67.05188562 6.9921875 63.875 C11.27201097 60.85966983 14.86418404 60.79196238 20.0390625 60.62109375 C21.24433594 60.57919922 22.44960938 60.53730469 23.69140625 60.49414062 C24.94566406 60.45482422 26.19992187 60.41550781 27.4921875 60.375 C28.76191406 60.33181641 30.03164063 60.28863281 31.33984375 60.24414062 C34.47385115 60.13810278 37.60793683 60.03603942 40.7421875 59.9375 C35.91954039 52.42046092 30.67755099 46.9611886 21.7421875 44.9375 C19.86978185 44.76146186 17.99420757 44.61699583 16.1171875 44.5 C11.19086525 44.11268915 8.39683473 43.50715543 4.7421875 39.9375 C3.09327405 37.21764277 1.61740191 34.44208119 0.15625 31.6171875 C-4.93681973 21.96567967 -14.85391265 15.97451702 -25.04296875 12.59765625 C-38.27306537 9.88090494 -50.5303608 11.57899584 -62.0078125 18.75 C-63.44258489 19.78792046 -64.8605758 20.84957524 -66.2578125 21.9375 C-66.85078125 22.3809375 -67.44375 22.824375 -68.0546875 23.28125 C-73.29722926 27.80234106 -76.01560351 33.80167398 -78.88671875 39.98364258 C-80.70263109 43.72353742 -81.77425188 45.61841159 -85.32421875 47.9609375 C-90.3382979 49.6300717 -94.31120547 48.37824667 -99.0078125 46.375 C-105.89783128 43.6881587 -112.77546633 44.1057908 -119.6328125 46.6875 C-125.20144918 49.22109773 -128.68617638 51.83869589 -131.89453125 57.078125 C-132.33885498 57.80032227 -132.78317871 58.52251953 -133.2409668 59.26660156 C-133.57652588 59.81799805 -133.91208496 60.36939453 -134.2578125 60.9375 C-132.98447304 60.92750725 -132.98447304 60.92750725 -131.68540955 60.91731262 C-123.66732212 60.85708622 -115.64931118 60.81146711 -107.63104916 60.78206348 C-103.50922395 60.76643834 -99.38758638 60.74525811 -95.26586914 60.71118164 C-91.28473134 60.67847513 -87.30377351 60.66062329 -83.32251167 60.65286827 C-81.80712618 60.64734495 -80.29175001 60.6365593 -78.77644157 60.62030983 C-76.64623967 60.59838458 -74.51677202 60.59553924 -72.38647461 60.59692383 C-71.1762413 60.59026199 -69.966008 60.58360016 -68.71910095 60.57673645 C-64.56215315 61.01000726 -61.96187053 62.01456967 -58.2578125 63.9375 C-55.77966641 67.34495087 -55.2578125 69.28806907 -55.2578125 73.5 C-56.49591516 77.75597788 -57.76352397 79.21977947 -61.2578125 81.9375 C-64.20892295 82.65636891 -67.07343914 82.62159406 -70.09960938 82.58447266 C-70.97988297 82.59323425 -71.86015656 82.60199585 -72.7671051 82.61102295 C-75.67076211 82.63299173 -78.57289059 82.61847326 -81.4765625 82.6015625 C-83.49768363 82.60493136 -85.51880279 82.60978456 -87.53991699 82.61605835 C-91.7733898 82.62342627 -96.00633471 82.61272657 -100.23974609 82.58935547 C-105.66407032 82.56086797 -111.08715762 82.57727235 -116.51143646 82.60721779 C-120.68423773 82.6252928 -124.85674614 82.61953175 -129.02955627 82.60657883 C-131.02942552 82.60324539 -133.02932143 82.60732969 -135.02915955 82.61897659 C-137.82549373 82.63168853 -140.61983012 82.61230383 -143.41601562 82.58447266 C-144.24110123 82.59459381 -145.06618683 82.60471497 -145.91627502 82.61514282 C-150.16984796 82.53678289 -151.78964269 82.30590539 -155.2479248 79.58456421 C-159.02857919 74.60536316 -158.28763643 70.38511076 -157.7578125 64.41796875 C-155.95984331 51.90241757 -149.60285206 41.10941331 -140.03515625 32.98046875 C-130.21514712 25.75703025 -120.38282236 22.49351779 -108.30322266 23.22070312 C-100.14876795 23.96211992 -100.14876795 23.96211992 -92.80859375 21.22265625 C-91.33309728 18.85781943 -90.30224816 16.51834487 -89.2578125 13.9375 C-80.74902526 1.56108219 -65.85555472 -6.23513225 -51.55395508 -9.65893555 C-33.3883945 -12.85167044 -15.5664545 -9.78703914 0 0 Z " fill="#F6EB00" transform="translate(447.2578125,10.0625)"/>
<path d="M0 0 C1.36207752 -0.00677899 2.72414586 -0.01568371 4.0861969 -0.02655029 C7.77849674 -0.04931771 11.47009698 -0.04051853 15.16240883 -0.02465487 C19.02914926 -0.01198232 22.89583042 -0.02373972 26.76257324 -0.03158569 C33.25572447 -0.04067837 39.7485912 -0.0287046 46.24169922 -0.00488281 C53.74513978 0.02232803 61.24790103 0.01351357 68.75132513 -0.01401484 C75.19736969 -0.03671602 81.64320993 -0.03990115 88.08928156 -0.02682149 C91.93759958 -0.01903241 95.78559845 -0.01797009 99.63389587 -0.03450394 C103.2522805 -0.0489645 106.86979068 -0.03889975 110.48808098 -0.01003265 C112.4467995 -0.00028422 114.40559211 -0.01510867 116.36427307 -0.03067017 C125.9372133 0.0847663 125.9372133 0.0847663 129.03845215 3.03115845 C130.8862272 5.85195418 131.42921444 7.30224845 131.37695312 10.64697266 C131.38984375 11.47197266 131.40273438 12.29697266 131.41601562 13.14697266 C130.68889116 15.88438242 129.71364115 17.62131045 127.65339661 19.57868576 C123.17542161 22.09454387 117.48901533 21.33355143 112.50390625 21.29394531 C111.14182873 21.3007243 109.77976039 21.30962902 108.41770935 21.32049561 C104.72540951 21.34326303 101.03380927 21.33446384 97.34149742 21.31860018 C93.47475699 21.30592763 89.60807583 21.31768504 85.74133301 21.32553101 C79.24818178 21.33462368 72.75531505 21.32264991 66.26220703 21.29882812 C58.75876647 21.27161728 51.25600522 21.28043174 43.75258112 21.30796015 C37.30653656 21.33066133 30.86069632 21.33384647 24.41462469 21.32076681 C20.56630667 21.31297772 16.7183078 21.31191541 12.87001038 21.32844925 C9.25162575 21.34290981 5.63411557 21.33284506 2.01582527 21.30397797 C0.05710675 21.29422953 -1.90168586 21.30905399 -3.86036682 21.32461548 C-13.43330705 21.20917901 -13.43330705 21.20917901 -16.5345459 18.26278687 C-18.38232095 15.44199113 -18.92530819 13.99169687 -18.87304688 10.64697266 C-18.8859375 9.82197266 -18.89882812 8.99697266 -18.91210938 8.14697266 C-18.18498491 5.40956289 -17.2097349 3.67263486 -15.14949036 1.71525955 C-10.67151536 -0.80059856 -4.98510908 -0.03960611 0 0 Z " fill="#F6EB00" transform="translate(219.248046875,491.35302734375)"/>
<path d="M0 0 C1.15667679 -0.00860046 2.31335358 -0.01720093 3.50508118 -0.02606201 C5.41811539 -0.03245193 5.41811539 -0.03245193 7.36979675 -0.03897095 C8.72156994 -0.04687141 10.07334102 -0.05514032 11.42510986 -0.06375122 C15.87043746 -0.08997711 20.3157745 -0.10527906 24.76115417 -0.11953735 C26.29087009 -0.12489674 27.82058595 -0.13027424 29.35030174 -0.13566971 C35.7129335 -0.15729896 42.07556271 -0.17603613 48.43822193 -0.1872921 C57.55987949 -0.20353453 66.68111128 -0.23671837 75.80260831 -0.29369295 C82.21456341 -0.33237922 88.62640456 -0.35192318 95.03847331 -0.35721266 C98.8690309 -0.3608679 102.69913445 -0.37290642 106.52956581 -0.4053154 C110.1338448 -0.43537371 113.73739452 -0.44171654 117.34177208 -0.42993164 C119.29344376 -0.42960544 121.24507027 -0.45408607 123.19657898 -0.47930908 C132.73785443 -0.41118922 132.73785443 -0.41118922 135.83786011 2.53411865 C137.68733112 5.35723519 138.23142445 6.80660222 138.17912292 10.15390015 C138.19201355 10.97890015 138.20490417 11.80390015 138.21818542 12.65390015 C137.49063491 15.39291384 136.51103433 17.12726153 134.44996643 19.08561325 C129.99914506 21.59360198 124.35601585 20.84055595 119.39787292 20.8008728 C118.04564741 20.80765187 116.69343114 20.81655664 115.3412323 20.8274231 C111.67578941 20.85018958 108.01105129 20.84139174 104.34559631 20.82552767 C100.50688296 20.81285462 96.66822931 20.82461266 92.82951355 20.8324585 C86.38343997 20.84155103 79.93765297 20.82957779 73.49162292 20.80575562 C66.04271224 20.77854479 58.59448584 20.78735925 51.14559174 20.81488764 C44.74625549 20.83758924 38.34712505 20.84077376 31.94776154 20.8276943 C28.12738837 20.81990544 24.30733667 20.81884227 20.48698425 20.83537674 C16.89486211 20.84983792 13.30362076 20.83977148 9.71159363 20.81090546 C7.76718858 20.80115763 5.82270889 20.81598097 3.87834167 20.83154297 C-5.62460531 20.71611989 -5.62460531 20.71611989 -8.7056427 17.73846436 C-11.29940725 13.88625276 -11.89628172 11.83810848 -11.44587708 7.15390015 C-8.13247183 1.30021755 -6.56085068 0.03622138 0 0 Z " fill="#F6EB00" transform="translate(374.4458770751953,459.8460998535156)"/>
<path d="M0 0 C0.83150574 -0.0087616 1.66301147 -0.01752319 2.51971436 -0.02655029 C5.2610737 -0.04850973 8.00081252 -0.03400446 10.7421875 -0.01708984 C12.65120757 -0.02045899 14.56022555 -0.02531242 16.46923828 -0.03158569 C20.46733045 -0.03895232 24.46486352 -0.02825829 28.46289062 -0.00488281 C33.58456931 0.02360487 38.70493797 0.00719977 43.8265686 -0.02274513 C47.76775969 -0.04082379 51.70864082 -0.03505748 55.64984131 -0.02210617 C57.53806717 -0.01877373 59.4263213 -0.02285356 61.31451416 -0.03450394 C63.95522455 -0.04722218 66.5938218 -0.02782357 69.234375 0 C70.01270691 -0.01012115 70.79103882 -0.02024231 71.59295654 -0.03067017 C75.61340944 0.04770342 77.41910562 0.48862349 80.59960938 3.03115845 C82.79223621 5.8739254 83.29747598 7.10851002 83.2421875 10.64697266 C83.26152344 11.88447266 83.26152344 11.88447266 83.28125 13.14697266 C82.29807782 16.84832675 80.59369013 18.26751878 77.6171875 20.64697266 C74.63069772 21.1417325 72.21577075 21.33271434 69.234375 21.29394531 C68.40286926 21.30270691 67.57136353 21.31146851 66.71466064 21.32049561 C63.9733013 21.34245504 61.23356248 21.32794977 58.4921875 21.31103516 C56.58316743 21.3144043 54.67414945 21.31925774 52.76513672 21.32553101 C48.76704455 21.33289764 44.76951148 21.3222036 40.77148438 21.29882812 C35.64980569 21.27034044 30.52943703 21.28674554 25.4078064 21.31669044 C21.46661531 21.3347691 17.52573418 21.32900279 13.58453369 21.31605148 C11.69630783 21.31271904 9.8080537 21.31679887 7.91986084 21.32844925 C5.27915045 21.34116749 2.6405532 21.32176889 0 21.29394531 C-0.77833191 21.30406647 -1.55666382 21.31418762 -2.35858154 21.32461548 C-6.37903444 21.24624189 -8.18473062 20.80532182 -11.36523438 18.26278687 C-13.55786121 15.42001991 -14.06310098 14.18543529 -14.0078125 10.64697266 C-14.02070312 9.82197266 -14.03359375 8.99697266 -14.046875 8.14697266 C-12.12734269 0.92049809 -6.61263318 -0.08598836 0 0 Z " fill="#F6EB00" transform="translate(67.3828125,459.35302734375)"/>
<path d="M0 0 C0.67546875 0.40089844 1.3509375 0.80179688 2.046875 1.21484375 C3.98641031 2.23790143 3.98641031 2.23790143 5.96484375 1.35546875 C6.94130859 0.77732422 6.94130859 0.77732422 7.9375 0.1875 C13.76878962 -2.99612687 19.38950715 -3.68384409 26 -3 C29.63467079 -1.37599816 30.77408696 -0.33886956 33 3 C33.68513589 7.25421587 33.4696248 10.91986297 31.75 14.875 C28.0915684 17.70196988 24.56994174 18.11405032 20.09375 19.04296875 C16.73017086 20.08346987 14.9385012 21.38050247 12.3125 23.6875 C8.61931251 26.80840979 6.1142082 28.0781768 1.23828125 27.69921875 C-2.35730742 26.57598948 -4.73690249 24.19317457 -7.53125 21.73828125 C-10.43931667 19.69067102 -12.84425306 19.09474542 -16.3125 18.375 C-19.96938905 17.59237916 -21.75153222 17.19199783 -24.75 14.875 C-26.50820936 10.83111847 -26.79375723 7.33815832 -26 3 C-20.21496025 -6.5752382 -8.90500384 -3.35283391 0 0 Z " fill="#F6EB00" transform="translate(464,193)"/>
<path d="M0 0 C1.88633097 0.71082778 3.76162096 1.45208479 5.62109375 2.23046875 C9.70955902 3.77745561 12.08006607 2.71857336 15.93359375 1.10546875 C21.65622054 -1.01964465 26.86544773 -1.90588892 32.93359375 -0.89453125 C35.93556839 0.90665353 37.38525741 2.00879607 38.93359375 5.10546875 C39.56043268 9.66348329 39.61091184 13.03110212 37.12109375 16.98046875 C33.38191924 19.47325176 30.06376436 20.20569576 25.73046875 21.21875 C21.38429886 22.59665582 18.37894372 25.22139133 14.93359375 28.10546875 C11.82405996 29.66023565 9.37092614 29.39191312 5.93359375 29.10546875 C2.87109375 27.35546875 2.87109375 27.35546875 -0.06640625 25.10546875 C-3.61193207 22.42662702 -6.29960979 20.93491365 -10.62890625 20.16796875 C-13.87952538 19.52004129 -15.27344082 18.9660373 -18.12890625 17.04296875 C-20.77830278 13.02614175 -21.0086718 9.79132985 -20.06640625 5.10546875 C-15.36200861 -2.42156748 -8.07386112 -2.35530471 0 0 Z " fill="#F6EB00" transform="translate(20.06640625,104.89453125)"/>
<path d="M0 0 C5.05987585 1.48158456 8.45578162 0.51467085 13.30078125 -1.125 C23.98906705 -4.48827918 23.98906705 -4.48827918 29.73828125 -1.875 C32.1097016 -0.03056195 33.58349365 1.21329718 34.98828125 3.875 C35.52948935 8.83607425 35.13362362 11.94332204 31.98828125 15.875 C29.24732956 17.49518119 26.8649118 18.15263136 23.73828125 18.625 C18.13784059 19.76548709 13.98967748 22.87360377 9.98828125 26.875 C5.78458347 27.51119181 1.65303651 27.90950375 -2.0546875 25.60546875 C-3.22794793 24.54098743 -4.37849193 23.45088285 -5.50390625 22.3359375 C-7.98052635 19.93631077 -10.64321655 19.16628762 -13.95703125 18.4609375 C-18.446645 17.48349392 -21.0580801 16.65565748 -24.01171875 12.875 C-25.58627614 9.72588521 -25.35970993 7.35491184 -25.01171875 3.875 C-18.98087061 -6.60330758 -9.50173357 -3.21562781 0 0 Z " fill="#F6EB00" transform="translate(379.01171875,111.125)"/>
<path d="M0 0 C2.72207102 0.91971882 5.24668906 2.03745508 7.85546875 3.234375 C10.14679026 4.25713126 10.14679026 4.25713126 13.25 3.375 C14.61125 2.694375 14.61125 2.694375 16 2 C20.29448032 0.34780955 23.96366604 -0.32070444 28.5625 -0.375 C30.20412109 -0.41753906 30.20412109 -0.41753906 31.87890625 -0.4609375 C35.72131907 0.10652772 37.32871297 1.21278008 40 4 C41.53924476 8.1367203 41.46620375 11.9044212 39.75 15.9375 C36.63576364 19.60784999 33.8049532 20.348258 29.25 21.25 C24.12885169 22.45278786 21.00921855 23.99078145 17.3046875 27.6953125 C15.3193432 29.6806568 14.05925548 29.99326642 11.25 30.3125 C6.32837072 29.83926642 3.35921293 27.31923608 -0.125 23.9375 C-3.95310196 21.35769216 -7.76712936 20.71008999 -12.2578125 19.80859375 C-15.13866289 18.95911223 -16.28517367 18.43121759 -18 16 C-19.24911997 11.77829074 -19.47871532 8.124981 -17.75 4.0625 C-12.97127058 -1.56957396 -6.83575563 -0.68513268 0 0 Z " fill="#F6EB00" transform="translate(53,0)"/>
<path d="M0 0 C2.76682771 0.91619229 5.24441789 1.95631174 7.81640625 3.3203125 C10.85635153 4.26655665 12.16744915 3.35451304 15 2 C21.64199923 -0.53932215 27.95946448 -0.78983088 35 0 C38.375 1.875 38.375 1.875 40 5 C40.93243636 9.90332914 40.8281867 13.60982947 38.25 17.9375 C34.24864531 20.47682124 30.52869462 21.1406306 25.9296875 22.11328125 C22.21838295 23.23656943 20.36318156 25.03625413 17.6484375 27.69140625 C14.55296142 30.14871546 11.89592425 30.06283749 8 30 C5.06384832 28.70263065 3.23408812 27.22699454 0.9375 25 C-2.19046522 22.87032155 -4.33666861 22.35614707 -8 21.5625 C-11.70299894 20.69603473 -14.00333909 19.99788096 -17.25 17.9375 C-19.8281867 13.60982947 -19.93243636 9.90332914 -19 5 C-15.26040828 -2.19152254 -7.06226791 -0.88470676 0 0 Z " fill="#F6EB00" transform="translate(98,64)"/>
<path d="M0 0 C2.99581236 1.59776659 4.59879655 2.77306388 5.671875 6.0546875 C6.4046277 10.40723852 6.26148569 12.49506212 4.1875 16.5 C2.01300647 18.98513546 1.21988159 19.85380594 -1.98828125 20.23828125 C-5.8731373 20.36233548 -8.44732229 20.26482474 -12 18.5625 C-14.85830967 14.90029074 -15.27074842 11.58631415 -15 7 C-13.65934707 3.37235089 -12.40229545 2.26819697 -9.1875 0.125 C-5.46873696 -1.1875046 -3.73963241 -1.19349971 0 0 Z " fill="#F6EB00" transform="translate(426,72)"/>
<path d="M0 0 C3.125 1.875 3.125 1.875 5 5 C5.98876625 10.02622846 5.7769173 13.70513784 3.125 18.125 C-1.29486216 20.7769173 -4.97377154 20.98876625 -10 20 C-13.125 18.125 -13.125 18.125 -15 15 C-15.98876625 9.97377154 -15.7769173 6.29486216 -13.125 1.875 C-8.70513784 -0.7769173 -5.02622846 -0.98876625 0 0 Z " fill="#F6EB00" transform="translate(177,492)"/>
</svg>
