<?xml version="1.0" encoding="UTF-8"?>
<svg version="1.1" xmlns="http://www.w3.org/2000/svg" width="512" height="512">
<path d="M0 0 C1.4813393 2.55119545 1.58422573 4.99325632 1.71875 7.90234375 C0.77308829 11.1437237 -1.08758417 12.09002672 -3.875 13.9375 C-6.78455723 15.42469606 -9.763287 16.7387888 -12.75 18.0625 C-30.32068538 26.13259974 -44.76031767 37.81747649 -58.875 50.9375 C-59.54015625 51.54851562 -60.2053125 52.15953125 -60.890625 52.7890625 C-88.31249585 78.98475213 -108.39183982 118.59763232 -113.875 155.9375 C-114.05546875 157.09894531 -114.2359375 158.26039063 -114.421875 159.45703125 C-118.58982779 194.16651697 -111.17981878 228.87073396 -89.875 256.875 C-70.8222569 281.03311703 -44.74897424 292.95290797 -14.96875 297.5390625 C-7.29490926 298.32329301 0.48223347 298.04103076 8.1875 298 C9.83268093 297.9949758 11.47786335 297.99041452 13.12304688 297.98632812 C17.12373498 297.97539342 21.12435088 297.9581793 25.125 297.9375 C25.25455078 295.97296875 25.25455078 295.97296875 25.38671875 293.96875 C28.45044333 252.40614669 42.84882149 212.85849066 67.125 178.9375 C67.59164062 178.28152832 68.05828125 177.62555664 68.5390625 176.94970703 C74.6956472 168.3547691 81.22082265 160.34550677 88.53125 152.70703125 C91.11958422 150.01725407 91.11958422 150.01725407 93.25 147.26953125 C94.9351498 145.17362619 96.57167921 143.53260645 98.625 141.8125 C101.61716605 139.27386004 104.4804345 136.64502694 107.31030273 133.92675781 C122.63465122 119.37198899 141.12612972 111.27096642 162.3671875 111.62109375 C177.88153717 112.92739554 190.39874005 118.51865041 201.125 129.9375 C212.55137414 144.48214036 214.78476635 162.14394024 212.69921875 180.08984375 C208.53545872 209.57996069 192.40992873 233.93132936 172.125 254.9375 C171.32707031 255.78699219 170.52914063 256.63648438 169.70703125 257.51171875 C143.49851183 284.7463466 91.97269962 317.81113785 53.265625 319.02734375 C52.20601563 318.98287109 52.20601563 318.98287109 51.125 318.9375 C59.14922252 358.07239531 76.90578002 393.41231659 110.69287109 416.48852539 C129.10945159 428.60580422 149.31057175 436.59582901 171.125 439.9375 C172.3315625 440.13279297 172.3315625 440.13279297 173.5625 440.33203125 C210.36567031 445.12411072 248.6189385 434.30596873 278.375 412.5 C288.94447412 404.31356381 299.00127802 395.11043701 307.625 384.875 C310.125 381.9375 310.125 381.9375 312.125 380.9375 C315.93383851 380.76539138 319.60483274 380.95366141 322.86328125 383.0625 C324.25 384.5 324.25 384.5 326.125 387.9375 C326.00820276 394.27699443 324.47799591 397.66361989 320.125 402.3125 C319.6302417 402.86703857 319.1354834 403.42157715 318.62573242 403.99291992 C317.61763795 405.11919473 316.60229203 406.23902354 315.57958984 407.35205078 C314.26032027 408.7900059 312.96649932 410.25120651 311.67578125 411.71484375 C282.60332518 444.64333239 243.33160957 466.8689284 199.125 469.9375 C171.98825533 471.28730699 146.4788922 464.61185687 122.125 452.9375 C121.08158447 452.43863281 121.08158447 452.43863281 120.01708984 451.9296875 C81.58936377 433.22432888 48.87440123 399.24763801 34.125 358.9375 C30.3395061 347.7372715 27.75153466 336.6487796 26.125 324.9375 C25.11937012 324.95321045 24.11374023 324.9689209 23.07763672 324.98510742 C-1.10048013 325.32917587 -24.59979106 325.43247418 -47.875 317.9375 C-48.51066895 317.73286133 -49.14633789 317.52822266 -49.80126953 317.31738281 C-64.65411831 312.42614194 -78.07575585 305.26183863 -89.875 294.9375 C-90.6071875 294.34839844 -91.339375 293.75929688 -92.09375 293.15234375 C-118.98917695 270.84997386 -132.6826813 233.67318059 -136.875 199.9375 C-136.99901069 197.13930578 -137.08461226 194.36500996 -137.11328125 191.56640625 C-137.12316574 190.77569733 -137.13305023 189.9849884 -137.14323425 189.1703186 C-137.71664617 131.3119597 -118.09618791 80.30845361 -77.75 38.5625 C-73.05872426 34.02760012 -68.02365713 29.93904699 -62.875 25.9375 C-61.85921875 25.1434375 -60.8434375 24.349375 -59.796875 23.53125 C-46.82236245 13.68088412 -32.24587477 6.19129961 -16.9375 0.6875 C-16.11556152 0.38755127 -15.29362305 0.08760254 -14.44677734 -0.22143555 C-9.27370146 -1.97034595 -5.02253463 -2.84610296 0 0 Z M104.00390625 172.59375 C101.28031299 175.97074126 98.69482181 179.44298507 96.125 182.9375 C95.28943092 184.04324725 94.45349423 185.1487168 93.6171875 186.25390625 C87.14372335 194.93454958 81.69293069 204.14024432 76.43017578 213.59423828 C75.59647864 215.09102564 74.75688254 216.58455258 73.90966797 218.07373047 C61.71895963 239.52385219 49.00214939 267.67336124 50.125 292.9375 C83.00467018 286.04655116 114.06371297 268.73908385 140.125 247.9375 C140.7226416 247.46231934 141.3202832 246.98713867 141.93603516 246.49755859 C159.68045697 232.23646414 183.22215261 210.71041969 187.875 187.30078125 C189.56557214 171.31959151 187.11105387 155.63249286 178.125 141.9375 C173.50356578 136.76222002 168.9697594 133.39887113 162 132.5625 C138.75811078 134.81171509 118.15960489 155.61991129 104.00390625 172.59375 Z " fill="#F6EB00" transform="translate(136.875,22.0625)"/>
<path d="M0 0 C1.83111328 -0.02078613 1.83111328 -0.02078613 3.69921875 -0.04199219 C5.39884766 -0.03280762 5.39884766 -0.03280762 7.1328125 -0.0234375 C8.1242627 -0.02005371 9.11571289 -0.01666992 10.13720703 -0.01318359 C14.07705425 0.54543573 16.50834959 2.37583335 19.65820312 4.67871094 C22.67738154 8.8876298 21.40552336 15.60747233 21.375 20.625 C21.37385193 21.69796326 21.37385193 21.69796326 21.37268066 22.79260254 C21.32490552 35.34084702 20.21781354 47.68540105 18.625 60.125 C18.52276123 60.94407837 18.42052246 61.76315674 18.31518555 62.60705566 C14.88549429 89.53974168 14.88549429 89.53974168 7.875 97.375 C3.52080981 100.27779346 0.06998122 101.03617943 -5.125 100.375 C-8.37765383 98.4956889 -9.79083557 97.05924145 -11.4375 93.6875 C-12.98658525 86.22372559 -11.9332508 79.85010841 -9.875 72.625 C-5.64146383 56.59164003 -4.67195293 39.83778067 -3.125 23.375 C-31.21588494 22.80784054 -31.21588494 22.80784054 -59.1796875 24.9375 C-71.39638717 26.29222313 -71.39638717 26.29222313 -76.1875 23.75 C-78.57951022 20.81785843 -79.125 19.15482428 -79.125 15.375 C-78.1875 12.6875 -78.1875 12.6875 -76.125 10.375 C-53.02934666 0.52389348 -24.82600946 0.1694394 0 0 Z " fill="#F6EB00" transform="translate(491.125,369.625)"/>
</svg>
