<?xml version="1.0" encoding="UTF-8"?>
<svg version="1.1" xmlns="http://www.w3.org/2000/svg" width="512" height="512">
<path d="M0 0 C39.69091147 8.13438865 73.85762877 38.55967844 96.05859375 71.12109375 C123.60873472 113.31500334 137.71882184 165.11743738 127.7890625 215.296875 C122.17986838 241.30524359 112.12699837 264.44772454 94.79296875 284.77734375 C94.11878906 285.5971875 93.44460938 286.41703125 92.75 287.26171875 C74.59131332 308.56261897 47.77450217 319.70632289 20.79296875 324.77734375 C19.60574219 325.00292969 18.41851562 325.22851562 17.1953125 325.4609375 C0.85872368 327.99441919 -16.83539717 327.98495352 -33.20703125 325.77734375 C-33.28179687 326.54433594 -33.3565625 327.31132812 -33.43359375 328.1015625 C-37.55043742 362.85256641 -54.29144046 392.78454932 -78.20703125 417.77734375 C-79.09390625 418.71707031 -79.98078125 419.65679687 -80.89453125 420.625 C-111.30119495 452.04816554 -155.12823426 471.24474665 -198.76953125 472.02734375 C-243.86606895 471.25892564 -283.58124761 450.02794112 -314.71191406 418.24072266 C-317.97269098 414.83389236 -321.10622623 411.33004903 -324.20703125 407.77734375 C-325.40779297 406.42576172 -325.40779297 406.42576172 -326.6328125 405.046875 C-333.56748742 396.90509859 -333.56748742 396.90509859 -333.20703125 390.77734375 C-331.5010004 386.60704611 -329.31003944 384.59030086 -325.20703125 382.77734375 C-322.11247539 382.17188717 -320.2269576 382.1342955 -317.515625 383.84375 C-313.62399797 387.03888897 -310.4010283 390.77032059 -307.1328125 394.58203125 C-283.39810622 421.63863354 -247.09296753 440.18662152 -211.01171875 442.68359375 C-210.08617187 442.71453125 -209.160625 442.74546875 -208.20703125 442.77734375 C-207.54219727 442.803125 -206.87736328 442.82890625 -206.19238281 442.85546875 C-168.34655287 444.14658448 -131.45171923 432.56229035 -103.26953125 406.71484375 C-78.86084184 383.59451378 -63.55809982 353.95396889 -58.20703125 320.77734375 C-59.34269531 320.66261719 -60.47835938 320.54789062 -61.6484375 320.4296875 C-93.5661566 316.3918616 -126.48253512 298.27224754 -152.20703125 279.77734375 C-152.80692871 279.34711914 -153.40682617 278.91689453 -154.02490234 278.47363281 C-162.12566538 272.5992612 -169.53727439 266.07649523 -176.75830078 259.16308594 C-178.05403555 257.92368746 -179.36215945 256.69727143 -180.671875 255.47265625 C-202.37971901 234.64228221 -218.61733897 204.67982843 -220.41015625 174.33984375 C-220.6418307 156.73258551 -217.1924518 141.06305362 -204.68359375 128.03125 C-192.86635603 117.27644532 -178.69024806 113.41381854 -162.99609375 113.5625 C-141.70829553 114.76954011 -125.61906073 125.08077297 -110.70117188 139.36865234 C-108.63275505 141.31877736 -106.48473262 143.17118798 -104.33203125 145.02734375 C-101.01584336 147.96573808 -98.05325017 151.02736623 -95.19921875 154.4140625 C-93.66508345 156.23396811 -92.10994241 158.01989314 -90.52734375 159.796875 C-55.97269235 198.86238344 -35.3125897 247.75378503 -32.20703125 299.77734375 C8.24420435 300.44243574 44.27417254 297.15773362 74.98046875 268.02734375 C99.99888274 242.03576617 108.71283669 208.20934009 108.07421875 172.97265625 C107.03734123 139.66296589 93.37227254 105.50404387 73.79296875 78.77734375 C73.03628906 77.73707031 72.27960938 76.69679688 71.5 75.625 C65.47079467 67.4946712 58.77761939 60.09174184 51.79296875 52.77734375 C51.19097656 52.1225 50.58898437 51.46765625 49.96875 50.79296875 C36.67738376 36.73157373 19.32318484 25.9213103 1.76147461 18.17553711 C0.46995483 17.59557983 0.46995483 17.59557983 -0.84765625 17.00390625 C-2.00056152 16.50238037 -2.00056152 16.50238037 -3.17675781 15.99072266 C-5.57414365 14.55794156 -6.74846941 13.14623375 -8.20703125 10.77734375 C-8.90186781 6.69517897 -8.54371636 5.25686496 -6.14453125 1.83984375 C-3.20703125 -0.22265625 -3.20703125 -0.22265625 0 0 Z M-183.39453125 141.90234375 C-193.10096967 154.39708155 -196.89585798 171.19877878 -195.20703125 186.77734375 C-191.69181072 203.05005002 -181.4415799 215.3047983 -170.484375 227.2734375 C-168.97497223 228.93300384 -167.48746056 230.61276661 -166.0234375 232.3125 C-161.39656005 237.64866704 -156.54382507 242.20327892 -150.99609375 246.57421875 C-149.21059465 247.984613 -147.45189554 249.4300478 -145.73046875 250.91796875 C-124.88775927 268.85689518 -85.81235127 294.77734375 -57.20703125 294.77734375 C-57.34918564 253.76580105 -82.08892064 210.85995554 -107.20703125 179.77734375 C-107.87476563 178.9059375 -108.5425 178.03453125 -109.23046875 177.13671875 C-122.93132468 159.60382266 -142.26522425 139.08209782 -165.20703125 134.77734375 C-172.72027046 134.0549169 -178.31440379 136.39235935 -183.39453125 141.90234375 Z " fill="#F6EB00" transform="translate(374.20703125,20.22265625)"/>
<path d="M0 0 C31.57537217 -0.24667635 31.57537217 -0.24667635 44.75 1.1875 C46.01440918 1.31769531 47.27881836 1.44789063 48.58154297 1.58203125 C57.16643644 2.52909233 65.64900285 3.84341872 74.125 5.5 C75.6713916 5.80200317 75.6713916 5.80200317 77.24902344 6.11010742 C88.29417231 8.44125847 88.29417231 8.44125847 92 14 C91.92683968 18.02381752 91.58715527 20.26132079 89.0625 23.4375 C83.26802779 26.39386337 76.33277032 25.14361488 70.03808594 24.28857422 C52.20113645 21.90897215 33.95336621 22.83013555 16 23 C18.29427228 48.7930506 18.29427228 48.7930506 23.42456055 74.12353516 C25.22817701 80.94317245 26.20471877 87.68702339 23.75 94.4375 C21.94031667 97.08739344 20.86739651 98.56630175 18 100 C13.78193787 100.54678583 11.58973244 100.31221129 7.8125 98.3125 C4.50225284 95.59074123 1.92397749 92.84795498 0 89 C-0.0932753 86.19269875 -0.12575925 83.41038902 -0.11352539 80.60302734 C-0.11367142 79.73466751 -0.11381744 78.86630768 -0.1139679 77.97163391 C-0.11326961 75.09304328 -0.1054811 72.21451686 -0.09765625 69.3359375 C-0.09579177 67.34339432 -0.09436801 65.35085069 -0.09336853 63.35830688 C-0.08954569 58.10740906 -0.07971737 52.85653878 -0.06866455 47.60565186 C-0.05844543 42.25012586 -0.05386983 36.89459543 -0.04882812 31.5390625 C-0.03809491 21.02602955 -0.02102127 10.51301706 0 0 Z " fill="#F6EB00" transform="translate(0,370)"/>
</svg>
