<?xml version="1.0" encoding="UTF-8"?>
<svg version="1.1" xmlns="http://www.w3.org/2000/svg" width="512" height="512">
<path d="M0 0 C3.42771431 1.47169299 6.23039429 3.49470391 9.1875 5.75 C10.00065674 6.33765137 10.81381348 6.92530273 11.65161133 7.53076172 C14.12239235 9.32694895 16.56353328 11.15762241 19 13 C20.40588274 14.04997109 21.81211317 15.09947686 23.21875 16.1484375 C25.20242543 17.63298992 27.18272497 19.12137178 29.15551758 20.62036133 C34.27789831 24.50606303 39.52917889 28.16497621 44.84692383 31.77685547 C50.87354576 35.88105943 56.78714022 40.13262377 62.67749023 44.4296875 C66.7061687 47.3651012 70.77510599 50.19286465 74.9375 52.9375 C78.60753385 55.50841872 80.70569247 57.56237417 82 62 C82.52614301 66.2091441 82.28070038 68.41614322 80.4375 72.25 C77.41725167 75.65745966 75.41210278 76.84272714 71 78 C63.88620769 77.53566879 58.9913714 74.38803833 53.5 70.125 C51.93306588 68.95078905 50.36533669 67.77763845 48.796875 66.60546875 C48.00603516 66.00782715 47.21519531 65.41018555 46.40039062 64.79443359 C42.57108716 61.93180336 38.66284158 59.18424584 34.75 56.4375 C33.71456055 55.70587646 33.71456055 55.70587646 32.65820312 54.95947266 C28.81030792 52.24570389 24.92996138 49.59353041 21 47 C37.21031564 93.1748385 68.16896522 130.67825831 112.33007812 152.72558594 C127.28290408 159.86290776 142.71993557 164.95025729 159 168 C159.95060303 168.18401367 160.90120605 168.36802734 161.88061523 168.55761719 C171.20138119 170.19255808 180.37880372 170.39884954 189.8125 170.375 C190.62403534 170.37445618 191.43557068 170.37391235 192.271698 170.37335205 C220.19540429 170.28765129 245.91564152 164.26424431 271 152 C271.99555908 151.51660156 271.99555908 151.51660156 273.01123047 151.0234375 C304.94075445 135.31803805 330.92127517 109.00037588 348 78 C348.51771973 77.06534912 348.51771973 77.06534912 349.04589844 76.11181641 C355.76919978 63.79838986 360.48886891 50.77620408 364.37109375 37.3125 C364.58483643 36.58289063 364.7985791 35.85328125 365.01879883 35.1015625 C365.58591338 33.13550447 366.12600957 31.16170924 366.6640625 29.1875 C368.20905141 25.50121067 369.63493282 24.10000433 373 22 C377.0973871 20.55525657 380.26688599 20.7233532 384.3125 22.25 C387.94567606 24.61578907 389.6188307 25.85649209 391 30 C391.39002409 36.3796798 390.31789088 41.65330292 388.5 47.75 C388.23155273 48.66249512 387.96310547 49.57499023 387.68652344 50.51513672 C371.65725852 103.48100699 335.60144643 146.46926572 287.39331055 173.23925781 C261.63969758 186.97667973 231.57829482 195.94160575 202.25 196.23828125 C201.44238724 196.2480751 200.63477448 196.25786896 199.8026886 196.26795959 C139.03747101 196.85283896 86.69987327 176.69296374 43 134 C40.51500015 131.44059896 38.24621812 128.77002108 36 126 C35.08872591 124.91260599 34.17724817 123.82538263 33.265625 122.73828125 C18.6404133 105.09887497 6.41740902 84.74472012 -1 63 C-2.69326692 67.68097912 -3.73775335 72.36473311 -4.62109375 77.25 C-4.91965224 78.84380053 -5.21848884 80.43754899 -5.51757812 82.03125 C-5.97959017 84.51889378 -6.4387739 87.00698355 -6.89282227 89.49609375 C-7.33597119 91.91561521 -7.79031882 94.33282976 -8.24609375 96.75 C-8.37745224 97.48766602 -8.50881073 98.22533203 -8.64414978 98.98535156 C-9.63278528 104.17750633 -10.97857078 108.90637687 -14.75 112.8125 C-17.93147384 114.49161119 -20.4013018 114.87801023 -24 115 C-27.96550037 113.67816654 -31.43815291 112.41579611 -34 109 C-36.28018212 102.15945364 -34.85419499 94.91819488 -33.48706055 87.99536133 C-33.32606873 87.14537064 -33.1650769 86.29537994 -32.99920654 85.41963196 C-32.47009725 82.63875021 -31.92888844 79.86039383 -31.38671875 77.08203125 C-31.01228649 75.13637776 -30.63833696 73.19063131 -30.2648468 71.24479675 C-29.48257399 67.17977663 -28.69424066 63.11599151 -27.90161133 59.05297852 C-26.88781911 53.85349804 -25.88961928 48.65116675 -24.89596844 43.44780445 C-24.12767545 39.4342219 -23.35096027 35.42230462 -22.57172585 31.41083336 C-22.20031522 29.49324994 -21.83155159 27.57515181 -21.46552086 25.65653419 C-20.95262375 22.97475752 -20.42836437 20.29544335 -19.90112305 17.61645508 C-19.75294632 16.82930115 -19.60476959 16.04214722 -19.45210266 15.23114014 C-18.39442585 9.94373321 -17.08759359 5.06161829 -13.13598633 1.15917969 C-8.95172597 -1.11157905 -4.59835806 -0.73274395 0 0 Z " fill="#F6EB00" transform="translate(78,158)"/>
</svg>
