<?xml version="1.0" encoding="UTF-8"?>
<svg version="1.1" xmlns="http://www.w3.org/2000/svg" width="512" height="512">
<path d="M0 0 C3.63393217 2.85093021 4.69955537 5.36389382 5.6875 9.8125 C5.91824219 10.80894531 6.14898437 11.80539062 6.38671875 12.83203125 C10.87868296 36.03574444 7.22454496 59.67247515 -6.08203125 79.44140625 C-9.43102776 83.90900852 -13.14697469 87.96647261 -17 92 C-17.54011719 92.61488281 -18.08023438 93.22976562 -18.63671875 93.86328125 C-27.32944411 103.38805589 -42.37950676 112.50084874 -55.296875 114.32421875 C-57.26087375 114.8883813 -57.26087375 114.8883813 -58.1953125 117.30078125 C-58.65550781 118.79158203 -58.65550781 118.79158203 -59.125 120.3125 C-59.43695313 121.27800781 -59.74890625 122.24351563 -60.0703125 123.23828125 C-62.43403264 132.80240939 -63.41866281 142.44233443 -64.125 152.25 C-64.25455078 153.95736328 -64.25455078 153.95736328 -64.38671875 155.69921875 C-64.59595777 158.46582357 -64.80031721 161.23269192 -65 164 C-63.71609375 163.97679687 -62.4321875 163.95359375 -61.109375 163.9296875 C-23.30925069 163.97394994 13.14634337 181.78476952 42 205 C41.97905273 204.03288086 41.95810547 203.06576172 41.93652344 202.06933594 C41.86321151 198.42398339 41.81787535 194.77869353 41.78027344 191.1328125 C41.76036268 189.56564314 41.73322365 187.99854603 41.69824219 186.43164062 C41.36591444 171.14456432 43.84865346 158.98738208 54.4375 147.3125 C55.283125 146.549375 56.12875 145.78625 57 145 C57.48855469 144.51917969 57.97710937 144.03835937 58.48046875 143.54296875 C67.24401918 135.32063521 78.42300582 132.08217479 90.26171875 131.96875 C103.85658155 132.6122938 116.27652829 137.73963822 125.75 147.625 C134.45751873 157.87367249 138.36407054 169.20449435 138.21791077 182.50733948 C138.21735308 183.31384459 138.21679539 184.1203497 138.2162208 184.95129436 C138.21218357 187.62723188 138.1940248 190.3028827 138.17602539 192.97875977 C138.17058443 194.90796663 138.16615564 196.83717657 138.16265869 198.76638794 C138.15385151 202.90783943 138.13959374 207.04922384 138.12156868 211.19064522 C138.09479159 217.74234638 138.0907085 224.293939 138.09165955 230.84568787 C138.09173523 233.09217548 138.09180096 235.3386631 138.09185696 237.58515072 C138.09193148 239.27205967 138.09193148 239.27205967 138.09200752 240.9930476 C138.09107266 256.23663579 138.07216259 271.47994571 138.00366211 286.72338867 C137.95756857 297.02033784 137.94335309 307.31679754 137.96551126 317.61383289 C137.97589333 323.05819882 137.9697674 328.50144023 137.92436409 333.9456501 C137.88184088 339.06387416 137.88111391 344.18040468 137.91221619 349.29869461 C137.91615935 351.17400442 137.90475938 353.04942041 137.87669182 354.92452431 C137.4406661 364.86902416 137.4406661 364.86902416 140.98202324 373.82259941 C143.22460123 375.81899699 145.47821901 377.38500914 148 379 C161.99962667 394.14794174 166.82293856 414.73228045 166.13623047 434.77050781 C164.87438558 455.42134571 154.75326352 473.92105462 140 488 C136.82278774 490.65757474 133.56499356 492.89562596 130 495 C129.09894531 495.53238281 128.19789063 496.06476563 127.26953125 496.61328125 C110.26911011 505.85912432 89.86534898 507.95226022 71.0625 503.5 C58.68151147 499.58440897 47.69668909 493.64695578 38 485 C36.62596622 483.83219552 35.25106275 482.66541298 33.875 481.5 C32.92625 480.675 31.9775 479.85 31 479 C30.17435547 479.67482422 30.17435547 479.67482422 29.33203125 480.36328125 C0.94029823 502.32835842 -36.13338444 512.46431259 -71.625 512.3125 C-72.31832428 512.31034485 -73.01164856 512.3081897 -73.72598267 512.30596924 C-111.56518129 512.11845062 -147.95841371 500.24467739 -178 477 C-178.928125 476.29488281 -179.85625 475.58976562 -180.8125 474.86328125 C-212.79791717 449.71195757 -234.07417314 413.44272488 -243 374 C-243.24991699 372.94329102 -243.24991699 372.94329102 -243.50488281 371.86523438 C-248.52133616 349.86761907 -248.38129949 322.90232408 -243 301 C-242.80132324 300.17467773 -242.60264648 299.34935547 -242.39794922 298.49902344 C-239.520609 286.88189701 -235.58781835 275.93471525 -230.734375 265.00390625 C-229.28089735 261.72583379 -228.06476956 258.42790608 -227 255 C-228.06927734 254.27296875 -228.06927734 254.27296875 -229.16015625 253.53125 C-241.31235343 245.02634753 -249.03315913 235.65214301 -252.375 220.8125 C-254.39479168 208.0548362 -252.54782049 194.61112087 -245.46484375 183.6171875 C-236.40538218 171.44160134 -225.03788172 164.41579918 -210 162 C-197.46769935 160.89376306 -184.58601861 163.0249584 -174.53515625 170.94140625 C-168.94290061 175.77681526 -164.29137728 180.98922984 -160 187 C-159.02804688 186.443125 -158.05609375 185.88625 -157.0546875 185.3125 C-134.02829177 172.44530919 -106.69970091 163.06316839 -80 164 C-84.15934556 154.50690543 -89.73929576 144.4075898 -99 139 C-102.48261257 138.38428331 -102.48261257 138.38428331 -106.375 138.125 C-124.76806782 136.23212118 -138.93189936 127.8350811 -151 114 C-159.62271724 103.06704531 -164.05105334 89.29417285 -164.3125 75.4375 C-164.36857422 73.48650391 -164.36857422 73.48650391 -164.42578125 71.49609375 C-164 68 -164 68 -162.51171875 65.5625 C-158.92706618 63.33254506 -155.58906648 63.44438741 -151.5 63.5625 C-150.69409424 63.57788818 -149.88818848 63.59327637 -149.05786133 63.60913086 C-132.27178864 64.14726422 -117.98889781 71.28440533 -106 83 C-94.90339845 95.63491547 -87.97401702 110.90028366 -89 128 C-88.46375 128.20625 -87.9275 128.4125 -87.375 128.625 C-85.09795632 129.94328845 -83.67682631 131.22066791 -81.8515625 133.0859375 C-81.31611816 133.63040527 -80.78067383 134.17487305 -80.22900391 134.73583984 C-79.62064697 135.36159912 -79.62064697 135.36159912 -79 136 C-78.86424561 135.40050537 -78.72849121 134.80101074 -78.58862305 134.18334961 C-77.96175094 131.43312399 -77.32470868 128.6853483 -76.6875 125.9375 C-76.47416016 124.99455078 -76.26082031 124.05160156 -76.04101562 123.08007812 C-75.07117625 118.92569156 -74.12257839 115.01993479 -72.28125 111.16015625 C-70.83469992 107.5922934 -70.9282243 106.1818965 -71.8125 102.5 C-76.03539352 79.44671964 -72.63079649 55.90560889 -59.77001953 36.10644531 C-57.05811804 32.21377375 -54.10319969 28.58614799 -51 25 C-50.42765625 24.32710937 -49.8553125 23.65421875 -49.265625 22.9609375 C-37.96802126 10.71254532 -17.08409236 -2.06187322 0 0 Z M-38 33 C-51.70640353 47.06474087 -59.33957097 65.9155805 -59.16796875 85.546875 C-58.85641174 90.09705639 -57.93325708 94.54203093 -57 99 C-42.28374859 96.04996804 -28.36255744 85.44639714 -19.77246094 73.25830078 C-11.29023196 60.14777188 -6.60064564 46.88262194 -6.8125 31.25 C-6.81314453 30.33089844 -6.81378906 29.41179688 -6.81445312 28.46484375 C-6.8425362 24.15253187 -7.06104488 20.22412729 -8 16 C-18.4139792 16 -30.97484512 26.15382996 -38 33 Z M-149 78 C-148.2964856 92.07028792 -141.73917365 102.74788876 -131.6875 112.25 C-123.70343555 119.03375746 -115.14009734 121.85698974 -105 124 C-102.88098759 118.2662017 -105.94304544 112.40810242 -108 107 C-114.09418939 93.76744547 -124.58044122 85.1429147 -138 80 C-141.65576132 79.04650903 -145.24196646 78.37580335 -149 78 Z M61.33984375 162.08203125 C56.64472635 169.02204443 55.69751852 176.40781096 55.75517273 184.59709167 C55.75290816 185.42527682 55.75064358 186.25346197 55.74831039 187.10674363 C55.74304375 189.86185096 55.75182154 192.61673026 55.76049805 195.37182617 C55.75938439 197.3550168 55.75732537 199.3382071 55.75439453 201.32139587 C55.74968219 205.58181282 55.750782 209.8421746 55.75617027 214.10259056 C55.76378892 220.83823486 55.75311571 227.57377318 55.7389679 234.30940247 C55.70124974 253.45912103 55.68305941 272.60879085 55.69458008 291.75854492 C55.70079053 302.3425223 55.68925003 312.92632812 55.65813476 323.51026326 C55.63945602 330.20771627 55.64282131 336.9046842 55.66230237 343.60212934 C55.66917274 347.76409674 55.65525018 351.9257996 55.63535309 356.08771706 C55.63029655 358.01907679 55.6338145 359.95048064 55.64648628 361.88180542 C55.66254618 364.51647834 55.64799544 367.14927164 55.6257782 369.78385925 C55.6378157 370.54980964 55.64985319 371.31576003 55.66225547 372.10492104 C55.59335882 376.10523708 55.17016484 377.79597511 52.57172871 380.91145802 C51.298723 381.9452863 51.298723 381.9452863 50 383 C38.1098688 393.94730141 30.11392961 408.72099365 29 425 C28.66962319 443.83147808 34.65572399 459.83687714 47.65234375 473.6796875 C59.33201843 485.22332604 73.54321145 490.87099716 90 491.375 C108.30122884 490.83816395 123.5006877 483.98679612 136.25 470.9375 C148.70938329 456.08508276 152.63511501 437.92337116 151 419 C148.83983142 403.66640336 139.99526607 390.96888943 128.515625 381.06640625 C127.03625188 379.80818627 127.03625188 379.80818627 125 380 C123.90989097 375.59581434 123.85838736 371.29848424 123.86869812 366.79058838 C123.86552455 365.55638897 123.86552455 365.55638897 123.86228687 364.29725623 C123.85629901 361.54223293 123.85728616 358.78725558 123.8581543 356.03222656 C123.85512199 354.05596845 123.85160033 352.07971103 123.84762573 350.10345459 C123.83974174 345.84792249 123.83459369 341.59239876 123.83133507 337.33686066 C123.82542041 330.60457296 123.8088756 323.872338 123.78999329 317.14007568 C123.78365603 314.83430866 123.7773304 312.5285416 123.77101612 310.22277451 C123.76785031 309.06808906 123.7646845 307.91340362 123.76142275 306.7237277 C123.71936222 291.0518304 123.68637134 275.37995781 123.67407227 259.70800781 C123.66568925 249.13464039 123.64319019 238.56140373 123.6047166 227.98810172 C123.58496555 222.39478858 123.57254831 216.80167086 123.57755089 211.20832062 C123.58220083 205.94526335 123.56837268 200.68257644 123.54053879 195.41959381 C123.53363313 193.49153865 123.5334937 191.56344515 123.54073906 189.63539124 C123.87110371 176.22912584 123.87110371 176.22912584 119 164 C118.54238281 163.20207031 118.08476562 162.40414062 117.61328125 161.58203125 C111.64141361 153.45813923 103.87680916 148.89697446 94 147 C80.55212632 145.07548097 69.489629 151.86124174 61.33984375 162.08203125 Z M-232.3125 190.8125 C-237.93888839 198.93780203 -239.02467721 207.24227838 -238 217 C-236.10092757 225.56843393 -231.88053664 233.35028171 -224.76953125 238.66796875 C-222.87849198 239.86283781 -220.9864262 240.97324983 -219 242 C-215.77194519 238.97369862 -212.98874207 235.79070243 -210.25 232.3125 C-206.04676638 226.9994238 -201.6244309 221.94976775 -197 217 C-196.24074219 216.18660156 -195.48148438 215.37320313 -194.69921875 214.53515625 C-188.0176919 207.61305069 -180.64859512 201.79706201 -173 196 C-178.49309074 186.94545482 -183.70275097 181.04485653 -193.9765625 177.6953125 C-208.75025569 174.29774482 -222.79846784 179.08319075 -232.3125 190.8125 Z M-65 178 C-67.69928386 180.69928386 -66.24934986 188.50766249 -66.25317383 192.13867188 C-66.13835438 203.52141305 -65.45747592 216.0100874 -57.4375 224.8125 C-54.35563831 227.57827331 -52.48520782 228.37982712 -48.328125 228.37109375 C-44.03541449 227.68685298 -40.13731828 225.74750354 -36.18359375 223.99609375 C-32.59154981 222.8722027 -30.5960903 222.99003421 -27 224 C-25.31295807 225.30745749 -23.64639965 226.64172029 -22 228 C-14.98004173 231.19089012 -7.55559895 230.80005993 -0.41015625 228.19140625 C5.23318804 225.40174659 10.55061342 221.44938658 15 217 C21.44288062 215.87949902 25.68920111 218.64818702 31.23046875 221.78515625 C33.86433705 223.22651992 33.86433705 223.22651992 36.36328125 222.68359375 C37.17345703 222.34521484 37.17345703 222.34521484 38 222 C10.69937165 195.79358521 -26.87131657 178.76848509 -65 178 Z M-138 192 C-137.13375 192.99 -136.2675 193.98 -135.375 195 C-134.24670025 196.33054216 -133.12183199 197.66400009 -132 199 C-131.21109375 199.92039063 -131.21109375 199.92039063 -130.40625 200.859375 C-123.34094018 209.58286978 -121.38528627 218.96154835 -121 230 C-119.97261719 230.35191406 -118.94523437 230.70382813 -117.88671875 231.06640625 C-104.07482183 235.92880887 -93.43465355 241.06770212 -86.1875 254.3125 C-83.12045013 263.83649695 -83.4932912 272.09244531 -88.03515625 281.0390625 C-91.00364197 285.76851433 -94.59536769 288.54914894 -100 290 C-110.06510728 291.40985059 -117.58400551 289.5992592 -126 284 C-128.91487787 281.76165214 -131.73202816 279.44344731 -134.53125 277.0625 C-138.49527883 273.75077971 -141.76875939 271.04462481 -147.125 270.9375 C-150.8089094 272.29894478 -152.60456636 273.90002705 -155 277 C-155.48893605 279.49318627 -155.48893605 279.49318627 -155 282 C-153.46277165 283.68345397 -153.46277165 283.68345397 -151.2578125 284.91015625 C-150.44763672 285.41901367 -149.63746094 285.92787109 -148.80273438 286.45214844 C-147.91908203 286.98356445 -147.03542969 287.51498047 -146.125 288.0625 C-144.28319625 289.21379191 -142.44206411 290.36615883 -140.6015625 291.51953125 C-139.66473633 292.09912598 -138.72791016 292.6787207 -137.76269531 293.27587891 C-89.77445593 323.22400072 -89.77445593 323.22400072 -84.4296875 342.00390625 C-83.47227994 347.2085367 -84.30247365 351.44733271 -87 356 C-93.67295715 364.72617473 -106.12460306 366.81632264 -116.375 368.5625 C-125.89128769 370.02521194 -125.89128769 370.02521194 -133.39453125 375.68359375 C-136.68302855 381.14975816 -136.22196188 385.93261983 -135 392 C-134.7525 392.99386719 -134.505 393.98773438 -134.25 395.01171875 C-131.20841745 407.36814784 -128.83313992 423.43849355 -134.87890625 435.1953125 C-135.24886719 435.79085938 -135.61882812 436.38640625 -136 437 C-136.556875 437.94875 -137.11375 438.8975 -137.6875 439.875 C-143.58850475 445.29754491 -150.07635766 446.68853981 -157.95703125 446.37890625 C-172.40659746 444.5796663 -184.50334123 435.30442469 -193.24609375 424.12890625 C-211.60907406 398.82948819 -214.73988099 370.48689096 -214 340 C-221.02991567 342.60775498 -224.96261555 347.88025506 -229 354.0625 C-231.10706852 360.25201378 -229.96843248 366.53462447 -228.4375 372.75 C-228.17187256 373.83692139 -228.17187256 373.83692139 -227.90087891 374.94580078 C-220.42498084 404.31852308 -206.16907992 429.37664798 -185 451 C-184.31550781 451.73476563 -183.63101563 452.46953125 -182.92578125 453.2265625 C-155.88902553 481.68033896 -114.56810033 496.52683021 -76.05859375 498.16796875 C-62.61892657 498.24045886 -49.55320825 497.00089855 -36.4375 494 C-35.70474854 493.8340332 -34.97199707 493.66806641 -34.21704102 493.49707031 C-32.45959016 493.06746652 -30.72604887 492.54216995 -29 492 C-28.67 491.34 -28.34 490.68 -28 490 C-28.474375 488.948125 -28.94875 487.89625 -29.4375 486.8125 C-32.58290619 478.81792592 -32.23293055 469.18860913 -29.125 461.25 C-27.91586619 458.61677525 -26.61708549 456.42562823 -25 454 C-25.25135613 450.15110928 -27.38387628 448.28654254 -30 445.625 C-40.09049706 434.7137448 -49.52558429 420.6407585 -49.20703125 405.234375 C-48.21893214 394.57036193 -43.1688849 387.42904163 -35.125 380.6875 C-32.32668752 378.39343979 -29.49391993 376.14808802 -26.64453125 373.91796875 C-21.22337152 369.800555 -21.22337152 369.800555 -18 364 C-17.84669187 362.56079289 -17.73801886 361.11656064 -17.65869141 359.67138672 C-17.60838776 358.7997287 -17.55808411 357.92807068 -17.5062561 357.02999878 C-17.45520721 356.08939606 -17.40415833 355.14879333 -17.3515625 354.1796875 C-17.23225078 352.17965881 -17.11244311 350.17965966 -16.9921875 348.1796875 C-16.80711543 345.03346223 -16.62566743 341.88717301 -16.453125 338.74023438 C-16.28445712 335.69846247 -16.10033737 332.65792541 -15.9140625 329.6171875 C-15.86706207 328.68873016 -15.82006165 327.76027283 -15.77163696 326.80368042 C-15.21614785 318.06458458 -13.61191388 310.1807021 -7 304 C-0.21375297 299.44270859 7.04009922 298.96418642 15 300 C23.62312985 302.15307759 29.38659611 306.60098155 35.625 312.79296875 C38.06268716 315.26572848 38.06268716 315.26572848 42 317 C42 290.93 42 264.86 42 238 C37.71 237.34 33.42 236.68 29 236 C27.288125 235.154375 25.57625 234.30875 23.8125 233.4375 C21.45458769 232.27693632 21.45458769 232.27693632 19 232 C16.18592757 233.35020923 14.03360566 235.07393859 11.609375 237.03515625 C2.77788631 243.68521435 -8.39419213 244.10566621 -19 243 C-22.85691363 241.99989333 -26.38036268 240.64769596 -30 239 C-33.41692579 237.86102474 -33.64848619 238.08509572 -36.75 239.4375 C-44.90241867 242.29683118 -54.49600819 242.57099342 -62.5 239.125 C-70.56621419 234.3415474 -74.62595166 226.11240944 -77.22265625 217.375 C-80.21864097 204.36730753 -80.26234791 191.27771941 -80 178 C-99.73575802 178 -119.9804896 184.44450955 -138 192 Z M-156.54296875 202.0546875 C-157.41566406 202.65539062 -158.28835937 203.25609375 -159.1875 203.875 C-160.62996094 204.865 -160.62996094 204.865 -162.1015625 205.875 C-198.15582546 232.30831409 -222.65231554 268.49096312 -230.16235352 312.88037109 C-231.24070793 319.88674222 -231.70118063 326.92107208 -232 334 C-230.86111328 333.25943359 -230.86111328 333.25943359 -229.69921875 332.50390625 C-228.70535156 331.86324219 -227.71148437 331.22257813 -226.6875 330.5625 C-225.20830078 329.60537109 -225.20830078 329.60537109 -223.69921875 328.62890625 C-220.02029988 326.40877721 -217.28662386 325.84426033 -213.0625 325.8125 C-212.20785156 325.79832031 -211.35320312 325.78414063 -210.47265625 325.76953125 C-207.64777245 326.03283006 -206.26647716 326.27293494 -204 328 C-201.44205854 333.01635516 -200.63219102 336.70794279 -200.62890625 342.41796875 C-200.6150095 343.8419655 -200.6005009 345.26595639 -200.58544922 346.68994141 C-200.58252869 347.42480774 -200.57960815 348.15967407 -200.57659912 348.91680908 C-200.41342429 375.1964331 -196.516511 400.89147255 -177.6875 420.8125 C-171.20910357 426.94992819 -163.26427026 432.74316875 -154 433 C-149.72407336 431.41976624 -147.9690971 429.03664905 -146 425 C-143.37106623 418.06917462 -145.40307297 410.421596 -147 403.5 C-149.34988135 392.46599701 -151.65232569 380.39004727 -146.265625 369.89453125 C-139.26575084 359.41632456 -129.52719573 356.86553915 -117.75 354.375 C-116.81559082 354.19324219 -115.88118164 354.01148438 -114.91845703 353.82421875 C-109.02115933 352.64161398 -104.14221962 351.18722829 -99 348 C-98.11427457 346.06871144 -98.11427457 346.06871144 -98 344 C-106.83986192 326.32027616 -130.11061668 314.72877224 -146.05688477 304.73193359 C-167.32229125 291.35610761 -167.32229125 291.35610761 -169 284 C-169.93954845 277.28717358 -168.65091077 271.71868323 -165 266 C-159.8725661 260.041792 -153.75751264 257.4175014 -146.0625 256.5625 C-137.65673914 256.97134051 -131.20311943 262.09116828 -124.71484375 266.96875 C-115.93074041 274.11305747 -115.93074041 274.11305747 -105.5 276.9375 C-101.94695989 276.25239157 -101.94695989 276.25239157 -99.5625 273.9375 C-97.56734149 270.186602 -97.23904383 267.11073229 -98 263 C-101.42994007 255.04253904 -106.83093075 250.75295843 -114.6875 247.3125 C-119.89706441 245.26283532 -125.13178776 243.84582493 -130.6015625 242.67578125 C-133 242 -133 242 -135 240 C-135.06779792 237.45020869 -135.03782047 234.98068152 -134.9375 232.4375 C-134.762979 223.32385105 -136.15292921 216.30883849 -142 209 C-148.31748294 202.38070967 -148.31748294 202.38070967 -156.54296875 202.0546875 Z M1 316 C-1.87935345 322.09424394 -2.52010785 328.32333327 -2.80859375 334.96875 C-2.91710009 336.85808543 -3.02583086 338.74740798 -3.13476562 340.63671875 C-3.28917338 343.57218452 -3.4378822 346.50782439 -3.58129883 349.44384766 C-3.72569403 352.30732658 -3.89123863 355.16903436 -4.05859375 358.03125 C-4.09415878 358.89713745 -4.12972382 359.7630249 -4.16636658 360.65515137 C-4.61056657 368.02784395 -6.55123412 374.21573392 -11.48046875 379.8203125 C-12.37378906 380.58085937 -13.26710938 381.34140625 -14.1875 382.125 C-15.15171875 382.95644531 -16.1159375 383.78789062 -17.109375 384.64453125 C-20.39793784 387.32426556 -23.74911543 389.90847888 -27.125 392.4765625 C-29.49937582 394.40574286 -31.28932685 396.46820373 -33 399 C-33.4125 399.598125 -33.825 400.19625 -34.25 400.8125 C-36.38797941 407.04827328 -34.93080832 412.5341918 -32.38671875 418.36328125 C-27.33428021 427.97003059 -19.74325716 435.90205237 -12.35546875 443.74609375 C-9.3838882 447.04309234 -8 449.51276879 -8 454 C-9.19778655 456.6069472 -10.78267304 458.71154785 -12.50390625 460.99609375 C-16.26115633 466.2200294 -18.5086888 470.44485109 -18 477 C-17.35137095 480.09144973 -16.48383638 482.13466078 -15 485 C-13.12158114 485.91299783 -13.12158114 485.91299783 -11 486 C-8.37380965 484.93532824 -5.9899895 483.82319277 -3.5 482.5 C-2.43966553 481.95122192 -2.43966553 481.95122192 -1.35791016 481.39135742 C11.52059969 474.7419626 11.52059969 474.7419626 23 466 C22.5875 464.824375 22.175 463.64875 21.75 462.4375 C21.16471278 460.62563 20.58163482 458.81304577 20 457 C19.46052734 455.45119141 19.46052734 455.45119141 18.91015625 453.87109375 C12.44190172 433.2693578 15.00648136 411.63608789 24.79052734 392.60058594 C28.4668903 385.82308479 32.64606648 379.31457741 39.06542969 374.88452148 C41.84255012 372.57259632 42.00222194 371.99025831 42.87158203 368.17871094 C42.95122468 366.69871116 42.99471054 365.21645821 43.0078125 363.734375 C43.0277829 362.94154114 43.0477533 362.14870728 43.06832886 361.33184814 C43.09862132 359.65780408 43.11278254 357.98339988 43.11181641 356.30908203 C43.1249162 353.76626568 43.23365826 351.23925195 43.34765625 348.69921875 C43.61046613 339.6685014 43.61046613 339.6685014 39.45117188 331.99145508 C36.40043974 329.71212101 33.31106773 327.87233302 30 326 C28.05275595 324.43309144 26.13128483 322.83301792 24.25 321.1875 C19.34799238 317.14722859 14.7363651 313.60824548 8.3125 312.5625 C5.0959788 313.17103104 3.50422744 313.82527617 1 316 Z " fill="#F6EB00" transform="translate(323,0)"/>
<path d="M0 0 C3.12233939 2.87247513 3.94336747 4.56262822 4.49219131 8.80118275 C4.50893409 10.31600105 4.50366829 11.83116 4.48101807 13.34590149 C4.48443577 14.18321829 4.48785347 15.0205351 4.49137473 15.88322514 C4.4979602 18.68722886 4.47596674 21.49027402 4.45410156 24.29418945 C4.45297323 26.30475339 4.45360667 28.31531898 4.45587158 30.32588196 C4.4570202 35.78423367 4.43348672 41.24223445 4.40557575 46.70050454 C4.38058687 52.404663 4.37822208 58.10882931 4.37347412 63.81303406 C4.36103698 74.61481524 4.32820526 85.41643467 4.28807616 96.2181446 C4.24338153 108.51546446 4.2213772 120.81279201 4.20129442 133.11017287 C4.15947338 158.40687162 4.08910685 183.70342675 4 209 C4.69015198 209.20079163 5.38030396 209.40158325 6.09136963 209.60845947 C6.99482117 209.87463074 7.89827271 210.140802 8.82910156 210.41503906 C9.72550354 210.67770569 10.62190552 210.94037231 11.54547119 211.21099854 C20.79377641 214.18384055 27.15636917 221.3724888 31.75 229.625 C36.31545822 239.37646416 37.0601757 249.70055402 34 260 C29.8106316 270.79926077 23.55220935 278.92825149 13 284 C2.22988352 288.13851698 -9.32245275 288.69111912 -20 284 C-30.26973785 278.29094445 -38.41664775 270.04408763 -41.875 258.625 C-44.45259052 247.51203489 -43.32742723 236.72023261 -37.6796875 226.64453125 C-31.99401707 218.6131334 -23.79780174 211.1851326 -13.87158203 209.45458984 C-12.92395996 209.3045752 -11.97633789 209.15456055 -11 209 C-11.00368717 207.94717205 -11.00737434 206.8943441 -11.01117325 205.80961227 C-11.09989971 180.21351058 -11.16566887 154.6174288 -11.20724869 129.0212059 C-11.22788989 116.64315075 -11.25604033 104.26519706 -11.30175781 91.88720703 C-11.34157779 81.10084061 -11.36742147 70.31454767 -11.37635398 59.52810979 C-11.38157691 53.8146755 -11.39388517 48.10145144 -11.42292023 42.38808441 C-11.45001278 37.01355328 -11.45845744 31.63931957 -11.45243073 26.26472664 C-11.45353372 24.28939512 -11.46152409 22.31405395 -11.4768219 20.33878136 C-11.49665346 17.6466893 -11.49196434 14.95572775 -11.48101807 12.26361084 C-11.49266943 11.47761781 -11.5043208 10.69162477 -11.51632524 9.88181376 C-11.47780957 6.38985513 -11.2740824 4.37546561 -9.18868637 1.51868057 C-5.95256763 -0.72678992 -3.83777973 -0.61678603 0 0 Z M-24.625 233.9375 C-28.82136112 240.23204168 -28.68593014 246.65965666 -28 254 C-26.22448055 261.14974274 -20.75167693 265.76725183 -15 270 C-9.76674309 272.73039491 -3.78003716 272.75289494 2 272 C9.7017806 269.5248223 15.20077955 265.20463422 19.02734375 258.08984375 C21.74576289 251.78862335 21.99133186 245.40035655 19.875 238.875 C16.94540427 232.03473461 12.56181805 227.77952298 5.83203125 224.7265625 C-6.24449616 219.93715078 -16.57468492 224.3390474 -24.625 233.9375 Z " fill="#F6EB00" transform="translate(417,182)"/>
<path d="M0 0 C1.9375 1.125 1.9375 1.125 3 3 C3.57450961 5.89120094 3.75768993 7.22277875 3 10 C0.52647749 13.53720986 -2.46726856 16.44359336 -5.5625 19.4375 C-6.36236328 20.26443359 -7.16222656 21.09136719 -7.98632812 21.94335938 C-13.93951864 27.82851343 -13.93951864 27.82851343 -18.9375 28.63671875 C-22.62676278 27.8696909 -23.92851299 27.14866025 -26 24 C-26.6875 21.25 -26.6875 21.25 -26 18 C-23.98820842 15.0176636 -21.52935344 12.5471972 -19 10 C-18.13503906 9.10925781 -17.27007812 8.21851563 -16.37890625 7.30078125 C-7.62526439 -1.60531882 -7.62526439 -1.60531882 0 0 Z " fill="#F6EB00" transform="translate(75,253)"/>
<path d="M0 0 C3.09765625 0.6015625 3.09765625 0.6015625 5.53515625 2.1640625 C7.79975572 5.69683767 7.74040697 7.43203022 7.09765625 11.6015625 C4.78037348 14.94528246 1.96340236 17.66699634 -0.96484375 20.4765625 C-1.71701172 21.24742187 -2.46917969 22.01828125 -3.24414062 22.8125 C-9.49708731 28.96258436 -9.49708731 28.96258436 -13.7734375 29.734375 C-16.90234375 29.6015625 -16.90234375 29.6015625 -19.90234375 27.6015625 C-21.96590675 24.506218 -22.35208468 23.22869845 -21.70019531 19.61669922 C-19.92649977 15.13686965 -16.16540252 11.96996934 -12.77734375 8.6640625 C-12.0296875 7.88482422 -11.28203125 7.10558594 -10.51171875 6.30273438 C-4.93587019 0.76088489 -4.93587019 0.76088489 0 0 Z " fill="#F6EB00" transform="translate(181.90234375,140.3984375)"/>
<path d="M0 0 C3.34355865 2.31755141 6.06541163 5.13423074 8.875 8.0625 C9.64585938 8.81466797 10.41671875 9.56683594 11.2109375 10.34179688 C17.36129599 16.59502228 17.36129599 16.59502228 18.10546875 20.875 C18 24 18 24 16.4375 26.9375 C14 29 14 29 11.25 29.75 C6.26453426 28.59950791 3.56662263 25.54163753 0 22 C-1.33611328 20.70255859 -1.33611328 20.70255859 -2.69921875 19.37890625 C-10.85150255 11.36617652 -10.85150255 11.36617652 -11.3125 7.125 C-11 4 -11 4 -9.4375 1.625 C-5.91307991 -0.72461339 -4.20439607 -0.65233372 0 0 Z " fill="#F6EB00" transform="translate(60,141)"/>
<path d="M0 0 C1.68774414 1.13500977 1.68774414 1.13500977 3 3 C3.65499645 7.61584506 3.46304961 12.28050334 3.4375 16.9375 C3.45748047 18.22591797 3.47746094 19.51433594 3.49804688 20.84179688 C3.49740234 22.07865234 3.49675781 23.31550781 3.49609375 24.58984375 C3.49794678 25.72284912 3.4997998 26.85585449 3.50170898 28.02319336 C2.89158795 31.64324481 1.9437756 32.85701531 -1 35 C-4.3951779 34.94043548 -6.85892668 34.79774444 -9.68774414 32.82006836 C-12.64630184 28.71661763 -11.46517497 22.42071487 -11.4375 17.5625 C-11.45748047 16.32177734 -11.47746094 15.08105469 -11.49804688 13.80273438 C-11.49740234 12.61099609 -11.49675781 11.41925781 -11.49609375 10.19140625 C-11.49794678 9.10029541 -11.4997998 8.00918457 -11.50170898 6.88500977 C-10.35245855 0.27640032 -6.10995012 -0.77763002 0 0 Z " fill="#F6EB00" transform="translate(123,115)"/>
<path d="M0 0 C1.24007812 -0.00064453 2.48015625 -0.00128906 3.7578125 -0.00195312 C5.05460937 0.01802734 6.35140625 0.03800781 7.6875 0.05859375 C8.98429687 0.05150391 10.28109375 0.04441406 11.6171875 0.03710938 C21.14597276 0.10149306 21.14597276 0.10149306 23.53125 1.83959961 C25.27535086 4.33827451 25.50313352 6.48477451 25.6875 9.49609375 C24.72144425 12.24563703 24.30734486 13.18617132 21.6875 14.49609375 C17.04729756 14.79478387 12.39867924 14.77415909 7.75 14.80859375 C6.44869141 14.83759766 5.14738281 14.86660156 3.80664062 14.89648438 C2.56205078 14.90486328 1.31746094 14.91324219 0.03515625 14.921875 C-1.10945068 14.93645752 -2.25405762 14.95104004 -3.43334961 14.96606445 C-6.3125 14.49609375 -6.3125 14.49609375 -8.18579102 12.65698242 C-9.71604011 9.72215365 -9.72097323 7.76387961 -9.3125 4.49609375 C-6.99062156 0.06072344 -4.81690326 -0.00784179 0 0 Z " fill="#F6EB00" transform="translate(32.3125,203.50390625)"/>
</svg>
