<?xml version="1.0" encoding="UTF-8"?>
<svg version="1.1" xmlns="http://www.w3.org/2000/svg" width="512" height="512">
<path d="M0 0 C6.92606777 4.09497438 11.88870185 11.08057134 16.92431641 17.21875 C19.54641452 20.38554293 22.25165223 23.47906626 24.953125 26.578125 C26.04582875 27.83701757 27.13827568 29.0961331 28.23046875 30.35546875 C29.04427002 31.29302002 29.04427002 31.29302002 29.87451172 32.24951172 C32.58983717 35.37847794 35.3026088 38.50965656 38.015625 41.640625 C39.09894594 42.89063574 40.18227928 44.14063574 41.265625 45.390625 C60.765625 67.890625 60.765625 67.890625 62.39160156 69.7668457 C63.47155569 71.01288417 64.5516332 72.25881572 65.63183594 73.50463867 C68.39290886 76.68937049 71.15160614 79.8761112 73.90625 83.06640625 C78.64607184 88.55187965 83.38613211 94.02826563 88.265625 99.390625 C92.14214952 103.66547131 95.79887962 108.09375878 99.4296875 112.578125 C102.06703768 115.81801586 104.77971259 118.98380299 107.515625 122.140625 C112.41330591 121.5047815 116.37706026 119.43896106 120.7421875 117.265625 C121.54990601 116.86937424 122.35762451 116.47312347 123.18981934 116.06486511 C125.84271251 114.76204757 128.4915916 113.45127024 131.140625 112.140625 C132.99431097 111.22892684 134.84831883 110.3178829 136.70263672 109.4074707 C140.48641779 107.54935844 144.26899949 105.68883792 148.05078125 103.82666016 C153.00149668 101.39090903 157.95915549 98.96978228 162.921875 96.55859375 C163.65545227 96.20209244 164.38902954 95.84559113 165.14483643 95.47828674 C168.73446337 93.73517129 172.32626055 91.99667447 175.92089844 90.26391602 C182.30523125 87.1826798 188.67250528 84.07975766 194.9815979 80.84660339 C197.77937407 79.41521036 200.58645546 78.00264058 203.39447021 76.59146118 C204.69868891 75.92938227 205.9983212 75.2581684 207.2925415 74.57675171 C216.37918756 69.79540851 224.75347039 67.00883041 234.98779297 69.81958008 C239.68166319 71.63123906 242.85244896 75.00503565 245.34417725 79.31207275 C249.64043876 89.68573229 245.46437269 101.47318666 242.1875 111.59375 C241.72518305 113.07269196 241.2647137 114.55221255 240.80593872 116.03225708 C239.82557417 119.18230772 238.83328271 122.32823184 237.83099365 125.47137451 C236.23468414 130.47814141 234.66608229 135.49332451 233.10205078 140.51025391 C231.48833702 145.68261139 229.87318561 150.85448573 228.24868774 156.02346802 C223.59834931 170.82252413 219.07456801 185.65770549 214.5982666 200.51019287 C212.7772471 206.5520598 210.94880763 212.59168216 209.1206665 218.63139725 C208.50834932 220.65447637 207.8962591 222.67762407 207.28417969 224.70077515 C204.20800114 234.86629051 201.11811464 245.02760249 198.0234375 255.1875 C197.56115071 256.7055558 197.09886534 258.22361203 196.63658142 259.7416687 C194.59406304 266.44799095 192.5502201 273.15390235 190.5019331 279.85846519 C186.5165631 292.9055023 182.54342233 305.95361213 178.73828125 319.0546875 C178.18694167 320.94127059 177.63551347 322.82782778 177.08398438 324.71435547 C176.11866795 328.01861985 175.1729076 331.32750837 174.24023438 334.64111328 C168.8934935 353.25463365 168.8934935 353.25463365 159.83447528 358.27834773 C154.80471277 360.14869267 149.35114121 359.69346648 144.05447388 359.66201782 C142.67715499 359.66806323 141.29984281 359.6758434 139.92254245 359.68520296 C136.14749145 359.70575071 132.37282059 359.70140282 128.5977385 359.69284177 C124.52262678 359.68790498 120.44760632 359.70593842 116.37252808 359.72091675 C108.39272579 359.74640874 100.4130581 359.74999841 92.43322195 359.74531622 C85.94651296 359.74174932 79.45984482 359.74525033 72.97314072 359.75376511 C72.049717 359.75495548 71.12629328 359.75614586 70.17488702 359.75737231 C68.29891134 359.75979583 66.42293566 359.7622241 64.54695998 359.76465707 C46.95595688 359.78640741 29.36503046 359.78208342 11.77402304 359.76988737 C-4.3147329 359.75954928 -20.40324664 359.78205917 -36.49195467 359.82008381 C-53.01641401 359.85883859 -69.54075878 359.87535297 -86.06526387 359.86783731 C-95.34069801 359.86401286 -104.61592603 359.86899216 -113.89132309 359.89726639 C-121.78771329 359.92109359 -129.68377048 359.92390477 -137.58016525 359.89968605 C-141.60777535 359.8879077 -145.63477635 359.88570979 -149.66234589 359.90969086 C-153.35267079 359.93140824 -157.0418781 359.92520636 -160.73215069 359.89716749 C-162.69260877 359.88937333 -164.65311647 359.91097034 -166.61345756 359.93376124 C-174.43770758 359.83795312 -179.65715251 358.5472946 -185.484375 353.140625 C-189.77851459 347.38977139 -191.39689401 340.62030749 -193.40625 333.796875 C-193.97891967 331.89272028 -194.55159056 329.98856592 -195.12430286 328.08442402 C-195.73937917 326.03335088 -196.35015094 323.98104042 -196.95968628 321.92831421 C-198.25930987 317.5521711 -199.57114183 313.17974575 -200.88500977 308.80786133 C-202.28854039 304.1358431 -203.69137566 299.46362313 -205.09034729 294.79023743 C-209.983724 278.4455092 -214.94391266 262.1212662 -219.90994263 245.79849243 C-221.4273014 240.81089917 -222.94318066 235.82285703 -224.45874023 230.8347168 C-229.86818102 213.03132293 -235.27929761 195.22843451 -240.69729614 177.42764282 C-241.16001853 175.90732972 -241.62273626 174.38701519 -242.08544922 172.86669922 C-242.31183893 172.1228705 -242.53822865 171.37904179 -242.77147865 170.61267281 C-244.10759155 166.22166218 -245.4413619 161.82994858 -246.7730732 157.43760109 C-247.8217615 153.97895691 -248.8714819 150.52062679 -249.921875 147.0625 C-250.22179163 146.07504351 -250.22179163 146.07504351 -250.52776718 145.0676384 C-253.03877662 136.80728078 -255.60239582 128.56630814 -258.234375 120.34375 C-259.01896144 117.87028808 -259.80254555 115.39651043 -260.58602905 112.92269897 C-261.25697309 110.82771633 -261.94906237 108.7407479 -262.64379883 106.65356445 C-265.37210985 98.05282383 -267.9639865 87.9833009 -264.2824707 79.30859375 C-261.47992615 74.58555437 -257.89589073 70.63652559 -252.484375 69.140625 C-239.00518119 66.68820283 -228.7441268 73.12841507 -217.171875 79.140625 C-215.16537362 80.15664318 -213.15737762 81.16971471 -211.14794922 82.17993164 C-207.1265166 84.2046559 -203.11179235 86.24177661 -199.10205078 88.28955078 C-191.49233711 92.16588114 -183.80618334 95.87874545 -176.109375 99.578125 C-173.50311407 100.83430053 -170.89782384 102.09247465 -168.29296875 103.3515625 C-167.66031097 103.65709549 -167.0276532 103.96262848 -166.37582397 104.27742004 C-162.21314689 106.29178343 -158.06509052 108.33412725 -153.92364502 110.39176941 C-151.03536372 111.82563084 -148.14285725 113.25084536 -145.24993896 114.67532349 C-143.87837425 115.3536935 -142.50889135 116.03629108 -141.1416626 116.72335815 C-139.26490981 117.66616401 -137.38155168 118.59428802 -135.49609375 119.51953125 C-134.42834717 120.0513501 -133.36060059 120.58316895 -132.26049805 121.13110352 C-129.35501998 122.18766422 -128.26343697 122.40319967 -125.484375 121.140625 C-123.40810492 119.02218771 -123.40810492 119.02218771 -121.421875 116.328125 C-118.0892397 112.09803126 -114.66222229 108.07269249 -110.984375 104.140625 C-107.50920435 100.40834579 -104.18359952 96.61680404 -100.984375 92.640625 C-97.78505778 88.66433074 -94.45852555 84.87394202 -90.984375 81.140625 C-86.6947974 76.53060861 -82.68026603 71.76279264 -78.73046875 66.85546875 C-75.60270321 63.07495214 -72.27163617 59.49581625 -68.94921875 55.88671875 C-66.55730203 53.22187334 -64.29182616 50.49230675 -62.046875 47.703125 C-58.38931236 43.16826339 -54.53820473 38.88526317 -50.57275391 34.62353516 C-46.77729944 30.52030528 -43.25417809 26.23391895 -39.75 21.87890625 C-36.5493234 18.01050229 -33.15847187 14.33006929 -29.74609375 10.6484375 C-28.23181197 8.96938931 -26.77246338 7.23922119 -25.37109375 5.46484375 C-19.15766889 -2.18937528 -9.0662413 -3.1361212 0 0 Z M-10.484375 51.140625 C-15.10557633 56.17696971 -19.62874533 61.25771073 -23.921875 66.578125 C-27.78379175 71.35346902 -31.86111724 75.87730185 -36.01953125 80.39453125 C-38.41144797 83.05937666 -40.67692384 85.78894325 -42.921875 88.578125 C-46.57943764 93.11298661 -50.43054527 97.39598683 -54.39599609 101.65771484 C-58.19836307 105.76841776 -61.72708092 110.06338084 -65.23828125 114.42578125 C-68.36604679 118.20629786 -71.69711383 121.78543375 -75.01953125 125.39453125 C-77.41144797 128.05937666 -79.67692384 130.78894325 -81.921875 133.578125 C-85.5753702 138.10794357 -89.41878657 142.38989563 -93.38500977 146.64233398 C-97.28110996 150.84672416 -100.8803649 155.25109118 -104.4140625 159.765625 C-109.01630713 165.04518111 -113.75757945 168.39112441 -120.796875 168.953125 C-130.90821202 168.76234506 -139.39679036 163.36160495 -148.19042969 158.82177734 C-153.3468167 156.19007849 -158.56992126 153.69983539 -163.79110718 151.1998291 C-166.83646578 149.73983979 -169.8772313 148.27036492 -172.91796875 146.80078125 C-173.52939224 146.50545502 -174.14081573 146.21012878 -174.77076721 145.90585327 C-178.73117628 143.9917647 -182.6875472 142.06951908 -186.64178467 140.14271545 C-189.33515547 138.83075485 -192.02990598 137.52164293 -194.72479248 136.21279907 C-196.01671223 135.58433424 -197.30793962 134.95444401 -198.59844971 134.3230896 C-200.38554345 133.44887966 -202.17513365 132.57977859 -203.96484375 131.7109375 C-204.98473389 131.21352051 -206.00462402 130.71610352 -207.05541992 130.20361328 C-209.34785086 129.00698491 -209.34785086 129.00698491 -211.484375 129.140625 C-209.81572372 137.42898403 -207.35753093 145.44891962 -204.8828125 153.5234375 C-204.4127885 155.06605979 -203.94307548 156.60877687 -203.47364807 158.15158081 C-202.4663921 161.45972677 -201.45704336 164.76722395 -200.4460144 168.07421875 C-198.84167489 173.32192003 -197.2418752 178.57099828 -195.64282227 183.8203125 C-193.97128362 189.3067422 -192.29937402 194.79305775 -190.62580872 200.27886963 C-186.67552939 213.2275761 -182.73452693 226.17907384 -178.80078125 239.1328125 C-178.53073273 240.0220554 -178.2606842 240.91129829 -177.98245239 241.82748795 C-176.64671879 246.22607744 -175.31113892 250.62471359 -173.97564697 255.02337646 C-171.73644944 262.39835579 -169.49615216 269.77300098 -167.2556591 277.14758682 C-166.61158411 279.26763269 -165.96759593 281.38770491 -165.32362366 283.50778198 C-161.71487399 295.38672 -158.09914837 307.2635125 -154.484375 319.140625 C-58.784375 319.140625 36.915625 319.140625 135.515625 319.140625 C152.55105907 263.41867836 152.55105907 263.41867836 169.51055908 207.67376709 C171.42460918 201.36382861 173.33974859 195.0542209 175.2551918 188.7447052 C175.95160823 186.44986388 176.64735022 184.15481896 177.34298706 181.85974121 C179.76494652 173.87380005 182.20505588 165.89378468 184.66650391 157.91992188 C185.43651298 155.42012641 186.20624097 152.92024455 186.97590065 150.42034149 C187.70764489 148.04865396 188.44393697 145.6784097 189.18034363 143.3081665 C189.62281597 141.87185535 190.06507348 140.43547799 190.50708008 138.99902344 C190.89591873 137.74361755 191.28475739 136.48821167 191.68537903 135.19476318 C192.64678653 132.18563082 192.64678653 132.18563082 192.515625 129.140625 C187.44411999 130.6762321 182.85391523 132.80805949 178.12109375 135.1484375 C177.30805283 135.546642 176.4950119 135.9448465 175.65733337 136.3551178 C173.91098414 137.21095519 172.16546932 138.06849693 170.42071533 138.92758179 C167.68236277 140.27584757 164.9418636 141.61965121 162.20068359 142.9621582 C158.46405631 144.79234926 154.72811817 146.62393482 150.99267578 148.45654297 C143.60001752 152.08146158 136.19830786 155.68765812 128.79141235 159.28338623 C126.67157756 160.31308988 124.55293105 161.34521015 122.43432617 162.37744141 C121.15160018 163.00047013 119.86880796 163.62336254 118.5859375 164.24609375 C117.48008301 164.78387451 116.37422852 165.32165527 115.23486328 165.87573242 C108.7672979 168.88421296 101.0671129 169.64499537 94.19921875 167.375 C85.37003619 162.30936798 79.17881443 152.76059798 72.8984375 144.9921875 C69.91593624 141.42296468 66.77176341 138.02799534 63.60424805 134.6237793 C59.80177486 130.51301543 56.27299201 126.21795977 52.76171875 121.85546875 C50.4273191 119.03389005 47.99571902 116.33471788 45.515625 113.640625 C42.24144077 110.08392256 39.10920067 106.46900689 36.078125 102.703125 C32.85619399 98.70838514 29.50907005 94.89508151 26.015625 91.140625 C21.72607387 86.53058164 17.71151828 81.76279544 13.76171875 76.85546875 C10.6450379 73.08835015 7.32832376 69.52052038 4.01171875 65.9296875 C0.64548351 62.16835423 -2.46830014 58.23744687 -5.57421875 54.2578125 C-7.3865635 51.89959411 -7.3865635 51.89959411 -10.484375 51.140625 Z " fill="#F6EB00" transform="translate(265.484375,76.859375)"/>
</svg>
