<?xml version="1.0" encoding="UTF-8"?>
<svg version="1.1" xmlns="http://www.w3.org/2000/svg" width="512" height="512">
<path d="M0 0 C1.91577687 -0.04188605 3.83323652 -0.02862939 5.74863625 0.02793312 C6.8073193 0.01938887 7.86600236 0.01084462 8.95676672 0.00204146 C12.50529107 -0.01443529 16.04908902 0.04055848 19.59717751 0.09522438 C22.13990098 0.09804506 24.6826326 0.0964619 27.22535133 0.09079933 C32.69996611 0.08852201 38.1730582 0.1168806 43.64735985 0.17317772 C51.56187682 0.25451668 59.47581782 0.28049855 67.39070745 0.29305764 C80.23231877 0.31493375 93.0732942 0.38145398 105.91456032 0.47608376 C118.38718424 0.56790125 130.85963533 0.63867162 143.33252907 0.68116188 C144.48613185 0.68510273 144.48613185 0.68510273 145.66303973 0.6891232 C149.52130522 0.70217376 153.37957193 0.71481079 157.23783946 0.72724223 C189.23649891 0.83087761 221.23437682 1.00697982 253.23243141 1.23047829 C301.98243141 85.73047828 301.98243141 85.73047828 303.85767555 88.98096657 C305.10678659 91.14604899 306.3559727 93.31108811 307.60523415 95.47608376 C310.74445451 100.91663535 313.88233704 106.35795044 317.01758766 111.80079079 C323.0399047 122.25254028 329.07912478 132.69347377 335.16993141 143.10547829 C340.58928475 152.37144363 345.9303853 161.68039838 351.24460793 171.00684547 C356.02811552 179.40000974 360.85771051 187.76486188 365.73243141 196.10547829 C366.30678932 197.09273903 366.88114723 198.07999977 367.47290993 199.09717751 C369.9173018 203.29542681 372.37349627 207.4814311 374.91602516 211.62110329 C375.30403297 212.26450661 375.69204079 212.90790993 376.09180641 213.57081032 C377.07370743 215.19619447 378.07211892 216.81157558 379.07227516 218.42579079 C380.52282489 221.93250697 380.10284532 223.56709722 379.23243141 227.23047829 C377.97999001 229.88575172 377.97999001 229.88575172 376.38086891 232.58985329 C375.4865818 234.11932594 375.4865818 234.11932594 374.57422829 235.67969704 C373.92518532 236.76895485 373.27614235 237.85821266 372.60743141 238.98047829 C371.92740963 240.1374518 371.24839094 241.29501542 370.57032204 242.45313454 C369.16175817 244.85712977 367.748925 247.25853602 366.33301735 249.65821266 C363.09226163 255.15882709 359.91576818 260.69651238 356.73243141 266.23047829 C355.48273249 268.39731863 354.23273152 270.56398479 352.98243141 272.73047829 C352.36368141 273.80297829 351.74493141 274.87547829 351.10743141 275.98047829 C334.23243141 305.23047829 317.35743141 334.48047829 300.48243141 363.73047829 C299.86360085 364.80313942 299.24477028 365.87580055 298.60718727 366.98096657 C297.35807623 369.14604899 296.10889012 371.31108811 294.85962868 373.47608376 C291.72040832 378.91663535 288.58252578 384.35795044 285.44727516 389.80079079 C265.47349007 424.46633575 265.47349007 424.46633575 261.87681866 430.25771141 C260.13958868 433.16708319 260.13958868 433.16708319 259.24741459 436.34545708 C257.75324234 440.30566634 256.44250073 442.42827022 253.23243141 445.23047829 C245.48134293 447.63628714 236.76165858 446.74105861 228.75415993 446.59278297 C226.21128945 446.58939759 223.66840725 446.59129907 221.12554359 446.59809303 C215.65340418 446.60082447 210.18346067 446.56683277 204.71177292 446.49923897 C196.80122237 446.40158076 188.89150131 446.37044912 180.98041331 446.35538307 C168.14475845 446.32913944 155.31002033 446.24933714 142.47486305 446.13575172 C130.00908931 446.02555012 117.54356483 445.94063614 105.07740211 445.88965797 C104.30859632 445.88650529 103.53979053 445.88335261 102.74768759 445.88010439 C98.89069321 445.86444359 95.03369707 445.84927918 91.17669976 445.83436155 C59.19461077 445.71002323 27.2136485 445.49872268 -4.76756859 445.23047829 C-83.51756859 308.73047829 -83.51756859 308.73047829 -85.39281273 305.47999001 C-86.64192377 303.31490758 -87.89110988 301.14986846 -89.14037132 298.98487282 C-92.27959168 293.54432123 -95.41747422 288.10300613 -98.55272484 282.66016579 C-104.144929 272.95479482 -109.74376165 263.25375765 -115.39403343 253.58204079 C-116.58395111 251.54419848 -117.77184018 249.50517003 -118.95750999 247.46485329 C-121.41954939 243.22994577 -123.89114013 239.00619402 -126.45506859 234.83204079 C-127.03623436 233.8686277 -127.03623436 233.8686277 -127.62914085 232.88575172 C-128.61050393 231.26194879 -129.60811542 229.64799408 -130.60741234 228.03516579 C-132.05796207 224.52844961 -131.63798249 222.89385935 -130.76756859 219.23047829 C-129.51512718 216.57520485 -129.51512718 216.57520485 -127.91600609 213.87110329 C-127.02171898 212.34163063 -127.02171898 212.34163063 -126.10936546 210.78125954 C-125.13580101 209.14737282 -125.13580101 209.14737282 -124.14256859 207.48047829 C-123.46254681 206.32350477 -122.78352812 205.16594116 -122.10545921 204.00782204 C-120.69689535 201.60382681 -119.28406218 199.20242056 -117.86815453 196.80274391 C-114.62739881 191.30212949 -111.45090536 185.7644442 -108.26756859 180.23047829 C-107.01786967 178.06363795 -105.76786869 175.89697179 -104.51756859 173.73047829 C-103.89881859 172.65797829 -103.28006859 171.58547829 -102.64256859 170.48047829 C-90.76756859 149.89714495 -78.89256859 129.31381162 -67.01756859 108.73047829 C-66.39873802 107.65781715 -65.77990746 106.58515602 -65.14232445 105.47999001 C-63.89321341 103.31490758 -62.6440273 101.14986846 -61.39476585 98.98487282 C-58.25554549 93.54432123 -55.11766296 88.10300613 -51.98241234 82.66016579 C-45.39801696 71.23292762 -38.7842603 59.82406082 -32.12474632 48.44043922 C-26.77538339 39.27873896 -21.51365894 30.06771024 -16.27171898 20.84424782 C-15.64128685 19.736782 -15.01085472 18.62931618 -14.36131859 17.48829079 C-13.81153343 16.52036598 -13.26174828 15.55244118 -12.69530296 14.55518532 C-12.05915062 13.458032 -11.42299828 12.36087868 -10.76756859 11.23047829 C-10.39432374 10.41541081 -10.0210789 9.60034333 -9.6365236 8.76057684 C-5.59696869 0.68637192 -5.59696869 0.68637192 0 0 Z M7.23243141 21.23047829 C6.6097538 22.30978615 6.6097538 22.30978615 5.97449684 23.41089821 C-19.85619164 68.18409157 -45.68688011 112.95728493 -71.51756859 157.73047829 C-72.13664085 158.80354225 -72.75571312 159.87660622 -73.39354515 160.98218727 C-74.64027115 163.14316817 -75.88701586 165.30413827 -77.13377953 167.46509743 C-80.30902742 172.9686668 -83.48392354 178.47243861 -86.65819359 183.97657204 C-87.61931053 185.64187965 -87.61931053 185.64187965 -88.59984398 187.34082985 C-89.86469224 189.53527314 -91.12695871 191.73120683 -92.38646507 193.92872047 C-95.26997933 198.95188923 -98.1854733 203.94417289 -101.22459984 208.87500954 C-101.75150414 209.74262917 -102.27840843 210.61024879 -102.82127953 211.50415993 C-103.79583485 213.10366068 -104.78637036 214.69358281 -105.7958889 216.27124977 C-108.30726192 220.38220673 -108.30726192 220.38220673 -108.43163109 225.07422829 C-105.94413251 229.79230072 -103.31272251 234.40019245 -100.58006859 238.98047829 C-99.30337081 241.14415377 -98.02735188 243.30822994 -96.75194359 245.47266579 C-96.09258812 246.58867165 -95.43323265 247.70467751 -94.75389671 248.85450172 C-91.57831503 254.25174158 -88.45380299 259.67811829 -85.33006859 265.10547829 C-84.07098511 267.29039204 -82.81187036 269.47528778 -81.55272484 271.66016579 C-80.92769066 272.74523415 -80.30265648 273.83030251 -79.65868187 274.94825172 C-76.53076711 280.37707771 -73.39898411 285.8036711 -70.26756859 291.23047829 C-69.0175498 293.39713411 -67.7675498 295.56380078 -66.51756859 297.73047829 C-65.89881859 298.80297829 -65.28006859 299.87547829 -64.64256859 300.98047829 C-59.01756859 310.73047829 -59.01756859 310.73047829 -57.14232445 313.98096657 C-55.89321341 316.14604899 -54.6440273 318.31108811 -53.39476585 320.47608376 C-50.25554549 325.91663535 -47.11766296 331.35795044 -43.98241234 336.80079079 C-37.96009555 347.25253985 -31.92093622 357.69350968 -25.83006859 368.10547829 C-20.02417975 378.03114184 -14.30440736 388.00404008 -8.62328148 398.00147438 C-7.39906109 400.1522052 -6.15287174 402.29061558 -4.88251877 404.41442394 C-3.34556072 407.06450697 -2.12823162 409.7182461 -0.98605347 412.55925083 C2.57883293 420.82152904 2.57883293 420.82152904 9.43204355 426.19890904 C16.13890072 427.76909142 23.01217816 427.35936325 29.84815407 427.16040993 C32.15501486 427.1556107 34.4619016 427.15831415 36.76874733 427.16793251 C43.01404787 427.1728009 49.25377193 427.07304067 55.49777842 426.95417523 C62.0291061 426.84772861 68.56056914 426.83790379 75.09263039 426.8177433 C86.05020509 426.77377866 97.00583105 426.66484948 107.96241188 426.51294899 C119.2435587 426.35671218 130.52415046 426.23647769 141.80616188 426.16431618 C142.50249161 426.15984988 143.19882134 426.15538358 143.91625197 426.15078194 C147.40981483 426.12859501 150.90338159 426.10711228 154.39695096 426.08597958 C183.34345933 425.90997147 212.28789638 425.60948202 241.23243141 425.23047829 C241.64754982 424.51093971 242.06266823 423.79140114 242.49036598 423.05005836 C268.32105446 378.27686501 294.15174294 333.50367165 319.98243141 288.73047829 C320.60150368 287.65741432 321.22057594 286.58435036 321.85840797 285.4787693 C323.10513397 283.31778841 324.35187868 281.15681831 325.59864235 278.99585915 C328.77389024 273.49228977 331.94878636 267.98851796 335.12305641 262.48438454 C335.76380104 261.37417946 336.40454567 260.26397438 337.0647068 259.12012672 C338.32955506 256.92568343 339.59182154 254.72974974 340.8513279 252.5322361 C343.73484215 247.50906735 346.65033613 242.51678369 349.68946266 237.58594704 C350.21636696 236.71832741 350.74327126 235.85070778 351.28614235 234.95679665 C352.26069767 233.3572959 353.25123319 231.76737376 354.26075172 230.1897068 C356.77212475 226.07874985 356.77212475 226.07874985 356.89649391 221.38672829 C354.40899533 216.66865586 351.77758533 212.06076412 349.04493141 207.48047829 C347.76823363 205.3168028 346.49221471 203.15272663 345.21680641 200.98829079 C344.55745094 199.87228493 343.89809547 198.75627907 343.21875954 197.60645485 C340.04317786 192.20921499 336.91866581 186.78283828 333.79493141 181.35547829 C332.53584793 179.17056453 331.27673318 176.98566879 330.01758766 174.80079079 C329.39255348 173.71572243 328.7675193 172.63065407 328.12354469 171.51270485 C324.99562993 166.08387886 321.86384693 160.65728548 318.73243141 155.23047829 C317.48241262 153.06382246 316.23241263 150.89715579 314.98243141 148.73047829 C314.36368141 147.65797829 313.74493141 146.58547829 313.10743141 145.48047829 C277.48243141 83.73047828 277.48243141 83.73047828 275.60621071 80.47828102 C274.36037372 78.31888434 273.11444323 76.1595416 271.86841774 74.00025368 C268.67894188 68.47280232 265.49126256 62.94432708 262.30665016 57.41407204 C261.6556736 56.28420876 261.00469704 55.15434547 260.33399391 53.99024391 C259.11592237 51.87601974 257.89841201 49.76147209 256.68165016 47.64649391 C255.55295043 45.68794335 254.40258356 43.74168998 253.22897339 41.80971622 C251.73342114 39.25838308 250.57735191 36.69416967 249.47571182 33.95129681 C245.90056458 25.66185419 245.90056458 25.66185419 239.03170347 20.25981593 C232.32593371 18.69048847 225.4514665 19.10162877 218.61670876 19.30054665 C216.30984796 19.30534587 214.00296123 19.30264242 211.69611549 19.29302406 C205.45081495 19.28815567 199.21109089 19.3879159 192.96708441 19.50678134 C186.43575673 19.61322797 179.90429369 19.62305278 173.37223244 19.64321327 C162.41465774 19.68717791 151.45903177 19.79610709 140.50245094 19.94800758 C129.22130412 20.10424439 117.94071236 20.22447888 106.65870094 20.2966404 C105.96237121 20.3011067 105.26604148 20.30557299 104.54861085 20.31017464 C101.055048 20.33236156 97.56148124 20.35384429 94.06791186 20.37497699 C65.12140349 20.5509851 36.17696644 20.85147455 7.23243141 21.23047829 Z " fill="#FFFFFF" transform="translate(131.76756858825684,32.769521713256836)"/>
</svg>
