<?xml version="1.0" encoding="UTF-8"?>
<svg version="1.1" xmlns="http://www.w3.org/2000/svg" width="512" height="512">
<path d="M0 0 C1.74893555 0.40412109 1.74893555 0.40412109 3.53320312 0.81640625 C4.58725342 1.06664551 5.64130371 1.31688477 6.72729492 1.57470703 C11.40472398 2.24989667 14.67674455 1.065276 18.83398438 -0.94140625 C32.68637683 -6.57732747 49.03288491 -6.1667683 62.83398438 -0.81640625 C72.68570238 3.68311343 81.2796854 9.03879204 87.64648438 17.99609375 C87.64648438 18.65609375 87.64648438 19.31609375 87.64648438 19.99609375 C88.48457642 20.16214111 88.48457642 20.16214111 89.33959961 20.33154297 C91.92127254 20.84366758 94.50262861 21.35737298 97.08398438 21.87109375 C97.96248047 22.04511719 98.84097656 22.21914063 99.74609375 22.3984375 C100.61943359 22.57246094 101.49277344 22.74648438 102.39257812 22.92578125 C103.27284668 23.10077148 104.15311523 23.27576172 105.06005859 23.45605469 C108.15000109 24.10122675 111.21085216 24.84708141 114.26782227 25.63330078 C122.27964423 26.85526193 129.46026321 25.16128792 137.25366211 23.36572266 C138.49858429 23.0860817 139.74350647 22.80644073 141.02615356 22.51832581 C144.42256908 21.75520537 147.81651485 20.98158852 151.2101047 20.2060132 C154.77458213 19.39330728 158.34127075 18.59042339 161.9077301 17.78646851 C168.66275717 16.26219641 175.41578089 14.72923582 182.16811472 13.19308221 C189.82183729 11.45228981 197.47769387 9.72097848 205.13377082 7.99057508 C214.47793626 5.87855652 223.8217749 3.76511203 233.16392517 1.64419556 C233.8256256 1.49397501 234.48732603 1.34375446 235.16907799 1.18898177 C238.25582368 0.48812933 241.34248886 -0.21307562 244.42906189 -0.91468811 C246.55626109 -1.39792284 248.68432694 -1.87736522 250.81341362 -2.35221481 C252.58802875 -2.76042964 254.35735626 -3.19326375 256.11696053 -3.66197586 C266.10834119 -6.24475654 275.48207804 -3.29790905 285.34863281 -1.09228516 C286.71120422 -0.79120892 288.07386238 -0.49052504 289.43659973 -0.19020081 C293.11294077 0.62140998 296.78789711 1.43912564 300.46251583 2.25849485 C303.53645954 2.94347601 306.61099656 3.62577394 309.68550992 4.30819285 C316.93736054 5.91800402 324.18800985 7.53314727 331.43798828 9.15136719 C338.90988802 10.81899609 346.38401211 12.47636975 353.85925078 14.12896097 C360.28976838 15.55103995 366.71872089 16.98004492 373.14649415 18.41447699 C376.98032233 19.26992855 380.81471293 20.12261845 384.65068817 20.96839523 C388.25419648 21.76318087 391.85567564 22.56658482 395.45578575 23.37661934 C397.4036022 23.8126307 399.35339701 24.23977444 401.30323792 24.66664124 C402.46667221 24.93015884 403.63010651 25.19367645 404.82879639 25.46517944 C405.83753185 25.68971991 406.84626732 25.91426037 407.88557053 26.14560509 C410.84489743 27.05721411 413.10810274 28.23066464 415.64648438 29.99609375 C417.09041523 32.88395547 416.77603531 35.37432904 416.78070545 38.60290337 C416.78305768 39.29286913 416.78540991 39.9828349 416.78783342 40.69370872 C416.79454327 43.02880269 416.79406461 45.36384127 416.7936554 47.69894409 C416.79695278 49.38073885 416.80067807 51.06253281 416.80479687 52.74432576 C416.81483911 57.38392791 416.81853722 62.02351713 416.82118618 66.66312861 C416.82508259 71.65981394 416.83466128 76.65648896 416.84339905 81.65316772 C416.86318091 93.72809459 416.87323125 105.80302232 416.88212684 117.87796134 C416.88650639 123.5587591 416.89187401 129.23955592 416.89711571 134.92035294 C416.91412871 153.79453017 416.92862453 172.66870682 416.93586445 191.54289055 C416.93777446 196.44314449 416.93969478 201.34339842 416.94165039 206.24365234 C416.94213413 207.46164293 416.94261787 208.67963351 416.94311627 209.9345329 C416.95142274 229.68050424 416.97676974 249.42641513 417.00923107 269.17236005 C417.04225799 289.42678617 417.0603092 309.68118153 417.06350869 329.93563473 C417.0656777 341.31525045 417.07448348 352.69477797 417.09996986 364.07436752 C417.12161718 373.76240422 417.12975678 383.45033131 417.12000308 393.13838945 C417.11544117 398.08468543 417.11745383 403.03075497 417.13676453 407.97702026 C417.15427451 412.50094701 417.1534984 417.02448009 417.13786723 421.54841031 C417.13547254 423.18906161 417.13991009 424.8297393 417.15169588 426.47035001 C417.16668154 428.69325267 417.15723716 430.91473617 417.141469 433.13760185 C417.14244581 434.37440598 417.14342262 435.61121011 417.14442903 436.88549316 C416.55307782 440.57959332 415.57946682 441.75096316 412.64648438 443.99609375 C402.89739634 446.60165355 390.14622059 441.69198277 380.61914062 439.46484375 C378.54658706 438.98968852 376.47378172 438.51563034 374.40074158 438.04260254 C368.93940111 436.79351879 363.48139966 435.53041921 358.02404785 434.26403809 C352.60244918 433.00810859 347.17814313 431.76400801 341.75390625 430.51953125 C339.61761745 430.02908528 337.48133609 429.53860688 335.34506226 429.0480957 C334.29496349 428.8070108 333.24486473 428.5659259 332.16294479 428.3175354 C327.9685023 427.35431375 323.77426764 426.39018892 319.58003807 425.42604065 C315.56391335 424.50305828 311.5475612 423.5810674 307.53122711 422.65899658 C304.71297459 422.01137295 301.89512448 421.3620223 299.07733154 420.71240234 C294.83434937 419.7351293 290.58941563 418.76683692 286.34274101 417.80574036 C284.81707246 417.45902999 283.29207595 417.1093462 281.76783943 416.75639343 C279.69454625 416.27675641 277.619083 415.80795723 275.54272461 415.34179688 C274.39505112 415.07983521 273.24737762 414.81787354 272.06492615 414.54797363 C265.3018679 413.45613237 259.44197408 413.99978721 252.82080078 415.56567383 C252.07971541 415.73351789 251.33863005 415.90136194 250.57508755 416.07429218 C248.13080688 416.62995565 245.68951861 417.19775832 243.24804688 417.765625 C241.51120305 418.16289188 239.77417377 418.55934869 238.03697205 418.95504761 C234.35395569 419.7954798 230.67216214 420.64100688 226.99124146 421.49057007 C221.25880992 422.81312869 215.52319956 424.12148941 209.78686523 425.42700195 C202.21467904 427.15122962 194.64320216 428.87850837 187.07275391 430.61035156 C185.72584016 430.91845434 185.72584016 430.91845434 184.35171604 431.23278141 C180.28371185 432.1634755 176.2158215 433.09466344 172.14813232 434.0267334 C164.86724 435.69462176 157.58423199 437.35231961 150.2958374 438.9871521 C148.26341552 439.44569782 146.23216085 439.90945308 144.20220947 440.3788147 C141.43764828 441.0179224 138.66974953 441.63988053 135.90039062 442.2578125 C135.14048325 442.43811005 134.38057587 442.61840759 133.59764099 442.8041687 C122.8999302 445.13647288 112.4997235 444.18071539 101.93481445 441.70458984 C100.84326553 441.46063477 99.75171661 441.21667969 98.62709045 440.96533203 C95.05361208 440.1632386 91.48495009 439.34158501 87.91601562 438.51953125 C85.39640421 437.94977978 82.87651637 437.38124948 80.35636902 436.81387329 C74.40717265 435.47135228 68.46092574 434.11644317 62.51594418 432.75539744 C55.84793372 431.22956935 49.1762716 429.72003334 42.50427401 428.21175265 C18.25400762 422.7284365 18.25400762 422.7284365 7.69521809 420.29213524 C1.89286084 418.95437912 -3.91453903 417.65516603 -9.73794556 416.41192627 C-10.9358714 416.15056192 -12.13379725 415.88919758 -13.36802387 415.6199131 C-15.65701798 415.12101339 -17.94871004 414.63428677 -20.24326611 414.16162682 C-21.26463822 413.93625048 -22.28601034 413.71087414 -23.33833313 413.47866821 C-24.23712346 413.28817713 -25.13591379 413.09768604 -26.06194019 412.9014225 C-28.99987008 411.74073961 -29.76629053 410.72322802 -31.35351562 407.99609375 C-31.72956312 404.88779449 -31.72956312 404.88779449 -31.73103905 401.14318848 C-31.73539937 400.45091502 -31.73975969 399.75864157 -31.74425215 399.04539013 C-31.75524317 396.71430787 -31.74476886 394.3838128 -31.73446655 392.05273438 C-31.7379216 390.36921128 -31.74268514 388.68569045 -31.74864829 387.00217438 C-31.76120894 382.36703088 -31.75496495 377.73207193 -31.74568963 373.09692764 C-31.73892016 368.10163349 -31.7493699 363.10637176 -31.75762939 358.11108398 C-31.77099143 348.32178391 -31.768078 338.53255271 -31.75939147 328.74324989 C-31.75262504 320.78952086 -31.75169369 312.83581117 -31.75496292 304.88208008 C-31.75542262 303.75142954 -31.75588232 302.62077901 -31.75635595 301.45586634 C-31.75731509 299.15919939 -31.75828773 296.86253245 -31.75927372 294.56586552 C-31.76783485 273.01396317 -31.75798215 251.46209906 -31.74187262 229.91020298 C-31.72846879 211.40495991 -31.73079668 192.8997733 -31.74462891 174.39453125 C-31.76067196 152.9214154 -31.76701081 131.4483331 -31.75779212 109.9752121 C-31.75683644 107.68684388 -31.75589332 105.39847565 -31.75496292 103.11010742 C-31.75450009 101.98409323 -31.75403727 100.85807904 -31.75356042 99.69794321 C-31.7509667 91.75085046 -31.75534974 83.80377892 -31.76240158 75.85668945 C-31.77080263 66.17602305 -31.76856589 56.49542966 -31.75255935 46.81477165 C-31.7446578 41.87255712 -31.74161701 36.93046445 -31.75150681 31.98825073 C-31.76041533 27.46814908 -31.75558463 22.94828279 -31.73957415 18.42820263 C-31.73620998 16.78896411 -31.73795688 15.14970589 -31.74520151 13.51047993 C-31.75426701 11.28969984 -31.74502648 9.06973583 -31.73103905 6.84899902 C-31.73055199 5.61327904 -31.73006493 4.37755905 -31.72956312 3.10439301 C-31.32180183 -0.26604327 -30.755357 -1.64495314 -28.35351562 -4.00390625 C-19.86963065 -6.83186791 -8.37409885 -2.00764224 0 0 Z M11.20898438 23.80859375 C3.55812393 32.11296519 0.7682197 40.62585575 1.13085938 51.828125 C1.69310409 58.4962855 5.03564836 63.94761675 8.30273438 69.63183594 C9.78677455 72.24292697 11.20415051 74.88394675 12.61523438 77.53515625 C18.67700116 88.90166905 24.93574613 100.15315365 31.33276367 111.33422852 C34.27099806 116.48465972 37.04943619 121.66498285 39.64648438 126.99609375 C40.30648437 126.99609375 40.96648437 126.99609375 41.64648438 126.99609375 C41.96697754 126.33416016 42.2874707 125.67222656 42.61767578 124.99023438 C51.62200358 106.47833017 61.34451858 88.55956606 72.31323242 71.12280273 C79.122706 60.27096766 81.75764611 51.22819095 79.06054688 38.15625 C75.98099669 29.21425337 68.87564358 21.5493899 60.67382812 16.953125 C44.03430891 9.09824599 24.95696066 10.9102115 11.20898438 23.80859375 Z M-15.35351562 14.99609375 C-15.35351562 22.58609375 -15.35351562 30.17609375 -15.35351562 37.99609375 C-13.22065497 33.73037244 -11.45257016 29.38904717 -9.66992188 24.96875 C-8.42141732 22.14942666 -6.9983833 19.60006794 -5.35351562 16.99609375 C-8.97324965 15.67982683 -11.44918693 14.99609375 -15.35351562 14.99609375 Z M248.93945312 15.41723633 C248.23865631 15.56847458 247.5378595 15.71971283 246.81582642 15.87553406 C240.35902547 17.27137271 233.90562583 18.68288504 227.45326233 20.09908009 C223.11332666 21.05147763 218.7724042 21.99871323 214.42871094 22.93383789 C210.23638938 23.83648711 206.04705095 24.7519055 201.85952759 25.67654991 C200.25927657 26.02757559 198.65800604 26.37398538 197.05575562 26.71576881 C194.81877872 27.19385961 192.58601026 27.68822833 190.35351562 28.18676758 C189.07968018 28.46434402 187.80584473 28.74192047 186.4934082 29.02790833 C185.55392334 29.34740952 184.61443848 29.66691071 183.64648438 29.99609375 C182.30259009 32.95575584 182.30259009 32.95575584 183.69335938 35.640625 C192.33446257 51.7138697 203.47887986 64.76203801 218.64648438 74.99609375 C219.48179687 75.56070313 220.31710937 76.1253125 221.17773438 76.70703125 C230.34075883 82.44739657 245.79163154 91.99609375 256.64648438 91.99609375 C256.64648438 66.25609375 256.64648438 40.51609375 256.64648438 13.99609375 C254.11492257 13.99609375 251.38199704 14.88956782 248.93945312 15.41723633 Z M272.64648438 14.99609375 C272.27480925 26.16562649 271.99101805 37.3336768 271.81748962 48.50814629 C271.73417201 53.69809048 271.62133052 58.88378927 271.43945312 64.07128906 C271.26482375 69.08377357 271.16979604 74.0921943 271.12844849 79.10748672 C271.09901346 81.01455845 271.04151642 82.92142119 270.95480347 84.82674789 C270.21033671 94.90648707 270.21033671 94.90648707 274.17745972 103.73258209 C277.97854752 106.82933222 282.15839676 108.91167286 286.59194946 110.94827652 C289.98105706 112.67672869 292.88357828 114.98859577 295.83398438 117.37109375 C296.43279419 117.85330446 297.031604 118.33551517 297.64855957 118.83233833 C307.74212238 127.03282172 316.69229731 135.67287985 324.64648438 145.99609375 C325.4225 146.93324219 326.19851563 147.87039062 326.99804688 148.8359375 C338.24971004 162.71298874 346.47738317 178.45821534 353.0859375 195.00537109 C355.81195046 201.68027013 359.28752132 207.26116106 363.64648438 212.99609375 C364.35933594 213.93582031 365.0721875 214.87554687 365.80664062 215.84375 C374.51042222 225.97731091 386.01325781 232.77795267 398.64648438 236.99609375 C399.30648437 236.99609375 399.96648437 236.99609375 400.64648438 236.99609375 C400.64648438 172.97609375 400.64648438 108.95609375 400.64648438 42.99609375 C391.39289075 40.68269534 382.18090468 38.38198296 372.87182617 36.33886719 C371.28084106 35.98686249 371.28084106 35.98686249 369.65771484 35.62774658 C366.2208796 34.86802527 362.78333485 34.11157724 359.34570312 33.35546875 C356.93192737 32.82320639 354.51817555 32.29083552 352.10444641 31.75836182 C347.08144044 30.65085763 342.05806201 29.54506246 337.03442383 28.44042969 C330.58858105 27.02286475 324.1438458 25.60033212 317.69938946 24.17647934 C312.73206155 23.0796636 307.76409692 21.98575486 302.79593849 20.89270782 C300.41740293 20.36897276 298.03908409 19.84425247 295.66098595 19.31853485 C292.354315 18.58792951 289.04679288 17.86131087 285.73901367 17.13574219 C284.26405174 16.80854187 284.26405174 16.80854187 282.7592926 16.47473145 C281.86114838 16.27857239 280.96300415 16.08241333 280.03764343 15.88031006 C279.25738643 15.70852108 278.47712942 15.5367321 277.67322826 15.3597374 C275.49752798 14.90779251 275.49752798 14.90779251 272.64648438 14.99609375 Z M155.42382812 36.4921875 C154.72254288 36.64518814 154.02125763 36.79818878 153.29872131 36.95582581 C151.81819809 37.27965453 150.33801576 37.60504518 148.8581543 37.93188477 C146.58996481 38.4322744 144.32048336 38.92644423 142.05078125 39.41992188 C140.61254873 39.73530574 139.17439491 40.05104876 137.73632812 40.3671875 C137.05610092 40.51514267 136.37587372 40.66309784 135.67503357 40.8155365 C132.06176237 41.6106673 132.06176237 41.6106673 128.64648438 42.99609375 C128.64648438 59.16609375 128.64648438 75.33609375 128.64648438 91.99609375 C138.54648438 93.97609375 138.54648438 93.97609375 148.64648438 95.99609375 C161.99221353 100.36797054 169.02306437 104.61846896 175.64648438 116.99609375 C185.49067327 135.14120202 197.96086742 142.26643735 216.70898438 149.68359375 C226.31973407 153.50236304 233.10964844 158.01070947 238.64648438 166.99609375 C240.87877014 173.69295103 240.79863926 182.25397833 238.08398438 188.80859375 C237.32094052 190.23206522 236.50640965 191.62896703 235.64648438 192.99609375 C235.1953125 193.73214844 234.74414062 194.46820313 234.27929688 195.2265625 C227.055574 205.66681869 215.43110547 211.98397309 203.64648438 215.99609375 C202.77378906 216.31449219 201.90109375 216.63289062 201.00195312 216.9609375 C185.92636296 221.64105634 167.95747468 220.6996526 153.88867188 213.60546875 C142.47885627 207.13423005 134.24520622 198.43969404 129.64648438 185.99609375 C129.31648437 185.99609375 128.98648438 185.99609375 128.64648438 185.99609375 C128.64648438 204.47609375 128.64648438 222.95609375 128.64648438 241.99609375 C136.55636528 243.97356398 143.25413944 245.50131669 151.19335938 246.16796875 C155.16030889 246.57403445 157.83507235 247.0669625 160.64648438 249.99609375 C161.53910721 253.50282633 162.01680051 255.91363121 160.83398438 259.37109375 C159.64648438 260.99609375 159.64648438 260.99609375 157.64648438 261.99609375 C147.87338303 262.73465853 138.37169709 261.14023642 128.64648438 259.99609375 C128.64648438 286.72609375 128.64648438 313.45609375 128.64648438 340.99609375 C144.198439 341.22715082 144.198439 341.22715082 159.64648438 339.99609375 C176.90252315 338.62326064 192.49730706 341.78060187 206.14648438 353.0625 C218.54943832 364.77407307 224.35164922 379.04136681 225.20898438 395.80859375 C225.25216797 396.59685547 225.29535156 397.38511719 225.33984375 398.19726562 C225.44526758 400.1300359 225.54631531 402.06304401 225.64648438 403.99609375 C229.68942403 403.2108391 233.73058162 402.41675823 237.77148438 401.62109375 C238.91359375 401.399375 240.05570312 401.17765625 241.23242188 400.94921875 C242.34101563 400.73007812 243.44960938 400.5109375 244.59179688 400.28515625 C245.60773926 400.08615723 246.62368164 399.8871582 247.67041016 399.68212891 C250.71371531 398.98059589 253.6836362 397.98370981 256.64648438 396.99609375 C256.64648438 349.14609375 256.64648438 301.29609375 256.64648438 251.99609375 C252.68648438 251.66609375 248.72648437 251.33609375 244.64648438 250.99609375 C241.64648438 247.99609375 241.64648438 247.99609375 241.24804688 246.05859375 C241.25578125 245.37796875 241.26351562 244.69734375 241.27148438 243.99609375 C241.25988281 242.97515625 241.25988281 242.97515625 241.24804688 241.93359375 C241.64648438 239.99609375 241.64648438 239.99609375 244.64648438 236.99609375 C248.60648437 236.66609375 252.56648438 236.33609375 256.64648438 235.99609375 C256.64648438 195.07609375 256.64648438 154.15609375 256.64648438 111.99609375 C242.34509784 105.14380275 242.34509784 105.14380275 227.83398438 98.99609375 C198.38644751 86.9184064 178.17025585 63.74841798 165.64648438 34.99609375 C162.10004411 34.99609375 158.86591201 35.73099697 155.42382812 36.4921875 Z M96.64648438 39.99609375 C96.60910156 41.17945313 96.57171875 42.3628125 96.53320312 43.58203125 C95.77976174 63.39397185 88.42097036 76.53324263 78.27148438 93.24609375 C68.33654349 109.65239795 59.70750648 126.65976507 51.54638672 144.00195312 C51.23503784 144.65798019 50.92368896 145.31400726 50.60290527 145.98991394 C49.75061978 147.78639666 48.90512751 149.58609765 48.06005859 151.38598633 C46.64648438 153.99609375 46.64648438 153.99609375 44.64648438 154.99609375 C37.21180755 155.46813672 37.21180755 155.46813672 35.17871094 153.77050781 C33.41033766 151.7226211 32.3425595 149.71030391 31.15820312 147.27734375 C30.69865234 146.3440625 30.23910156 145.41078125 29.765625 144.44921875 C29.05696289 142.98742187 29.05696289 142.98742187 28.33398438 141.49609375 C25.07766606 134.82861122 21.74106049 128.23681123 18.15795898 121.73828125 C16.64576178 118.99478278 15.15676766 116.23987794 13.67382812 113.48046875 C6.96791994 101.02039408 6.96791994 101.02039408 0.05273438 88.67578125 C-0.52855225 87.6590332 -1.10983887 86.64228516 -1.70874023 85.59472656 C-2.81300121 83.67138913 -3.92282592 81.75123075 -5.03930664 79.83496094 C-7.96307954 74.74634206 -10.43152787 69.69925889 -12.49194336 64.20068359 C-13.32097246 62.07936514 -14.33495967 60.03320567 -15.35351562 57.99609375 C-15.35351562 119.37609375 -15.35351562 180.75609375 -15.35351562 243.99609375 C-9.41351563 245.31609375 -3.47351562 246.63609375 2.64648438 247.99609375 C6.84954058 249.54673585 10.66654393 251.04313299 14.64648438 252.99609375 C16.04447266 253.67478516 16.04447266 253.67478516 17.47070312 254.3671875 C24.20228541 257.8315583 29.87401453 262.12988197 35.64648438 266.99609375 C36.90332031 267.95515625 36.90332031 267.95515625 38.18554688 268.93359375 C40.73121085 271.06710261 42.60910696 273.25274543 44.64648438 275.87109375 C48.86849773 281.14508033 53.3618504 286.08628155 57.98608398 291.00878906 C60.79168539 293.99671134 63.55316546 296.99774681 66.20898438 300.12109375 C77.64850612 313.27093615 94.96142343 332.04351805 112.64648438 335.99609375 C112.76326626 312.50031134 112.85144744 289.00457241 112.90554523 265.50855827 C112.93133102 254.59903133 112.96648885 243.68968467 113.02368164 232.78027344 C113.07350497 223.27204428 113.10577266 213.76394568 113.11692685 204.2555896 C113.12344739 199.22054071 113.13878047 194.18586535 113.17513466 189.15093613 C113.20907711 184.41161868 113.21954084 179.67282856 113.21202278 174.93340111 C113.21339811 173.19433031 113.22334116 171.45524184 113.24251175 169.71627617 C113.2674238 167.33989807 113.26139806 164.9655057 113.24775696 162.58908081 C113.26232117 161.90229622 113.27688537 161.21551162 113.29189092 160.50791538 C113.20622211 154.97945646 111.38545841 152.76874713 107.64648438 148.99609375 C105.85886103 147.62198672 104.02455231 146.30624281 102.14648438 145.05859375 C95.51230255 140.3709148 91.86881862 135.94668611 89.64648438 127.99609375 C88.66788503 118.72515257 88.93862868 110.63434347 94.64648438 102.99609375 C99.89226605 96.97100527 104.97179439 95.06596974 112.64648438 91.99609375 C112.64648438 75.82609375 112.64648438 59.65609375 112.64648438 42.99609375 C102.7428069 39.77682925 102.7428069 39.77682925 96.64648438 39.99609375 Z M128.64648438 108.99609375 C128.44653011 114.45446072 128.30254843 119.91063132 128.20703125 125.37182617 C128.1671597 127.2234415 128.11283856 129.07481096 128.04296875 130.92553711 C127.56074517 144.04130926 128.71549972 151.2631845 136.64648438 161.99609375 C138.22506991 165.00899173 139.53554368 168.10408716 140.83398438 171.24609375 C141.49785018 172.78766752 142.16448842 174.32805051 142.83398438 175.8671875 C143.14464844 176.58245605 143.4553125 177.29772461 143.77539062 178.03466797 C146.54766791 184.27695376 149.41620286 189.49561896 154.64648438 193.99609375 C155.20980469 194.48851562 155.773125 194.9809375 156.35351562 195.48828125 C163.9959466 201.74542433 172.44703724 204.77300083 182.34570312 204.375 C197.77265625 202.60409532 210.7206062 197.46311491 220.89648438 185.30859375 C222.98042588 182.5548139 223.60273998 181.24397865 224.20898438 177.80859375 C223.48454428 172.89849977 221.82217526 171.79910274 218.1315918 168.72436523 C213.77217566 165.6926031 208.96799615 163.97603567 204.02148438 162.12109375 C184.21706991 154.26730788 170.2371679 144.58378555 161.27148438 124.74609375 C158.04298032 118.28908563 154.05536258 115.23315457 147.29882812 112.78125 C142.36777613 111.29929748 137.5379689 110.06098005 132.42382812 109.44848633 C131.17730469 109.29919678 129.93078125 109.14990723 128.64648438 108.99609375 Z M109.14648438 112.37109375 C105.77517064 115.91097317 105.2511586 117.96146255 105.28710938 122.88671875 C105.92479034 126.62962874 107.939443 128.41795911 110.64648438 130.99609375 C111.30648437 130.99609375 111.96648437 130.99609375 112.64648438 130.99609375 C112.64648438 124.06609375 112.64648438 117.13609375 112.64648438 109.99609375 C111.19260452 109.88130217 111.19260452 109.88130217 109.14648438 112.37109375 Z M272.64648438 121.99609375 C272.64648438 159.94609375 272.64648438 197.89609375 272.64648438 236.99609375 C276.27648437 237.65609375 279.90648437 238.31609375 283.64648438 238.99609375 C286.89648438 241.18359375 286.89648438 241.18359375 288.64648438 243.99609375 C288.70898438 247.62109375 288.70898438 247.62109375 287.64648438 250.99609375 C283.64648438 253.99609375 283.64648438 253.99609375 272.64648438 253.99609375 C272.64648438 301.18609375 272.64648438 348.37609375 272.64648438 396.99609375 C281.86338451 399.30031878 291.04509045 401.59565217 300.31347656 403.65332031 C301.88742187 404.00532501 301.88742187 404.00532501 303.49316406 404.36444092 C306.89274472 405.1240576 310.29299886 405.88060132 313.69335938 406.63671875 C316.08230919 407.16902735 318.47124531 407.7013974 320.86016846 408.23382568 C325.83190319 409.34129882 330.80401603 410.44705582 335.77636719 411.55175781 C342.15276104 412.96868871 348.52783129 414.39148319 354.90259933 415.81570816 C359.81919741 416.91321528 364.7366411 418.00689434 369.65433502 419.09947968 C372.0070141 419.62282191 374.35938789 420.14753856 376.71144867 420.67365265 C379.9841651 421.40526105 383.25802191 422.13153081 386.53222656 422.85644531 C387.5025885 423.07457886 388.47295044 423.2927124 389.47271729 423.51745605 C390.80937439 423.81169464 390.80937439 423.81169464 392.17303467 424.11187744 C393.33097597 424.36956091 393.33097597 424.36956091 394.51231003 424.6324501 C396.94285688 425.10807368 396.94285688 425.10807368 400.64648438 424.99609375 C400.64648438 368.89609375 400.64648438 312.79609375 400.64648438 254.99609375 C395.07804228 252.9004156 395.07804228 252.9004156 389.47851562 250.890625 C369.46093205 243.71744175 351.39060773 229.18223428 341.64648438 209.99609375 C339.49926391 205.29349582 337.49981414 200.52781644 335.48339844 195.76806641 C329.96217442 182.85107714 323.32524323 171.07248638 314.64648438 159.99609375 C313.98390625 159.12984375 313.32132812 158.26359375 312.63867188 157.37109375 C302.78797826 144.86689226 288.21127862 127.1843585 272.64648438 121.99609375 Z M-15.35351562 260.99609375 C-15.35351562 305.87609375 -15.35351562 350.75609375 -15.35351562 396.99609375 C-6.13661549 399.30031878 3.04509045 401.59565217 12.31347656 403.65332031 C13.88742188 404.00532501 13.88742188 404.00532501 15.49316406 404.36444092 C18.89274472 405.1240576 22.29299886 405.88060132 25.69335938 406.63671875 C28.08230919 407.16902735 30.47124531 407.7013974 32.86016846 408.23382568 C37.83190319 409.34129882 42.80401603 410.44705582 47.77636719 411.55175781 C54.15276104 412.96868871 60.52783129 414.39148319 66.90259933 415.81570816 C71.81919741 416.91321528 76.7366411 418.00689434 81.65433502 419.09947968 C84.0070141 419.62282191 86.35938789 420.14753856 88.71144867 420.67365265 C91.9841651 421.40526105 95.25802191 422.13153081 98.53222656 422.85644531 C99.98776947 423.18364563 99.98776947 423.18364563 101.47271729 423.51745605 C102.80937439 423.81169464 102.80937439 423.81169464 104.17303467 424.11187744 C104.94499554 424.28366642 105.71695641 424.4554554 106.51231003 424.6324501 C108.94285688 425.10807368 108.94285688 425.10807368 112.64648438 424.99609375 C112.64648438 401.56609375 112.64648438 378.13609375 112.64648438 353.99609375 C108.68648438 352.34609375 104.72648437 350.69609375 100.64648438 348.99609375 C83.10162356 340.22366334 69.58938608 326.9965994 55.83398438 313.30859375 C55.033396 312.51275879 54.23280762 311.71692383 53.40795898 310.89697266 C47.53008394 305.00256437 42.0207806 298.88788645 36.72460938 292.46875 C22.81940864 275.62159846 6.82753101 263.76872458 -15.35351562 260.99609375 Z M155.64648438 356.99609375 C142.28148437 357.49109375 142.28148437 357.49109375 128.64648438 357.99609375 C128.64648438 380.10609375 128.64648438 402.21609375 128.64648438 424.99609375 C134.43748914 424.35264878 139.58663393 423.68589877 145.18579102 422.41381836 C145.87960876 422.2576152 146.57342651 422.10141205 147.28826904 421.94047546 C149.54547229 421.43110265 151.80103837 420.91484913 154.05664062 420.3984375 C155.63551781 420.04071339 157.21449393 419.68342572 158.79356384 419.32655334 C162.9224938 418.39218966 167.05006432 417.45195381 171.17736816 416.51043701 C175.39998355 415.5482899 179.62387381 414.59177385 183.84765625 413.63476562 C192.11518151 411.76067866 200.38127739 409.88037848 208.64648438 407.99609375 C208.82358157 406.07587834 208.99582551 404.15521491 209.16601562 402.234375 C209.31067261 400.63009644 209.31067261 400.63009644 209.45825195 398.9934082 C210.12928831 388.30817695 205.93658728 378.42776865 199.64648438 369.99609375 C193.4134059 362.92801797 185.01641266 357.71096742 175.64648438 355.99609375 C173.54398073 355.90264914 171.43855773 355.86614763 169.33398438 355.87109375 C168.24472656 355.86851562 167.15546875 355.8659375 166.03320312 355.86328125 C162.55310793 355.99975557 159.09425091 356.50355567 155.64648438 356.99609375 Z " fill="#F6EB00" transform="translate(63.353515625,36.00390625)"/>
<path d="M0 0 C3.02153311 2.00183277 5.4885271 4.39942828 8 7 C8.57105469 7.57105469 9.14210938 8.14210938 9.73046875 8.73046875 C10.14941406 9.14941406 10.56835938 9.56835938 11 10 C14.18559952 8.60366893 16.23943845 6.95442507 18.625 4.4375 C21.84717357 1.05351422 23.02732128 0.07844183 27.875 -0.3125 C30.94854744 -0.26787499 31.81993736 -0.12465875 34.4375 1.6875 C36.22849814 4.33817724 36.92366259 5.79382862 37 9 C35.00874264 14.97377208 30.48521803 18.80243253 26 23 C27.37683815 26.15984356 28.93446617 28.03504518 31.5 30.3125 C34.88159121 33.62334663 36.4723939 36.16361076 37 41 C36.0625 44.3125 36.0625 44.3125 34 47 C30.19722819 48.79376029 28.11753308 49.3328822 24.0625 48.125 C19.87336983 45.21825662 16.47539812 41.71355992 13 38 C9.84015644 39.37683815 7.96495482 40.93446617 5.6875 43.5 C2.37665337 46.88159121 -0.16361076 48.4723939 -5 49 C-8.3125 48.0625 -8.3125 48.0625 -11 46 C-12.79376029 42.19722819 -13.3328822 40.11753308 -12.125 36.0625 C-9.21825662 31.87336983 -5.71355992 28.47539812 -2 25 C-3.37683815 21.84015644 -4.93446617 19.96495482 -7.5 17.6875 C-10.88159121 14.37665337 -12.4723939 11.83638924 -13 7 C-10.54751366 0.37828689 -7.01258426 -1.53515417 0 0 Z " fill="#F6EB00" transform="translate(412,376)"/>
<path d="M0 0 C5.82485779 3.51996782 10.54466582 8.98962934 12.5625 15.5 C13.36764105 23.33608208 13.68710392 31.11922577 8.5625 37.5 C3.75801361 42.54521222 -0.59927055 46.10562995 -7.70703125 46.8359375 C-16.22326573 46.92983204 -22.11345494 46.6177288 -28.40234375 40.62890625 C-34.7841668 33.72505269 -35.91792252 28.29832071 -35.7421875 18.9453125 C-35.04689797 11.08319245 -31.38995981 6.95041296 -25.53515625 1.9453125 C-18.47077988 -2.92213491 -7.84396301 -3.47595223 0 0 Z M-16.8125 17.125 C-18.92456506 20.21186432 -19.04945145 21.8282913 -18.4375 25.5 C-16.9375 28 -16.9375 28 -14.4375 29.5 C-10.7657913 30.11195145 -9.14936432 29.98706506 -6.0625 27.875 C-3.95043494 24.78813568 -3.82554855 23.1717087 -4.4375 19.5 C-5.9375 17 -5.9375 17 -8.4375 15.5 C-12.1092087 14.88804855 -13.72563568 15.01293494 -16.8125 17.125 Z " fill="#F6EB00" transform="translate(115.4375,65.5)"/>
<path d="M0 0 C1.77483667 2.95806112 2.00700002 5.45300046 2.125 8.875 C1.1875 11.625 1.1875 11.625 -0.875 13.875 C-12.28242364 18.73443357 -30.55866563 24.98626914 -42.875 21.875 C-45.232914 20.02351083 -46.62855336 18.80279911 -47.40625 15.875 C-47.3959375 15.215 -47.385625 14.555 -47.375 13.875 C-47.39046875 12.885 -47.39046875 12.885 -47.40625 11.875 C-46.63323447 8.9648239 -45.15576433 7.81101987 -42.875 5.875 C-40.16113281 4.90185547 -40.16113281 4.90185547 -37.078125 4.2421875 C-35.39203125 3.86900391 -35.39203125 3.86900391 -33.671875 3.48828125 C-32.50140625 3.24464844 -31.3309375 3.00101562 -30.125 2.75 C-27.81761287 2.24783427 -25.51031895 1.74524006 -23.203125 1.2421875 C-22.11088623 1.01007568 -21.01864746 0.77796387 -19.89331055 0.53881836 C-17.33715739 -0.02335752 -14.81413828 -0.6450701 -12.28515625 -1.31640625 C-7.82261252 -2.37453518 -4.0179673 -2.41078038 0 0 Z " fill="#F6EB00" transform="translate(286.875,276.125)"/>
<path d="M0 0 C2.33118593 1.62355544 4.41730272 3.22646261 6.5625 5.0625 C12.22921431 9.73180554 18.01404282 13.65305574 24.35546875 17.34375 C26.63907253 18.77395385 28.37459867 19.86734255 30 22 C30.75 28.75 30.75 28.75 28.5 32.5 C24.88947353 34.66631588 22.01864177 34.85676627 18 34 C10.83509856 31.22724139 4.69583137 26.47216159 -1.4375 21.9375 C-2.12392578 21.4312207 -2.81035156 20.92494141 -3.51757812 20.40332031 C-12.57843069 13.52941588 -12.57843069 13.52941588 -13.5 8 C-12.88087611 4.28525663 -11.6428646 2.6428646 -9 0 C-5.34691737 -1.21769421 -3.70945246 -1.01166885 0 0 Z " fill="#F6EB00" transform="translate(134,248)"/>
<path d="M0 0 C2.41540923 1.07605909 4.50976856 2.14243536 6.75 3.5 C7.35835693 3.85803711 7.96671387 4.21607422 8.59350586 4.58496094 C14.12445199 7.91764523 19.0876905 11.8170674 24 16 C24.88816406 16.69996094 25.77632813 17.39992188 26.69140625 18.12109375 C29.09957523 20.08104177 30.15238878 21.03336073 31 24 C30.67813268 30.11547912 30.67813268 30.11547912 28.5625 32.875 C25.28675954 35.23353313 23.01853001 35.45871448 19 35 C16.60740173 33.40688683 14.58557708 31.87028479 12.4375 30 C6.77296813 25.2898393 1.00670911 21.35902183 -5.35546875 17.65625 C-8.90918587 15.43058374 -10.64545169 14.16494445 -11.875 10.125 C-12.02524355 6.36891137 -11.28344384 4.93585637 -9 2 C-5.45234891 -0.36510072 -4.18272114 -0.44454041 0 0 Z " fill="#F6EB00" transform="translate(377,285)"/>
<path d="M0 0 C3.35954403 0.95226512 4.32524468 2.74246521 6.21875 5.62890625 C7.4059198 8.10943765 8.47176013 10.51543473 9.46875 13.06640625 C9.736875 13.70900391 10.005 14.35160156 10.28125 15.01367188 C11.87731842 19.02420093 12.6606674 22.32176768 12.21875 26.62890625 C10.39022716 29.67644432 9.16895052 31.2538271 5.84375 32.56640625 C2.49811943 32.64606412 0.26192032 32.01817966 -2.78125 30.62890625 C-7.89599611 25.011937 -10.97455525 15.52979922 -11.34375 8.00390625 C-10.78125 4.62890625 -10.78125 4.62890625 -9.34375 2.12890625 C-6.1174334 0.24033068 -3.68219163 0.10718709 0 0 Z " fill="#F6EB00" transform="translate(420.78125,328.37109375)"/>
<path d="M0 0 C4.93692797 3.07877713 6.45890655 6.48755526 8.3125 11.75 C8.57611328 12.42804688 8.83972656 13.10609375 9.11132812 13.8046875 C10.90810715 18.71432786 11.37555432 22.77587131 11 28 C9.5 30.5 9.5 30.5 7 32 C4.22011721 32.54686219 1.74791413 32.72991469 -1 32 C-4.5728931 29.16447696 -6.03886166 26.13450676 -7.6875 21.9375 C-8.10386719 20.89464844 -8.52023438 19.85179687 -8.94921875 18.77734375 C-10.86765222 13.70668874 -11.85984941 9.41314288 -11 4 C-7.77123438 0.10648852 -4.96361941 -0.8272699 0 0 Z " fill="#F6EB00" transform="translate(107,207)"/>
</svg>
