<?xml version="1.0" encoding="UTF-8"?>
<svg version="1.1" xmlns="http://www.w3.org/2000/svg" width="512" height="512">
<path d="M0 0 C0.83328284 -0.00581376 1.66656568 -0.01162753 2.52509952 -0.01761746 C5.31792121 -0.03221786 8.10986412 -0.01833207 10.90267944 -0.00457001 C12.92488873 -0.0091789 14.94709467 -0.01553173 16.96929359 -0.02347898 C22.52682607 -0.04019694 28.08408424 -0.03191461 33.64161777 -0.01953411 C39.63488702 -0.0104961 45.62810859 -0.02444716 51.62136841 -0.0354538 C62.68367752 -0.05222772 73.74591105 -0.05075271 84.80822068 -0.03980792 C95.02764357 -0.02974668 105.24703436 -0.02711843 115.46646118 -0.0318985 C116.14427405 -0.03220404 116.82208692 -0.03250958 117.52043958 -0.03282438 C120.27188589 -0.03406973 123.02333219 -0.03534333 125.77477846 -0.03666343 C151.58676977 -0.04890012 177.39870532 -0.0378045 203.21068802 -0.01627585 C226.14434394 0.00270666 249.07791102 0.00100816 272.01156616 -0.01811981 C297.77626852 -0.03953719 323.54092161 -0.04803231 349.30563164 -0.03567076 C352.05207188 -0.03438788 354.79851213 -0.03313652 357.54495239 -0.0318985 C358.22119866 -0.03158219 358.89744494 -0.03126588 359.59418352 -0.03093999 C369.80731953 -0.02638961 380.02041994 -0.03171208 390.23355103 -0.04181671 C401.84606106 -0.05324855 413.45848654 -0.05002013 425.07098722 -0.02869374 C430.99789351 -0.01816835 436.92461933 -0.014087 442.85152435 -0.02729034 C448.27471068 -0.039189 453.69754882 -0.03269316 459.12070346 -0.01138014 C461.08493605 -0.00690338 463.04919791 -0.0092043 465.01341176 -0.01888329 C467.67983276 -0.03101697 470.34505545 -0.01860302 473.01141357 0 C474.16002243 -0.014047 474.16002243 -0.014047 475.33183551 -0.02837777 C480.54142689 0.04445256 484.48684585 1.06224756 488.50570679 4.50336456 C492.5630776 9.24194481 493.08299228 13.95321718 493.00907135 19.99765778 C493.01488511 20.83094062 493.02069888 21.66422346 493.02668881 22.52275729 C493.04128921 25.31557899 493.02740342 28.1075219 493.01364136 30.90033722 C493.01825025 32.92254651 493.02460308 34.94475245 493.03255033 36.96695137 C493.04926829 42.52448384 493.04098596 48.08174201 493.02860546 53.63927555 C493.01956745 59.63254479 493.03351851 65.62576636 493.04452515 71.61902618 C493.06129907 82.68133529 493.05982406 93.74356883 493.04887927 104.80587846 C493.03881803 115.02530134 493.03618978 125.24469214 493.04096985 135.46411896 C493.04142816 136.48083826 493.04142816 136.48083826 493.04189573 137.51809736 C493.04314108 140.26954367 493.04441468 143.02098996 493.04573478 145.77243624 C493.05797147 171.58442755 493.04687585 197.3963631 493.0253472 223.2083458 C493.00636469 246.14200172 493.00806319 269.0755688 493.02719116 292.00922394 C493.04860854 317.7739263 493.05710366 343.53857939 493.04474211 369.30328941 C493.04345923 372.04972965 493.04220787 374.79616991 493.04096985 377.54261017 C493.04065354 378.21885644 493.04033723 378.89510271 493.04001134 379.5918413 C493.03546097 389.80497731 493.04078343 400.01807772 493.05088806 410.2312088 C493.0623199 421.84371883 493.05909148 433.45614431 493.03776509 445.068645 C493.0272397 450.99555129 493.02315835 456.9222771 493.03636169 462.84918213 C493.04826035 468.27236845 493.04176451 473.6952066 493.02045149 479.11836123 C493.01597473 481.08259383 493.01827565 483.04685569 493.02795464 485.01106954 C493.04008832 487.67749054 493.02767437 490.34271323 493.00907135 493.00907135 C493.01843601 493.77481059 493.02780068 494.54054983 493.03744912 495.32949328 C492.96461879 500.53908467 491.94682379 504.48450363 488.50570679 508.50336456 C483.76712654 512.56073538 479.05585417 513.08065006 473.01141357 513.00672913 C471.76148931 513.01544977 471.76148931 513.01544977 470.48631406 513.02434659 C467.69349236 513.03894698 464.90154945 513.02506119 462.10873413 513.01129913 C460.08652484 513.01590802 458.0643189 513.02226086 456.04211998 513.03020811 C450.48458751 513.04692606 444.92732934 513.03864373 439.3697958 513.02626324 C433.37652656 513.01722522 427.38330499 513.03117628 421.39004517 513.04218292 C410.32773606 513.05895685 399.26550252 513.05748184 388.20319289 513.04653705 C377.98377001 513.0364758 367.76437921 513.03384756 357.54495239 513.03862762 C356.52823309 513.03908594 356.52823309 513.03908594 355.49097399 513.0395535 C352.73952768 513.04079885 349.98808139 513.04207245 347.23663511 513.04339256 C321.4246438 513.05562925 295.61270825 513.04453363 269.80072555 513.02300497 C246.86706963 513.00402246 223.93350255 513.00572097 200.99984741 513.02484894 C175.23514505 513.04626632 149.47049196 513.05476144 123.70578194 513.04239988 C120.9593417 513.04111701 118.21290144 513.03986565 115.46646118 513.03862762 C114.79021491 513.03831132 114.11396864 513.03799501 113.41723005 513.03766911 C103.20409404 513.03311874 92.99099363 513.03844121 82.77786255 513.04854584 C71.16535252 513.05997768 59.55292704 513.05674925 47.94042635 513.03542286 C42.01352006 513.02489747 36.08679425 513.02081613 30.15988922 513.03401947 C24.7367029 513.04591813 19.31386475 513.03942229 13.89071012 513.01810926 C11.92647752 513.01363251 9.96221566 513.01593342 7.99800181 513.02561241 C5.33158081 513.0377461 2.66635812 513.02533214 0 513.00672913 C-0.76573924 513.01609379 -1.53147848 513.02545846 -2.32042193 513.0351069 C-7.53001332 512.96227657 -11.47543228 511.94448156 -15.49429321 508.50336456 C-19.55166403 503.76478431 -20.07157871 499.05351194 -19.99765778 493.00907135 C-20.00347154 492.17578851 -20.0092853 491.34250567 -20.01527524 490.48397183 C-20.02987563 487.69115014 -20.01598984 484.89920723 -20.00222778 482.10639191 C-20.00683667 480.08418262 -20.01318951 478.06197668 -20.02113676 476.03977776 C-20.03785471 470.48224528 -20.02957238 464.92498711 -20.01719189 459.36745358 C-20.00815387 453.37418433 -20.02210493 447.38096276 -20.03311157 441.38770294 C-20.0498855 430.32539383 -20.04841049 419.2631603 -20.0374657 408.20085067 C-20.02740445 397.98142778 -20.02477621 387.76203699 -20.02955627 377.54261017 C-20.02986181 376.8647973 -20.03016736 376.18698443 -20.03048215 375.48863177 C-20.0317275 372.73718546 -20.0330011 369.98573916 -20.03432121 367.23429289 C-20.0465579 341.42230158 -20.03546228 315.61036603 -20.01393362 289.79838333 C-19.99495111 266.86472741 -19.99664962 243.93116033 -20.01577759 220.99750519 C-20.03719497 195.23280283 -20.04569009 169.46814974 -20.03332853 143.70343971 C-20.03204566 140.95699947 -20.0307943 138.21055922 -20.02955627 135.46411896 C-20.02923996 134.78787269 -20.02892366 134.11162641 -20.02859776 133.41488783 C-20.02404739 123.20175182 -20.02936986 112.98865141 -20.03947449 102.77552032 C-20.05090633 91.16301029 -20.0476779 79.55058481 -20.02635151 67.93808413 C-20.01582612 62.01117784 -20.01174478 56.08445202 -20.02494812 50.157547 C-20.03684678 44.73436067 -20.03035094 39.31152253 -20.00903791 33.88836789 C-20.00456116 31.9241353 -20.00686207 29.95987344 -20.01654106 27.99565959 C-20.02867475 25.32923859 -20.01626079 22.6640159 -19.99765778 19.99765778 C-20.00702244 19.23191854 -20.0163871 18.4661793 -20.02603555 17.67723584 C-19.95320522 12.46764446 -18.93541021 8.5222255 -15.49429321 4.50336456 C-10.75571296 0.44599375 -6.04444059 -0.07392093 0 0 Z M14.50570679 34.50336456 C14.50570679 181.02336456 14.50570679 327.54336456 14.50570679 478.50336456 C161.02570679 478.50336456 307.54570679 478.50336456 458.50570679 478.50336456 C458.50570679 331.98336456 458.50570679 185.46336456 458.50570679 34.50336456 C311.98570679 34.50336456 165.46570679 34.50336456 14.50570679 34.50336456 Z " fill="#FFFFFF" transform="translate(19.494293212890625,-0.5033645629882813)"/>
</svg>
