<?xml version="1.0" encoding="UTF-8"?>
<svg version="1.1" xmlns="http://www.w3.org/2000/svg" width="512" height="512">
<path d="M0 0 C0.825 -0.0103125 1.65 -0.020625 2.5 -0.03125 C6.80858668 0.88432467 9.34717842 3.55187548 11.79833984 7.11181641 C12.34699707 8.09843262 12.8956543 9.08504883 13.4609375 10.1015625 C14.0895166 11.21821289 14.7180957 12.33486328 15.36572266 13.48535156 C16.0355176 14.69854793 16.70527576 15.9117646 17.375 17.125 C18.08134612 18.38574928 18.78888505 19.64583094 19.49755859 20.90527344 C20.95591582 23.49823728 22.40999653 26.09352764 23.86132812 28.69042969 C27.06302145 34.4073265 30.34363264 40.07857542 33.625 45.75 C34.24165527 46.81814941 34.85831055 47.88629883 35.49365234 48.98681641 C40.21553047 57.16106377 44.97084354 65.31557248 49.7331543 73.46630859 C55.8994513 84.02647084 62.00505039 94.62142546 68.10888672 105.21777344 C71.23680148 110.64659942 74.36858448 116.07319281 77.5 121.5 C78.75001879 123.66665583 80.00001878 125.8333225 81.25 128 C81.86875 129.0725 82.4875 130.145 83.125 131.25 C88.75 141 88.75 141 90.62524414 144.25048828 C91.87435518 146.41557071 93.12354129 148.58060982 94.37280273 150.74560547 C97.51202309 156.18615706 100.64990563 161.62747216 103.78515625 167.0703125 C109.83055159 177.56232094 115.89110219 188.04481676 122 198.5 C128.74701194 210.04729516 135.43339318 221.62902027 142.10888672 233.21777344 C145.23680146 238.64659938 148.36853731 244.07322007 151.5 249.5 C155.26363919 256.02233275 159.02644622 262.54513762 162.78515625 269.0703125 C168.83055159 279.56232094 174.89110219 290.04481676 181 300.5 C187.74701194 312.04729516 194.43339318 323.62902027 201.10888672 335.21777344 C204.23680148 340.64659942 207.36858448 346.07319281 210.5 351.5 C211.75001879 353.66665583 213.00001878 355.8333225 214.25 358 C214.86875 359.0725 215.4875 360.145 216.125 361.25 C218 364.5 219.875 367.75 221.75 371 C222.36931396 372.0734668 222.98862793 373.14693359 223.62670898 374.25292969 C224.87104998 376.40980903 226.11535364 378.56670992 227.35961914 380.72363281 C231.2328804 387.43775939 235.10684536 394.15147769 238.98413086 400.86328125 C240.27039433 403.09338334 241.55383537 405.32511609 242.83422852 407.55859375 C245.40553598 412.04037955 247.97815562 416.50982641 250.71875 420.890625 C254.28240583 426.63674983 257.15787315 431.47015042 256.5390625 438.4375 C255.73232852 441.52413437 254.33478892 443.37122187 252 445.5 C248.83594774 447.08202613 245.43366106 446.64224594 241.9591856 446.63701439 C241.11418905 446.63966622 240.2691925 446.64231804 239.39859 446.64505023 C236.5361167 446.65277634 233.67368606 446.65330366 230.811203 446.65390015 C228.75063933 446.65791258 226.69007644 446.66235043 224.62951452 446.6671797 C218.94289995 446.67917531 213.25629388 446.68480054 207.56966913 446.68936086 C201.44616471 446.69530557 195.32267051 446.70691812 189.19917297 446.71765137 C175.09939822 446.74103929 160.99962307 446.75558574 146.89983532 446.76788078 C142.02304865 446.77213395 137.14626237 446.77669963 132.26947618 446.7814641 C106.35268218 446.80672128 80.43588757 446.82877471 54.51908398 446.84119225 C48.51296677 446.84411369 42.50684958 446.84708119 36.50073242 446.85009766 C35.75453064 446.85046857 35.00832886 446.85083947 34.23951491 446.85122162 C10.0368896 446.86338161 -14.16566307 446.89433263 -38.36825425 446.93601918 C-63.23905613 446.9787787 -88.10981963 447.00542962 -112.98065926 447.01066696 C-116.49126869 447.01140744 -120.00187805 447.01231813 -123.51248741 447.01332474 C-124.20343254 447.01351535 -124.89437766 447.01370597 -125.60626052 447.01390236 C-136.73902644 447.01741993 -147.87170155 447.0377361 -159.00443409 447.06412137 C-170.18845034 447.09022912 -181.37236302 447.09759379 -192.55641512 447.08702008 C-198.61878151 447.0818157 -204.68085837 447.08483556 -210.74318314 447.10948563 C-216.28801271 447.13184415 -221.83234252 447.13134301 -227.37718006 447.11228175 C-229.38796989 447.10946287 -231.39879266 447.11518397 -233.40952919 447.13009469 C-236.13419004 447.14907148 -238.85704498 447.13750037 -241.58166218 447.11803246 C-242.37012814 447.13088168 -243.15859409 447.1437309 -243.97095296 447.15696949 C-248.05959223 447.09237317 -249.77917711 446.68449758 -252.96364611 444.02387297 C-253.97164129 442.77455585 -253.97164129 442.77455585 -255 441.5 C-255.33 441.17 -255.66 440.84 -256 440.5 C-256.87189537 433.31607334 -255.63109235 428.43279828 -251.875 422.375 C-251.43051514 421.61767578 -250.98603027 420.86035156 -250.52807617 420.08007812 C-249.55390836 418.42404273 -248.57035517 416.77350077 -247.57861328 415.12792969 C-245.94240706 412.40412458 -244.34047616 409.66254158 -242.74609375 406.9140625 C-240.40730562 402.88276137 -238.05948064 398.85699635 -235.703125 394.8359375 C-231.96365411 388.44718008 -228.25874966 382.03883924 -224.5625 375.625 C-223.94028564 374.54541016 -223.31807129 373.46582031 -222.67700195 372.35351562 C-221.41488483 370.1631748 -220.15292215 367.97274498 -218.89111328 365.78222656 C-215.76319852 360.35340058 -212.63141552 354.92680719 -209.5 349.5 C-208.24998121 347.33334417 -206.99998122 345.1666775 -205.75 343 C-194.5 323.5 -194.5 323.5 -183.25 304 C-182.63116943 302.92733887 -182.01233887 301.85467773 -181.37475586 300.74951172 C-180.12564482 298.58442929 -178.87645871 296.41939018 -177.62719727 294.25439453 C-174.48797691 288.81384294 -171.35009437 283.37252784 -168.21484375 277.9296875 C-161.59777108 266.4455118 -154.95366023 254.97803106 -148.26708984 243.53417969 C-142.10080946 232.97379718 -135.9950405 222.37873234 -129.89111328 211.78222656 C-126.76319852 206.35340058 -123.63141552 200.92680719 -120.5 195.5 C-119.24998121 193.33334417 -117.99998122 191.1666775 -116.75 189 C-99.25 158.66666667 -81.75 128.33333333 -64.25 98 C-63.63116943 96.92733887 -63.01233887 95.85467773 -62.37475586 94.74951172 C-61.12564482 92.58442929 -59.87645871 90.41939018 -58.62719727 88.25439453 C-55.48797691 82.81384294 -52.35009437 77.37252784 -49.21484375 71.9296875 C-42.58064627 60.41556451 -35.93718912 48.90713993 -29.21875 37.44189453 C-26.17586913 32.24738569 -23.1619678 27.03872307 -20.1875 21.8046875 C-19.55980713 20.70785645 -18.93211426 19.61102539 -18.28540039 18.48095703 C-17.08368802 16.37982591 -15.88972394 14.27423771 -14.70483398 12.16357422 C-7.66471978 -0.095809 -7.66471978 -0.095809 0 0 Z M-1 36.5 C-1.41137207 37.22251953 -1.82274414 37.94503906 -2.24658203 38.68945312 C-9.44410001 51.32451934 -16.65186998 63.95170415 -24 76.5 C-29.0319249 85.09515717 -34.00389135 93.72312241 -38.9375 102.375 C-45.96603507 114.70025196 -53.04240434 126.99722067 -60.14111328 139.28222656 C-63.26324603 144.68670641 -66.38145881 150.09344718 -69.5 155.5 C-73.23636915 161.97766885 -76.97348347 168.45489983 -80.71484375 174.9296875 C-87.53502637 186.73629484 -94.3232326 198.56027 -101.07736206 210.40472412 C-106.23416608 219.44471708 -111.45543769 228.44525321 -116.71337891 237.42675781 C-121.16916344 245.04905778 -125.56397146 252.70531311 -129.9375 260.375 C-136.96603507 272.70025196 -144.04240434 284.99722067 -151.14111328 297.28222656 C-154.26324605 302.68670645 -157.38141204 308.09347412 -160.5 313.5 C-161.74998122 315.6666775 -162.99998121 317.83334417 -164.25 320 C-165.178125 321.60875 -165.178125 321.60875 -166.125 323.25 C-171.75 333 -171.75 333 -173.62475586 336.24951172 C-174.8756448 338.41776264 -176.12645852 340.58605697 -177.37719727 342.75439453 C-180.48798335 348.14717915 -183.60004238 353.53922093 -186.71484375 358.9296875 C-187.95583757 361.07806239 -189.19672291 363.22649994 -190.4375 365.375 C-191.04932129 366.43436768 -191.66114258 367.49373535 -192.29150391 368.58520508 C-195.60343171 374.32590878 -198.90239226 380.073728 -202.18359375 385.83203125 C-202.70617012 386.74893234 -202.70617012 386.74893234 -203.23930359 387.68435669 C-204.62600369 390.11766427 -206.01268244 392.55098303 -207.39816284 394.98498535 C-212.00393755 403.07329753 -216.69520436 411.09337122 -221.59375 419.0078125 C-223.16380913 421.31337917 -223.16380913 421.31337917 -223 423.5 C-75.82 423.5 71.36 423.5 223 423.5 C221.60210955 420.00527389 220.28283805 417.05006512 218.453125 413.82421875 C217.94547607 412.92678955 217.43782715 412.02936035 216.91479492 411.10473633 C216.3654126 410.14204834 215.81603027 409.17936035 215.25 408.1875 C214.67290283 407.17131592 214.09580566 406.15513184 213.5012207 405.1081543 C208.87393336 396.98153162 204.16804853 388.90182101 199.44213867 380.83227539 C194.93288832 373.12450969 190.48544565 365.38249663 186.0625 357.625 C179.03417892 345.2996267 171.95759481 333.00277786 164.85888672 320.71777344 C161.73675395 315.31329355 158.61858796 309.90652588 155.5 304.5 C154.25001878 302.3333225 153.00001879 300.16665583 151.75 298 C149.25 293.66666667 146.75 289.33333333 144.25 285 C143.63133057 283.92766113 143.01266113 282.85532227 142.37524414 281.75048828 C141.1243552 279.58223736 139.87354148 277.41394303 138.62280273 275.24560547 C135.51201665 269.85282085 132.39995762 264.46077907 129.28515625 259.0703125 C122.46497363 247.26370516 115.6767674 235.43973 108.92263794 223.59527588 C104.32605777 215.53736788 99.6867584 207.50582214 95 199.5 C89.9681931 190.90477328 84.99610928 182.2768787 80.0625 173.625 C73.03396493 161.29974804 65.95759566 149.00277933 58.85888672 136.71777344 C55.11021966 130.22874904 51.36691333 123.7366305 47.62255859 117.24511719 C44.51181661 111.85251686 41.39986673 106.46062178 38.28515625 101.0703125 C32.42006608 90.9170341 26.56853594 80.75653451 20.76000977 70.57080078 C18.10927809 65.92255261 15.45217143 61.27796452 12.79345703 56.63427734 C11.64682778 54.63040772 10.50181171 52.6256136 9.35888672 50.61962891 C7.95493617 48.15876669 6.54180411 45.7034771 5.125 43.25 C4.72627686 42.54673584 4.32755371 41.84347168 3.91674805 41.11889648 C3.00102927 39.54498572 2.00906298 38.01575984 1 36.5 C0.34 36.5 -0.32 36.5 -1 36.5 Z " fill="#FFFBFB" transform="translate(256,32.5)"/>
</svg>
